<mxfile host="app.diagrams.net" agent="Mozilla/5.0 (Macintosh; Intel Mac OS X 10_15_7) AppleWebKit/537.36 (KHTML, like Gecko) Chrome/126.0.0.0 Safari/537.36" version="24.7.12">
  <diagram name="第 1 页" id="ibwL9DoFzuBLu_4708AA">
    <mxGraphModel dx="3217" dy="1157" grid="1" gridSize="10" guides="1" tooltips="1" connect="1" arrows="1" fold="1" page="1" pageScale="1" pageWidth="827" pageHeight="1169" math="0" shadow="0">
      <root>
        <mxCell id="0" />
        <mxCell id="1" parent="0" />
        <mxCell id="zQXd-Jtvyqu_DLBY98N6-2" value="" style="rounded=1;whiteSpace=wrap;html=1;fillColor=#E3E3E3;strokeColor=#82b366;shadow=1;glass=0;" vertex="1" parent="1">
          <mxGeometry x="-350" y="300" width="2040" height="740" as="geometry" />
        </mxCell>
        <mxCell id="zQXd-Jtvyqu_DLBY98N6-135" value="" style="rounded=1;whiteSpace=wrap;html=1;fillColor=#DAEDD9;strokeColor=#82b366;glass=0;shadow=0;sketch=1;curveFitting=1;jiggle=2;strokeWidth=4;" vertex="1" parent="1">
          <mxGeometry x="380" y="422" width="704.57" height="510" as="geometry" />
        </mxCell>
        <mxCell id="zQXd-Jtvyqu_DLBY98N6-145" value="" style="rounded=1;whiteSpace=wrap;html=1;" vertex="1" parent="1">
          <mxGeometry x="930" y="499" width="120" height="111" as="geometry" />
        </mxCell>
        <mxCell id="zQXd-Jtvyqu_DLBY98N6-141" value="" style="rounded=1;whiteSpace=wrap;html=1;fillColor=#d5e8d4;strokeColor=#82b366;" vertex="1" parent="1">
          <mxGeometry x="-87.25" y="756" width="170" height="138" as="geometry" />
        </mxCell>
        <mxCell id="zQXd-Jtvyqu_DLBY98N6-142" value="" style="rounded=1;whiteSpace=wrap;html=1;fillColor=#d5e8d4;strokeColor=#82b366;" vertex="1" parent="1">
          <mxGeometry x="581.57" y="502" width="98.43" height="108" as="geometry" />
        </mxCell>
        <mxCell id="zQXd-Jtvyqu_DLBY98N6-143" value="" style="rounded=1;whiteSpace=wrap;html=1;fillColor=#d5e8d4;strokeColor=#82b366;" vertex="1" parent="1">
          <mxGeometry x="1393.5" y="434" width="170" height="138" as="geometry" />
        </mxCell>
        <mxCell id="zQXd-Jtvyqu_DLBY98N6-144" value="" style="rounded=1;whiteSpace=wrap;html=1;fillColor=#ffe6cc;strokeColor=#d79b00;" vertex="1" parent="1">
          <mxGeometry x="1396" y="756" width="170" height="138" as="geometry" />
        </mxCell>
        <mxCell id="zQXd-Jtvyqu_DLBY98N6-140" value="" style="rounded=1;whiteSpace=wrap;html=1;" vertex="1" parent="1">
          <mxGeometry x="-90" y="432" width="170" height="138" as="geometry" />
        </mxCell>
        <mxCell id="zQXd-Jtvyqu_DLBY98N6-4" value="" style="endArrow=none;html=1;rounded=0;sketch=1;curveFitting=1;jiggle=2;shadow=1;" edge="1" parent="1">
          <mxGeometry width="50" height="50" relative="1" as="geometry">
            <mxPoint x="140" y="1018.19" as="sourcePoint" />
            <mxPoint x="140" y="340" as="targetPoint" />
          </mxGeometry>
        </mxCell>
        <mxCell id="zQXd-Jtvyqu_DLBY98N6-5" value="" style="shape=image;verticalLabelPosition=bottom;labelBackgroundColor=default;verticalAlign=top;aspect=fixed;imageAspect=0;image=data:image/png,iVBORw0KGgoAAAANSUhEUgAAAMgAAADICAYAAACtWK6eAAAAAXNSR0IArs4c6QAAFSJJREFUeF7tnVuIXtUVx9f5khljaqI2Ru3YaLRqUUFFEihWMENBTSlVUJA+FPHFEmVGBaFvmvhW8CEZiemb2DwUqX0QWrSCzASqSBWbCApeMMFoGhNjzGVymcTvlDXjnjnz5Zy9195nr3OZ738gzEy+ffblv9dvr7X2uXwJ4YACUKBQgQTa1K/AE09sW2d60e1213U6nQn+e/PmDdM/cdSnAACpQXsG4vvv02e46SShWTjyupKmNJEk6Q6GBsBUP1kApELNDRguKOxdSjeNjT22scJu93VTAKSC6Y8DRraj6SZ4lAomjj18Nc30byujo1s3EiXT4VT8A94kvqbzawQgigrrwmE6DkgUpxAeREvcauAAJFrzZ+qFB1FQ2BeOq68emu3F6tVDtGfPPtq9e59nz+BJPAUTFQcgIpnkhXzgYDDWrVtLWUCyLTEke/Z8RePj74k60Okkw9gKFkklLgRAxFLJCo6OvpC6Sg4Pr6Hh4bWuYvM+Hx9/1wkKXzN5/vlHh70qRmGrAgAkooFIvEcIHKaLEkiIEGpFnFIk6THFdHmPMnD4QDI29igWvkgTCyEjCenyHjHgkEKCXCTSpOJCYTwhXYA8++yGeI0R0Ysvvlq404VcJJ7U8CCRtLSFVzG9h+ku73AxJEUHwqw4EwtAIuhYtfcwXX766W2FvUeYFWFiEWLFEdEGiIb3ML22hVnYzYozt/AgEXSsCxD7ti+2eyNMLbZ5Y4g4MvLCeNEzHpoexJaHIFGPMbO43T2KijZAHn743sJbSco2DkDKKug+HyGWWyNniboAQYjlnJrSBQBIaQmJkINEELGhVQCQCBNjA4Tv1OUwS+PALpaGqvPrBCARNOZnzrvddLyoKq08BNdBIkyeowoAEknjqq+ku+7sxZX0OBMLQOLoSLZEnZuI7UVs3gMXCSNNKq6kxxPSFWbFzEXsuQePCRcJY80sPEgsJYmcXiTGRUNXaAU4Ik4oPEhcMV1ehFsrA4nbc8B7xJ1RXEmPrafTi5gGfUBx3do+NwiEVrEnFCFWbEUFoVa2SQZl9eor5t2OYl75MzHx7nRR6SuAsHMVfzIBSHxNSRJqxW4Wz3/EVnSmPgCio2vFkCC0UppGAKIlLNdbhSeB59CcQXgQXXV/qN11ETGkE3jeI0Q1/3MQYvlrFnSG67l1aaUMxqJFySa8YlSqWLlyAKScft5nMyhpmtzp+y1T5qvY8O1S3pKXOgGAlJKv3MlzsKS3EiUX5dXW6dCTRMlOeIxyWoeeDUBClYt4ni1HQRIeUeiAqgBIgGixTwEgsRWNVx8AiadlcE0AJFg69RMBiLrE7gYAiFujukoAkLqUz7QLQBowCQVdACANmBsA0oBJACDNnQQA0ty5gQdpwNwAkAZMAjxIcycBgDR3buBBGjA3AKQBk7AQPAjfPm7G0e12Z39vrrzSniUPEdHqgtIvEaV7pDU1tVyn05ngvrXtlplGe5CZ5ym665Kkc2eapgsIiKaacZX9SjcxNE0HpnGAMBRpSs/wVAGKKg22zrbSTdx6E+9UbgwgBgxAUaeh1t1280BpBCCPP75tHGDUbZxNar85z9jXCkisp+yaNLXoS0wF6gelNkAAR0xDWsh11QtJLYCEhlTXXjs0awnXXXfFQraKBTe2Tz/9ij77bF/QuJIkmUgSquU5/EoBCUnEDRTr16+lLCBBSuOkRijw+uvvURgw1XuTSgGxfclM78wxDICiEfas2gmG5bXXZl6xKjmqfgS5MkCkYRXAkJjJwivjA0qVkFQCiDQhZ49xzz1rFt7sY0QiBaSQcE6yZcuGYVGlJQupAyKFY2TkXuQYJSez7acfO3aSPv54L73xxvv09deHHcOpJh9RBUQCB4dUDAcOKMAKfPzxl3Ts2An64IPdtGvX57VDUisgWnCcPn1mVlj+/dSpKVhfwxRYsmTwnB6dd94AHTp0lPbtOzT9mcSTaH8nihogEu8RM6xiEI4cmZwWNgtIw+wC3XEocPjwMZqaOjtbyg2JbqilCMgLqU2LWAn50aMnZsGA9bVfgcnJU3T8+MnZgXAuwpDYDs1dLRVAXN4jBhwAo/0w5I2gFxAu44JEc1dLCRC799iyZUPw7JpQCmFUsISNPpHDKw6zeg9XqKWVi0QHxPWtSmW8B7xGo207SueKAHF5Ea0wKzogrvAq1HsAjij214pKiq6B2LyIVpilAEhxeBXqPQ4c+A47U60w7TidLALE5UU0wqxKAQnZ1oXniGN0barFdhV9+/Y3C4eiEWZFBSR2eBUbjr17D5L5Z1Tmv7PHqlUrp//M/jS/t8nIJH3lsb/99kezRXu16NWB/7799hslVZcqYwOk6jCrMkB8w6tYcBgjyJt8n1k0hlGFgfj0y6es0YChKKMHLxj8T0sLGyC2MEsjD4kKiO2Wdl9AykwgGw0bQXZ19DEkV1k2DC3jcLUd8nmsRSKvbY2Foy8B8ck/yngPNoaXX94RYkfe5zQdFE0wesWKqYXrTl5bHhI7UY/qQWxPDEoBCYWjSmPozVnYOJqWp2h6UNtKEgOUvgREev0jBJC6jCFrKDEMw9uFFZzAHrRsiFqmL7xYPPjgncFVuACxJeqxd7Iq8yASQPj2Eb7m4XM0AQ7T37ohqTK8lMwRQxLiWQFIgbq+3iNkpVxy+UpafsvcViX/nT1O7Z/Z9j29/yCd/vogmb8lBmG2QetI4EMXCokerAUfR3bNbQlr6gFACtT1CQt84DBG0AuDdJKP7PzIyzjKhhjSfplyvnCU0YMXDAbGBxZfTwJASgIiNYgyhpDXRR9Qqgq3fMKqOvXwgQSA5FifNLySwnHhLTfShbfqXPWVglIFJBJPGhuM7PRJtfDxqgAkEJAmwGG6LjUMn5VTI7RiOC69O3xHSdqnA//a4czXpJAAkBzVJXfsPvfcK9b50lwpQ0MuqVFIDdEn79D0oqF6SLwqAAkAROI9eKWUJuKdwYHpXpif2S51p84Q/5McnLTy6mk7NLyIa7HwgcOmBY/LRw+JZ33qqQesegGQHHlcO1hlDYKNYObfYC4URTN29vjMm1LOHj9ROKkxjEICo9R7SMIq1mLxBT+KrgX30RVuubwIAPEExOU9bKtliCHYYCkCxQWJyyh8AHEtFlc+lL9CV6UFj+WLl+zhsM2rAhBPQGwGYYNj8McXea2QUiNlr5IHimvldIUWkvZDF4vFFyyd9hixjyItXKGnLTcDIB6AhBgEr5QMh+aRZxguo4iRi9gWi7zQKqbXKNKTcxTWozdvC10wAIgHILZ9/jzvkV0pz+sQne7KMBlIiM5YX3WXX8/Ut9/NMwybUZTd0XJdFOzVQ8trSEPQ0AUDgHgA4hNe9RrE8kVEty3j71t3Q/LRCaKDso2rcyrLQuIyijJhls2b9nqPquEwovR61pAFA4AIAXGFV9lkNM8gDCBuPIg+nAwHhOvPQmJLUMuEWdLFIk+Lq5YQnRUsFDyWQ2eITgk9b562WUhsC0aRRwUgEQDJhhNFq2WVgHD8zZC4tjlDwyxXeGUWi6L862dLiFYtkSwVRDu+IxKyVFihWTBcHjVvwQAgQkAkK6YtIa8SEB6SgSRk1XSZrhSQogulVQMiXTAAyA8z73pgKu9CoQ0Qs2LarpxXDYgJtU58sa/w6nqoB7GFm8ab2vKOqgHJLhi2PCTv+hA8SAQPwoC4EtE6ADErpy0PCUnUJYDYFos6ADELxuH/7Cp8fgSABHoQW0hhdmxc913VAQgPl5PUz7f+pTBq0gBkxR1rrBcC6wKEF4yjH33q5VHhQQQexAXI0P3rnVeG6wKEh8cepOhx3ZCdLNv1oMt/8ytaftP11jSmLkC4U0c//IT2/yP/laF5IScAKQnI+UOX0hUP/tZ5G0mdgOzd/nc6ue9ArtHGBuQn991Ny35+TWMBmfz8C/rqb//M7R8AUQixGJBVv7/ftfFDdQLyyZ+2RQ2xbB7kp7+7l5ZeOdRYQL7Z8Q59+85/c/uHHCQQED7Ntot1/R/d31J1yQDRRYudHE0X4FtS9p6WlZWUig2ILUlf8cs1tOKOtY0F5NC/36VDb70HQGxvVoy9zSsBRGLIGmV4m/fLv74a1YMAkDk5+/LFcb7XQSRhhYbx85v2XFeZbStm6HUQ26YFh1esh+24cLH8xs3v07AbN4va58WCF428AyFWiRCrbNxdFpCVg0SdTCWdhOjAFBEbkO3wDSkk/XRdSW+yR7WFm7iSrgSIZNWUGJ6tzIoBomWL5pfgPMUFiM0gyjxZaMvJND3qomT+QmEU4Zsfy3hTrifvmhC2eXOsMi/Ecq2amkbBXQwBRCP/MHLZPKr2gsF3A2df5MzPznwl2NQI8aYARAgIF7MZhWT3powXCQFEI/8wY6hzwbjyPCIOMc3Bu37/m3KrG+JNAUgkQLgaTS9y6SDR0mwSQjNbwUUhlst7lAmvjGS2MEvTi4QAYlssisIr/n8A4gGIa9XUNIq89ZFX0W5B4O0yiJAr6L19cL1qVGvBCAEkxHsAkAKvbHsvVl1G4Q4g5kq44IjhPbi1uhaMlQPzPedi3tGzPKJcRg94EA8PUqdRSAFxhVa2cELaRraca8HQzs1cfS4DBzxIgAdxJev8edWhVnYYtgthXC6W95Am61yuLkhccHDfXKFm4z3IyMjWBxYt6nzjWil6P+920/Gic0JuNcnW5Qot6jIKFxyxvYfRxOVF6tBD4kkli0U5QOhJomSnj+1u3rxhoqh87ncUjoxs/UOSJH/2acRVtiwgXL/rLSdVehI2hm/ferfwFgqjh8QgXNrlfS5ZMKqEROI5pItFGUB8tUxTmnj++UeHFwQgklDLDFRrN4frl6yUGqFV7yQ2BRIpHNLFAoDk4Op6u3v2FEl4obF6Sr0Gtx16U6LvCijxqqbO2HmJjx5SOLivAKQkINKVM6ZhSFdJ02bIc+e+cJjyvpBMLx6O50dsffEBI8STApCSgEjzkd5meAWVGoe5PVuSZ/S249qlCQXBdp4PJNmFw0cP1sKEmNIx+HgOUycAiQAIV+HrSXqbNY+pnr9qiE7unXteoejZBZdRcFjFBsE/6zhCIMn2k/VgLfiIoUcIHK0IsUZHtz5DlNwTMMm/KDonxi5WUd3SnCRgPOJTqso5XB0qC4mrfunnoXBEAGRnmtLMO2AFR5KkO8bGHttYVDR3m1dQb26R2I/c+vSjTsMoYww+Y5SWLetZpe3klYvhRcuEWJ1OMmy7ruE7tgUDCA+cIcn+9BXDt3wMY/Bt06d81YtGrIUCgOTMss82r8tItA2j6WD06qOtRywwTL8BiDIgpvrYHqVtYOSBwgtRjMXIbERobEoAkIoAyTYTAoumEbi8oPbnrIcvLGaB4L5p7tQBkBoAyTM4s5Kan2bSNSdf2/BD6y/SQhuGvP4CkIYAEmpMOE9XAQACQHQtrOW1AxAA0nIT1u0+AAEguhbW8toBCABpuQnrdh+AABBdC2t57QAEgLTchHW7D0AAiK6Ftbx2AAJAWm7Cut0HIABE18JaXjsAASAtN2Hd7gMQAKJrYS2vHYAAkJabsG73AQgA0bWwltcOQABIy01Yt/sABIDoWljLawcgAKTlJqzbfQACQHQtrOW1AxAA0nIT1u0+AAEguhbW8toBCABpuQnrdh+AABBdC2t57QAEgLTchHW7D0AAiK6Ftbx2ANIyQMxbGfPsjl+9WfbQrF+z7rLjLjofgLQMkOeee6XQFmJ81Zrt+03KfluVdt81IAEgAGSeAgBkvkEAEAACQCyuB4AAEAACQOYroPkdhRpxcLZO7TgeIdac2lNTZ+nw4WPWKX3jjfcLv0sdX8GmTUNO/QCkOtEBSIHWMb71SGsaAYiWsufWOzl5io4fPwkP0qsAADmYaxT9ts0LQOBBzlEAOcicJAAEgACQEjtYfCqS9OpCXlFLyEFEMpUuJPEeAKS0zPErACDxNc2rEYBYdEaSjiTddQXdmA9CrGoWLHEr8CBiqYILSr0HQqxgifVOBCB62pqapd4DgOjPhXcLAMRbMq8TfLwHV7x9+5uF9bf2VpORkXvp2muHCgeGHKR/cxAf7+ECZGzs0cSLTkfhqJU9/vi28TRN1+W1CUCKZ6KfLxT6eg8AEhP/SHUhxIokZE81IXCwt+FdrKKjtR6Ewyv2IkVHk0MsXuGLDr5XquzBz40XjZ+feV+1amVwE9p9D+1YCBzc1gcf7KZduz7PbTZJkoktWzYMh/Yp77yoIdYTT2xb1+2m43kNtRmQmIKjLqJQOFyAEKWbxsYe2xhT48oA4U7b8pAme5CYgvd7XWXgcOUfjQeEB2BL1B955Nd0001X5doIAFn46JSFwxZesXqx8w+uM6oHcQHCsTRDsnz50nOsAYAsXED4KcHJyZPEP8scdkDih1cqgNjyEG6Qk87169eeA8mBA9/R6dNnyuiHcxuoQFmvYYbk8h4a4ZUKIC4vwp+Pjt5HZ86cpaGhFbOgHD16go4cmWzgFKNLIQrEAkMKiEZ4pQbI6OjWjUTJM0XCrllzPd1ww6rpjy+44Hy65JLltGzZUmIvgqO9CsQKpXoVqMt7qAEi8SJ33XUbXXbZxbNaDA4unv59cHBg9v8GBmb+D0czFeAogI+pqTOl84uiEbouDPJ5Wt5DFRBXLsKN90LSTDNAr+pUwPbsx0y/dJJzM+bou1hZMW1bvlyOPQhDggMK5CngDq10vYeqB+HKJV4EkACOUDi0vYc6INyAK2E34iDcAihGAXdYpR9aVRJimUZcoZYpd8st19DNN18NS+lTBSQJ+fSqrnBTYpHkqjmITz6SheSyyy6at8PVp/bSN8NmMHbt2l34QupeITR3rXrbqgwQST6S7Ry8SX/wIUnEs0rEfqTWpXJlgEiT9t4OcxJ/+eUXE7yKayrb8bl5vNbHY5iRVQ1HJUl63rRJc5K8cw0w7TAH9JIV2L//8KwQvs+fm5wjSWjT5s0bJqpWtFIPkh2cdHerakHQXrMUqDIhzxt5bYBwZwBJs4yxeb3RvUouGW+tgJgOAhTJVPVPGfYadYVUte1iSaYXoEhUWrhlmgSGUbkRHuTc3GQ6NSu8XX7hmkh/jqyJYDQWkKyJzFw76a4DLAsLHAZiZneqnp0pHzUb50FsnWdg+PMZaGaOJOmUfzGVj2Io66VAmnZ3dDqd2e3ZOrZqvTrcU7hVgJQZKM6FAiEKAJAQ1XBO3ygAQPpmqjHQEAUASIhqOKdvFPg/NL841++ytNcAAAAASUVORK5CYII=;" vertex="1" parent="1">
          <mxGeometry x="-57.5" y="440" width="110.5" height="110.5" as="geometry" />
        </mxCell>
        <mxCell id="zQXd-Jtvyqu_DLBY98N6-6" value="&lt;p style=&quot;line-height: 200%; margin-top: 0pt; margin-bottom: 0pt; margin-right: 0in; text-indent: 0in; text-align: left; unicode-bidi: embed; word-break: normal; font-size: 25px;&quot;&gt;&lt;span style=&quot;font-family: &amp;quot;Helvetica Neue&amp;quot;; font-variant: normal; color: black; letter-spacing: 0pt; font-weight: bold; vertical-align: baseline; font-size: 25px;&quot;&gt;&lt;font style=&quot;font-size: 25px;&quot;&gt;Base LLM&lt;/font&gt;&lt;/span&gt;&lt;/p&gt;" style="text;whiteSpace=wrap;html=1;strokeWidth=30;fontSize=25;" vertex="1" parent="1">
          <mxGeometry x="-57.5" y="380" width="205.5" height="40" as="geometry" />
        </mxCell>
        <mxCell id="zQXd-Jtvyqu_DLBY98N6-8" style="edgeStyle=orthogonalEdgeStyle;rounded=1;orthogonalLoop=1;jettySize=auto;html=1;shadow=1;sketch=1;curveFitting=1;jiggle=2;" edge="1" parent="1">
          <mxGeometry relative="1" as="geometry">
            <mxPoint x="-2.08" y="751" as="targetPoint" />
            <mxPoint x="-2" y="585" as="sourcePoint" />
          </mxGeometry>
        </mxCell>
        <mxCell id="zQXd-Jtvyqu_DLBY98N6-9" value="" style="shape=image;verticalLabelPosition=bottom;labelBackgroundColor=default;verticalAlign=top;aspect=fixed;imageAspect=0;image=data:image/png,iVBORw0KGgoAAAANSUhEUgAAAH4AAAB+CAYAAADiI6WIAAAAAXNSR0IArs4c6QAAAIRlWElmTU0AKgAAAAgABQESAAMAAAABAAEAAAEaAAUAAAABAAAASgEbAAUAAAABAAAAUgEoAAMAAAABAAIAAIdpAAQAAAABAAAAWgAAAAAAAACQAAAAAQAAAJAAAAABAAOgAQADAAAAAQABAACgAgAEAAAAAQAAAH6gAwAEAAAAAQAAAH4AAAAAMq720wAAAAlwSFlzAAAWJQAAFiUBSVIk8AAAGKJJREFUeAHtmnmMXeV5hxODsfG+23ibGS/jbbyv2MZgY2IIBEjbKCGlilS1qqpK/aNqqNJIQBu1oqhpK6jUtFGlKqmTqhCy0AawTM3YeN/33R7vG17A+4Ld57HumczcZdbz3bl3fH7S43Pn3rnnfN+7nzP+whcSJRZILJBYILFAYoHEAokFEgskFkgskFggsUARWuCLRbjm5iz5Pr7cDwZC19SJrnA8Akfh89R7rf7Q2h3fBg92gN7QDXrAWBgPBoC6AJtgPXya+vk4x8uQqEgt8CDrngyvwhIwu+/k4Cbvb4E3oQJadVK0ts2Z4X1gPkwDnW5mt4OO0Bks99lkmb8KF+EanACrwBr4BVyCVqNid7xOvB/M0DEpyjkOBgPA8t4JmiIdbek/BfthO2yFPbANilrF6niz+CEYDg5qU2AU+F5fCKHDnNQqoPOtBFVgUJyGY1BUKhbHP4BVLdNdUujwJ+AR0OEtoaVc1JlgLRgMDokOhJ+BrSJRDBboyTmegzfBrMs1oLXU+w6Nb8CLMAAKXoWa8Wa3mTwZzOoR0B3s12a9FaCQ1u4dwXlwODQInAH+B3bBTrgIBaVCMl4ZltHBOlzs3fZsBzWdXkhrZTl1yqHQIfATOAMbYTMYBCehxdWSxnTidvLWwTp3WIqJHIdCrtsuPio6GQTLYS84CB6AKjAorkPelU/He6320BV8mjYOLOVTYTb4Xj7Xw+XyLp8VWAWWwcdgJbAC2AocDh0KnVNanSrY0WvgQxEn4JYaxgrlujewgVXg70Db5E0hM8wHK71hDoxNUcqxB0RZ35rKOdtqtG7zDUv9WTgH/o1gNzgcvgen4BbErjgd7+NSne2ANhIc0ErAfu2xJzitJ8ptAe8IHAx9WKTznQe2g8HgcBibmut4Hd0L+oJP07yHnQ46vRQGQaKmW6CKr/pk0LuB/wWHQauA71klmqymOP5Brmaptkx7T62jH4WpMAYShbOAs9EqqARf2yp8huBw2KinhU1x/HAu8nWYCzq7HTittgUrQKJwFtDJ0h6cCd4B7wysBkegwWqI4ztxtmEwARzU7OEPQXewZ9/rAxomaBEZAN4a+rcBW8BBWAubYAs4K+RUXY7XqVNgHvinzv5gKdfhiQrPAgaAj4hPwnr4GBwIGzULWL6/DD8FI+dOQlHZwAHwLfga6MsGydsy+/i7YO9OnF68Nvgw5Ut9WkvZ+rND2p+Cw5v33omK1wImre3csm8SVysjEvjEX/QPJw51iYrbAh1Z/iDImOVyOb4Dv5ytGhS3Ge691etDfdkgx1seTsBlSFTcFrjK8s+APq2lbBlvL1gMByHjC7W+nfxQyBbwqZ4JvBJ8XUt1Od4v+MVExWkBfbcMnOwz/sKXq4/7i0fgNPggZzAkKnwLmNn+mdcpfiH8HKzcGRl/P2/mkv9dyD5/DMz+oeBf4AyCAZCocCygc/fDUTBhfWy7IfXa1p2hjGkv4zd+88YjvPTv7JNhNPi83lu+buAfDRLlzwL+zx2fqIolXSebnD6i9bFtvWqM42ueTGe/CBNgDgwBzxXBy0QxW8BBOyrZVuFVsBQs6RegUWqq420RZrv/v70dGAC/DTOgFHwvUXwWiP6v/mpOuQR2gNl+DS5BxvDGe3WqqY5PP6n/McOs7w0lYCsYD5PAzxI13gL+2XUZrAD/65VZ7rDt/8vT6VH287LxisvxNa/cgR8qYBSMAGeBMnA+6AuJsltAR/qwxUGtCk6AvXsj2LezDmm83ySFcHzNhVjyB8M4mA8Ohj4/tgr4f/X8/F6VPdsna+ch+s8U23ltOd8KO8HPgyi049MXbTV4GObB78EguFdlBnvL/HP4P3BYy9tj8nw7PhoKHQy9BbQSzAZnAQfD1l4BHMbWwCJYCYchGtCaNKTx/SYp345PX2R33ugPPhByMJwGBoCzgENia5APVcT/DrUFDsE+8H/J6OwWUUMc7y1bD9AxlqdzcBJCaCwnHQ4Ogj4pdEg0AHxuUCzVwH6tjZzCq2AXePu1HyztZrj9PU6ZQNrIx+ve0zv9e52cqsvxGron2IfHQzl4i7EZHD6MVu8v3eh1iFuu7evwOIwBN+dg6FBom6hr7XycN+lE9x8NaQd4vREs6UvAvm3CxCmT0Xapoz1GA7TJeQJWgm3kLDR6QPQ27GUwet1cTYyqv4cXoA+EVlsuMBG+B2ZSzbUUwmuN/c8wFVxraHXlAk/DP4AOTreBPnsNhkFW5coaM+ov4JtQBumbucF7ntxoNuutAu+DZW03xN277uOcrslyZlT3gwkwDb4K+dRtLmYZ/QjWwwaoAjM+yrC4M9ysHgGTYBaMBNuvGa9NrABtIJKVuQreBoPDdRkc1crmeI08D74Dc8Cf65Ob1uFnwAjcAQbDFrgIcUtDOAAOhNFgGxJbQgnELR1pf3ZfHh3O3KfV5yS4/7hl+dbZ7snM9ef+UAo6PZvveLtarrkS/iZ1rBWM91f/2m9e6GhL1iBoiNP9ZneY4Qt0C8wEMUI/gQNQBQbGbWiurCiyH9zccPBJ4VgYBwaEgdEHOkNTdIUvnQWnbx2+CQxkHX8E4pYZq0O1u8HrPtyXjndf2XzF2zml77TDFFgG9Tqe37n7ZK2xF/J7yu9NT+HFdPZSeB/Ww6egUT3egDi0l5PIr6AjzAOD92EoBcuhreJByBXMrtV1iUF1FHS2Q9q7EHflMmMt0VYv12Xy6Oy5MBvKwM+bI21hEBlU9cqLvQIa8k7MXOB8H8P3wGgMLY1bAW9AJejUXHvysyXwKkwGnRFaQ7nAn4GB5S1YrrU19X19+ApkBJDZmS4jfxUsgGHpHzbzZyPQsjUIPP9B2AY7wIrgsBinNJjXeBM6g1mlUyeCk7HOtj9vh61wDgxOq9R1iFPauifMAoNRO5SC5d2K5PrilvvQl/q0lsyIdPme/fEleB7KIJQ0soY/BFtgF+gEh6b9ELeM/D5gtekAthrLutnmLBJX6+FU1Srhlb3aXutrBzYHtd7QBULJgP8FvA7OKXegWtkcH304hxfPwZOgoczWXP2Rj2KR2V8FOn81HAYdYoA4ExSDOrFIK4uOfQisMDNhFOjwkLrFybXTSfgAfgnOVxmqy/H+stn+NHwVSsGMMQAsS9naBG/Hqp9xtvWwBgwKo/YaWKLdZCFIO1g9nAkcorTZVJgNJo2BEFLeJensq6BdbFmLUhzgmFX1Od5NtQON3B/mwVMwH+yRoeVmLL8GmqXrB7AJrAYXoRBkufbuwQr5LOh4A9TqqO0MhpCyf1vSfwKVcBm8tjNKzuSoz/F8t1rtedULLGHOAG5wIjisDIOMyZH34pSZbu+37Fv+rQBudBX43k3Ih8xup/FxMA3s2drEwc2jdgrpbBOhCtaBSeBcdAROwFnI6Ww+q1ZjHF/9JV64MafRUrB3ufkSsCpojHyUN4NgB+yD46mjwbAbMqZY3muOzCD3WJE6juQ4EAz4fhDS0Zz+7gCsg616lm8HX/ddBSehQc7m96rVVMdXnyD1wnLn5DoEnAkGQB+IqkNow9jjtsNysA1YEYz+KAt42Sjp6G5ghTOTde4MsLqNgZBtzjZhVp+CM3AazGgrWxTYn/G6WYrL8emLKOeNR2A62Pcsf7aCtuDcEFIOO2aEQfAWrAXbgDgz+Hm6tIPB6TpdozPFeHCW0dkTIPS6zVq5AufgXVgBBrKOj1WhHK+RNGA7MHseh7mgEcdCSJkxOldHXwYzZjMYAAvBTEqXdiiDZ8BBTUdbrR4E9+F+QtmKU9/VVv5dB8vgHYgy333E3bqCb4Y135VGjMrmQ7w2CMbBSLCUhpRl07IvJ8GW4FBUBcoB1WDU8dEaXZMVKqRcj31bh6+CQ2BpN9ttUUEVOoqzLd6SqrGdBwbDULCsDgKDInRJtQI4GBkEahjo9M7+EFDXObfOPQwH0tjJz5b4vKklHJ++uQG88TRYAUpgIJh5YqsohDWyjEYrKtUGmMGmw/eCbWclHAfLeIuoPqPany15ZqmDh9noe0avxK2OnNDp+Vmw31oBNI5rKIYgiJxte9FWOv2n8DPYCH4etyLbONfoI/2j9E/O2aA+x5uNs2AmDAejdjcYtUsgbmksB6pOqROXc5wGT8JscJOFLB3ugPYBVMJe0PgX4RronLg1lROKc4r+so2sSHGUY1bV5fg5fOMrMA8cznTIZfgU3IjT8WLYBl7gIMQt+2536A9DYDSUgMFYBi0tnXkM/MvijhSHOJ4ABzXtFLe0hTawNZqQA6En+NzBiuktq9d+D34FayBDZli6DIa+8HyKmga279bUCH6ogv3gxo12N+0DhkvQXGk4sdJYZZaDG18Po8C1DQYHww4QWmav+3I9VaCT94DBb6bZyzV8nOrCyXSs+9beVkGxAnvUh22gprSH33sATNAjcBuqpZPT5Ym+DN8Fy2xDdZ5fNMLsZRrD/vYJnAONUevC/Nxc2f8nwxiYCW7W6tA1deQQm9yblU7H7oMVoLO3g3uMU9rfPYgOt3y7x4ngPq2+2RKWtzNkgrwO78CtjE/T3mjHz/8OZu6dJqKjl8G3wRJtmwit8VzgO2B/beq6c31vUercXiO0DN4vwd+CwZVrTQ1534r0fdCntZQtcqwC7SGaDmt9oYE/tOX3jNCh8Adgz9kAGtC5wN4Yt/ZwQvvtQrDEPQPeIUwB19EYmdVmy1pYAlatS+CME0ImxsMwN3U0WTpCF7BSppdy3mqQ9GMfyKjs2RxvJFmmm9OrDBoXLpbkkhSW5m/AEdgFlsy9EIdcb801W950nBvXgM+BPbIUOkBNWcYNHOcUv+P+o954lNf29jil3cvACjIKymEwDATX2wnikIF6GDLabDbHu8nl8Bi4mDhkqXFTMhPOgA63KmwGDW1r8b24ssoNizKj7M8aezg4D9g/ldc+CF7bo49zL0CcMuO6g5VHG/SFkTAGXI+JEULaVF822PGV/PIT4IIiA/EyNvXmTGIQWEZXwVZYCfvgIlyB8xBHtlkJ3gNlNml8Da68FTsON/0hRrXhXFaaHqANR4CtxywfB34WStrM5NoAq6FRNjQ6/wXu5Bkz75/gm9AWilW2uwXwE3Dyz6cdb3C9H8NsyCpLUC5ZHnuB5eh3YBaUQnsIKTPdUnsNzFSrjxVhG2yEQpZZbftyUJsOZnrXFA9wDKlznNw2ZetcAs5Qp8BnKhmqy/HRL1sah6Xox3E0TIYJ4IxgSQspy/AJcBO+/jXshrPgey2pAVzc4bUcpkI0oPXndV8IWbHs27dAZy+H7XAUjsAx8C4kZ4lviOP5frW68cpNVcBj4ATqxkvB9/OhlVxkK9ib3egBcKMXIe4+zSlrybsBe7ZOLUuhLUbBWNDRlvhQcn/2bhPBPbv/StD5DrJWyQapsY5PP6kRbuY/AV8CK4Cb1zgdIaRsAwfBjX8Ee0DnXwZ7qtFuX22OtI+OdCLvDDrczJ4Cj4FB755DyT24H8v1DbgAq2E5OLjthBZXO1bwCLwMLiifw4zX+hQ+hD8G1xKXPNfvwttgpuV7X+u45iugbWObr5qb8aylWmaGWe4wYwsYAmZHGcyFnhBS9juzwyHHjD8IO2AlLIKGSHtYzqfBZKgAZxozPsr6B3gdUqc5+XuwGZxlDDb3Y2C7P6tAsxWn49MXY2kcCr1hEIwDDWl7GA6hZdm371XBdnAW2AveHWjcSG144Zpcm+syUEvANXu0bYWWvXof6Gzx9TE4Dg3u2/xugxXS8emLMAgmgUdvEYeBdwkOjBJSDkVbQMdvAiuBdwRmd3Sn4oOVctD5Vq+Qsld7V3ISdLCZ7ZrWwn4Irnw6Pn0zX+GN2TABDAYrhLQDszCkzPgVEDm9S8iLcW4Dz8y1VF8BB1Gd/DEsBT/Lq1rS8TrX69szzfjfh2dgIuj8kLrDycXr58MG9mkD7SN4B86DU7pruA15Vz42Xd+mXIOONvt6pbDczoDHUz+HLr1cJlY5gJ2Bd2ElWL51tjioXQed3mKqy/Ea2wHHDBTvV81Sp2b7kQOI3II45XUdCJ0BnAUcvErAhyTOCIUqM9ch0jniQOq4MXW0p8ct7TQATJLx0AeU73vd5XAIsqouxzuFPwlPgdlnSdbxR2Ar6HwnUDfpkGI0S9zyoYkPSqaBraAT9ATfl5aSAW9WOy+YxQ6LZrc2OQhHIW7ZEr3L0Mkm5WioABNiCERyfvhv+CUYiBnK5njfs/S+DN+C/lCXVvGh950eN4DBcQUcWOKuBpzy7kZncVwAc8CSaZR3BIMzlLyOJdpn4MrjalgCZpe3iXFLP3QAq63X18FRC3yY120hl47zwX/AX8FN8Pt1yos8C8vgNviFurjK55Z/DWHU/yPMBx0RQjq3a4rBHP8EfgiHoK51NvczbWE2vwZWwX5gBrqWUAFXxrlfBPdnVf0UrKomVn2+8XMfXM0DE6OWzO50uYmXwAuOSP+wjp81rBcz0sQSeALMBquBpc8FxynX6jzQBSz/Y2AOWPZGgU5pjgzmg2Dv/hBscZZ1jf8ZxF3RTLrB8ATMBoOrF/QB25rVNJvPeDurrEL/Bv8K3kVUywulyxN7wcZmrN8zsuw9YhCcAYPnUdgPGvEAmDnXoLlyM8dSeC4d5Gb7QynYA0eC6xkADZHnc517oSr12qPn1eFxqz0ndI1lUJp6PZFjOTQ3cPWhvsxQNsff4bcsKTczfrtxbxidRqnoeM+5DzbBErAC2CJEY8chHbO8xomm8Xo6lMKw1FFDWKKtFuoS+D0z2Qq1K4Xr3AL29bj0RU5kclilekAvMCBnwHgwAMzuuGRiWJn0ab0yGJ6GleAXQrGHc78FfwRGpuXa6M/oR7wXh3T0N2AhmM0Gohgo3wefJLaDuKWztemD0B0GwrfgR6ANQtnX81bCI5BhUxeVTW158wfwArjgELKiiBkVZepaXi+GnRC3rEAGlhgE0d5v8drMENdii4pTXmsSzIcpMAF8NO06tLOE0HFO+p/wXXCPtRRtvtabqR9mczRDzAQHjpCK5oEzXOQsOA+sA/uqA9UFKCZ1YrHlMAbmwghw+LS0m/UGYUjt5uTex78NtqsM1eV4I7IC5sBIKIPh0A9ClEROW62rvNoBB2AfuBE5DKfgcygkWUqdZUyQoTUYwmsz3EAIKSvmMdA+Jo0VcxloQ5MqQ3U5PvplS5WDyCyYCkaxA4gDipu1FTTkPPxak+VmPobNYDC4QauDg+EVaAk5k2gX0Q4mhwPaNNDhIZPD/n0NPgHtsBc2gNmtna5C7Mmhk3X+X4KRZf+4DF4s5KBS89y/5lp/CKNA+XTLXhkyAD2317ASqunw57AINHLN9YV4bebqbAPdWWQPvA625EbPYU0xlGXNaO4Kvu4PRvpceAHyIUubE7nGsPRr/MVgRbgIIeRezeavwQIw2O4Hy7jZ3wZCyUDS6e/DclgHVj6T7hKYdL5usJri+PSTawCD4CEYDuPAiuDr0RBSZprRfxKOQhWYCQ6EGsdSeAOaoqjFVfBl9+NeRkAZGOwGQhz24zQZihxtRd0Bu1LHYxzdq4HfrAAPsXD722BwqNFQQ0FD9QMn25Cy5XgHcBBWgFkhJ8A+aJDkkhlryRwEA0EHu5eJqWNfjmZ2SLn24+DdjIEcOf4Qr3V6bArh+JqL8371UdCAU8Hs6QYdwSphVoVUZLzdXGQhGBiWRjNGI5u13cE1uZ5e4HongGs1CELK8mzm2rZkHyyHStDpV6FVyMz/NvwXWIYtaflkPdd7HeaCMsN/C34IBkc+1+K1dPYH8BKUQ94UOuPTN2KGm1ka3NlgJsyDUWAfbQchZcY7FZv1YnnvBFYm1yQhdYOTb4ONsAI2gw+sXNNnYCsyIIIr345P31Af3rAN2D97w2SYAcPBdtAadJxNOF/obIc0hzP79WGw6t2GvKulHV9zw235YSqMhZFgWygBh0OHwkJaK8vJKTP2PByCI2BW7wCd7wOWm9DiKlRj2hKsAI/BAvBWyonakmwQGCSFIh1tCbdU2z50uvNCJSyFKmg1Qxp7yavsw3Pgr0HjauxCwtvFN+E5MDALXoWa8emGM8OjW8AevB4AzgKT4CnIp+zJ12AJrAN7dxWY8XIRrAAFrWJxfLoRbQNdYTCUw+TU0fvuMggh+/V+WAMOaVXgkOaAdg6KSsXq+HQjV/BGCTgYWgUcCHtAdzBAmiJbig95ToMT+FZYBd6O+XNRq7U4vqYTnAeeB4NhGpRCe/C5gZ/dB9n0OW9api+D99Pedq0HM3wxGAAtcuvFdRM10gIGtgHwBlSCD0pyDYV+Zt9+FWwdoR/mcImWU2vM+HRrOhT6TMBst/xPAZ/F2wJ09nnYDpZye7Xl/Qz4WavN8HvB8fivWpZ5//LmEGhGO33rYJ+uWdot94kSCyQWSCyQWCCxQGKBxAKJBRILJBZILJBYILFAoVrg/wF1l6UeOeXf8gAAAABJRU5ErkJggg==;" vertex="1" parent="1">
          <mxGeometry x="-230" y="639.75" width="76.5" height="76.5" as="geometry" />
        </mxCell>
        <mxCell id="zQXd-Jtvyqu_DLBY98N6-10" value="PolySC-Demo" style="text;whiteSpace=wrap;fontSize=25;fontStyle=1" vertex="1" parent="1">
          <mxGeometry x="-260" y="716.25" width="300" height="40" as="geometry" />
        </mxCell>
        <mxCell id="zQXd-Jtvyqu_DLBY98N6-11" value="" style="shape=image;verticalLabelPosition=bottom;labelBackgroundColor=#5CFFFA;verticalAlign=top;aspect=fixed;imageAspect=0;image=data:image/png,iVBORw0KGgoAAAANSUhEUgAAAMgAAADICAYAAACtWK6eAAAAAXNSR0IArs4c6QAAFSJJREFUeF7tnVuIXtUVx9f5khljaqI2Ru3YaLRqUUFFEihWMENBTSlVUJA+FPHFEmVGBaFvmvhW8CEZiemb2DwUqX0QWrSCzASqSBWbCApeMMFoGhNjzGVymcTvlDXjnjnz5Zy9195nr3OZ738gzEy+ffblv9dvr7X2uXwJ4YACUKBQgQTa1K/AE09sW2d60e1213U6nQn+e/PmDdM/cdSnAACpQXsG4vvv02e46SShWTjyupKmNJEk6Q6GBsBUP1kApELNDRguKOxdSjeNjT22scJu93VTAKSC6Y8DRraj6SZ4lAomjj18Nc30byujo1s3EiXT4VT8A94kvqbzawQgigrrwmE6DkgUpxAeREvcauAAJFrzZ+qFB1FQ2BeOq68emu3F6tVDtGfPPtq9e59nz+BJPAUTFQcgIpnkhXzgYDDWrVtLWUCyLTEke/Z8RePj74k60Okkw9gKFkklLgRAxFLJCo6OvpC6Sg4Pr6Hh4bWuYvM+Hx9/1wkKXzN5/vlHh70qRmGrAgAkooFIvEcIHKaLEkiIEGpFnFIk6THFdHmPMnD4QDI29igWvkgTCyEjCenyHjHgkEKCXCTSpOJCYTwhXYA8++yGeI0R0Ysvvlq404VcJJ7U8CCRtLSFVzG9h+ku73AxJEUHwqw4EwtAIuhYtfcwXX766W2FvUeYFWFiEWLFEdEGiIb3ML22hVnYzYozt/AgEXSsCxD7ti+2eyNMLbZ5Y4g4MvLCeNEzHpoexJaHIFGPMbO43T2KijZAHn743sJbSco2DkDKKug+HyGWWyNniboAQYjlnJrSBQBIaQmJkINEELGhVQCQCBNjA4Tv1OUwS+PALpaGqvPrBCARNOZnzrvddLyoKq08BNdBIkyeowoAEknjqq+ku+7sxZX0OBMLQOLoSLZEnZuI7UVs3gMXCSNNKq6kxxPSFWbFzEXsuQePCRcJY80sPEgsJYmcXiTGRUNXaAU4Ik4oPEhcMV1ehFsrA4nbc8B7xJ1RXEmPrafTi5gGfUBx3do+NwiEVrEnFCFWbEUFoVa2SQZl9eor5t2OYl75MzHx7nRR6SuAsHMVfzIBSHxNSRJqxW4Wz3/EVnSmPgCio2vFkCC0UppGAKIlLNdbhSeB59CcQXgQXXV/qN11ETGkE3jeI0Q1/3MQYvlrFnSG67l1aaUMxqJFySa8YlSqWLlyAKScft5nMyhpmtzp+y1T5qvY8O1S3pKXOgGAlJKv3MlzsKS3EiUX5dXW6dCTRMlOeIxyWoeeDUBClYt4ni1HQRIeUeiAqgBIgGixTwEgsRWNVx8AiadlcE0AJFg69RMBiLrE7gYAiFujukoAkLqUz7QLQBowCQVdACANmBsA0oBJACDNnQQA0ty5gQdpwNwAkAZMAjxIcycBgDR3buBBGjA3AKQBk7AQPAjfPm7G0e12Z39vrrzSniUPEdHqgtIvEaV7pDU1tVyn05ngvrXtlplGe5CZ5ym665Kkc2eapgsIiKaacZX9SjcxNE0HpnGAMBRpSs/wVAGKKg22zrbSTdx6E+9UbgwgBgxAUaeh1t1280BpBCCPP75tHGDUbZxNar85z9jXCkisp+yaNLXoS0wF6gelNkAAR0xDWsh11QtJLYCEhlTXXjs0awnXXXfFQraKBTe2Tz/9ij77bF/QuJIkmUgSquU5/EoBCUnEDRTr16+lLCBBSuOkRijw+uvvURgw1XuTSgGxfclM78wxDICiEfas2gmG5bXXZl6xKjmqfgS5MkCkYRXAkJjJwivjA0qVkFQCiDQhZ49xzz1rFt7sY0QiBaSQcE6yZcuGYVGlJQupAyKFY2TkXuQYJSez7acfO3aSPv54L73xxvv09deHHcOpJh9RBUQCB4dUDAcOKMAKfPzxl3Ts2An64IPdtGvX57VDUisgWnCcPn1mVlj+/dSpKVhfwxRYsmTwnB6dd94AHTp0lPbtOzT9mcSTaH8nihogEu8RM6xiEI4cmZwWNgtIw+wC3XEocPjwMZqaOjtbyg2JbqilCMgLqU2LWAn50aMnZsGA9bVfgcnJU3T8+MnZgXAuwpDYDs1dLRVAXN4jBhwAo/0w5I2gFxAu44JEc1dLCRC799iyZUPw7JpQCmFUsISNPpHDKw6zeg9XqKWVi0QHxPWtSmW8B7xGo207SueKAHF5Ea0wKzogrvAq1HsAjij214pKiq6B2LyIVpilAEhxeBXqPQ4c+A47U60w7TidLALE5UU0wqxKAQnZ1oXniGN0barFdhV9+/Y3C4eiEWZFBSR2eBUbjr17D5L5Z1Tmv7PHqlUrp//M/jS/t8nIJH3lsb/99kezRXu16NWB/7799hslVZcqYwOk6jCrMkB8w6tYcBgjyJt8n1k0hlGFgfj0y6es0YChKKMHLxj8T0sLGyC2MEsjD4kKiO2Wdl9AykwgGw0bQXZ19DEkV1k2DC3jcLUd8nmsRSKvbY2Foy8B8ck/yngPNoaXX94RYkfe5zQdFE0wesWKqYXrTl5bHhI7UY/qQWxPDEoBCYWjSmPozVnYOJqWp2h6UNtKEgOUvgREev0jBJC6jCFrKDEMw9uFFZzAHrRsiFqmL7xYPPjgncFVuACxJeqxd7Iq8yASQPj2Eb7m4XM0AQ7T37ohqTK8lMwRQxLiWQFIgbq+3iNkpVxy+UpafsvcViX/nT1O7Z/Z9j29/yCd/vogmb8lBmG2QetI4EMXCokerAUfR3bNbQlr6gFACtT1CQt84DBG0AuDdJKP7PzIyzjKhhjSfplyvnCU0YMXDAbGBxZfTwJASgIiNYgyhpDXRR9Qqgq3fMKqOvXwgQSA5FifNLySwnHhLTfShbfqXPWVglIFJBJPGhuM7PRJtfDxqgAkEJAmwGG6LjUMn5VTI7RiOC69O3xHSdqnA//a4czXpJAAkBzVJXfsPvfcK9b50lwpQ0MuqVFIDdEn79D0oqF6SLwqAAkAROI9eKWUJuKdwYHpXpif2S51p84Q/5McnLTy6mk7NLyIa7HwgcOmBY/LRw+JZ33qqQesegGQHHlcO1hlDYKNYObfYC4URTN29vjMm1LOHj9ROKkxjEICo9R7SMIq1mLxBT+KrgX30RVuubwIAPEExOU9bKtliCHYYCkCxQWJyyh8AHEtFlc+lL9CV6UFj+WLl+zhsM2rAhBPQGwGYYNj8McXea2QUiNlr5IHimvldIUWkvZDF4vFFyyd9hixjyItXKGnLTcDIB6AhBgEr5QMh+aRZxguo4iRi9gWi7zQKqbXKNKTcxTWozdvC10wAIgHILZ9/jzvkV0pz+sQne7KMBlIiM5YX3WXX8/Ut9/NMwybUZTd0XJdFOzVQ8trSEPQ0AUDgHgA4hNe9RrE8kVEty3j71t3Q/LRCaKDso2rcyrLQuIyijJhls2b9nqPquEwovR61pAFA4AIAXGFV9lkNM8gDCBuPIg+nAwHhOvPQmJLUMuEWdLFIk+Lq5YQnRUsFDyWQ2eITgk9b562WUhsC0aRRwUgEQDJhhNFq2WVgHD8zZC4tjlDwyxXeGUWi6L862dLiFYtkSwVRDu+IxKyVFihWTBcHjVvwQAgQkAkK6YtIa8SEB6SgSRk1XSZrhSQogulVQMiXTAAyA8z73pgKu9CoQ0Qs2LarpxXDYgJtU58sa/w6nqoB7GFm8ab2vKOqgHJLhi2PCTv+hA8SAQPwoC4EtE6ADErpy0PCUnUJYDYFos6ADELxuH/7Cp8fgSABHoQW0hhdmxc913VAQgPl5PUz7f+pTBq0gBkxR1rrBcC6wKEF4yjH33q5VHhQQQexAXI0P3rnVeG6wKEh8cepOhx3ZCdLNv1oMt/8ytaftP11jSmLkC4U0c//IT2/yP/laF5IScAKQnI+UOX0hUP/tZ5G0mdgOzd/nc6ue9ArtHGBuQn991Ny35+TWMBmfz8C/rqb//M7R8AUQixGJBVv7/ftfFDdQLyyZ+2RQ2xbB7kp7+7l5ZeOdRYQL7Z8Q59+85/c/uHHCQQED7Ntot1/R/d31J1yQDRRYudHE0X4FtS9p6WlZWUig2ILUlf8cs1tOKOtY0F5NC/36VDb70HQGxvVoy9zSsBRGLIGmV4m/fLv74a1YMAkDk5+/LFcb7XQSRhhYbx85v2XFeZbStm6HUQ26YFh1esh+24cLH8xs3v07AbN4va58WCF428AyFWiRCrbNxdFpCVg0SdTCWdhOjAFBEbkO3wDSkk/XRdSW+yR7WFm7iSrgSIZNWUGJ6tzIoBomWL5pfgPMUFiM0gyjxZaMvJND3qomT+QmEU4Zsfy3hTrifvmhC2eXOsMi/Ecq2amkbBXQwBRCP/MHLZPKr2gsF3A2df5MzPznwl2NQI8aYARAgIF7MZhWT3powXCQFEI/8wY6hzwbjyPCIOMc3Bu37/m3KrG+JNAUgkQLgaTS9y6SDR0mwSQjNbwUUhlst7lAmvjGS2MEvTi4QAYlssisIr/n8A4gGIa9XUNIq89ZFX0W5B4O0yiJAr6L19cL1qVGvBCAEkxHsAkAKvbHsvVl1G4Q4g5kq44IjhPbi1uhaMlQPzPedi3tGzPKJcRg94EA8PUqdRSAFxhVa2cELaRraca8HQzs1cfS4DBzxIgAdxJev8edWhVnYYtgthXC6W95Am61yuLkhccHDfXKFm4z3IyMjWBxYt6nzjWil6P+920/Gic0JuNcnW5Qot6jIKFxyxvYfRxOVF6tBD4kkli0U5QOhJomSnj+1u3rxhoqh87ncUjoxs/UOSJH/2acRVtiwgXL/rLSdVehI2hm/ferfwFgqjh8QgXNrlfS5ZMKqEROI5pItFGUB8tUxTmnj++UeHFwQgklDLDFRrN4frl6yUGqFV7yQ2BRIpHNLFAoDk4Op6u3v2FEl4obF6Sr0Gtx16U6LvCijxqqbO2HmJjx5SOLivAKQkINKVM6ZhSFdJ02bIc+e+cJjyvpBMLx6O50dsffEBI8STApCSgEjzkd5meAWVGoe5PVuSZ/S249qlCQXBdp4PJNmFw0cP1sKEmNIx+HgOUycAiQAIV+HrSXqbNY+pnr9qiE7unXteoejZBZdRcFjFBsE/6zhCIMn2k/VgLfiIoUcIHK0IsUZHtz5DlNwTMMm/KDonxi5WUd3SnCRgPOJTqso5XB0qC4mrfunnoXBEAGRnmtLMO2AFR5KkO8bGHttYVDR3m1dQb26R2I/c+vSjTsMoYww+Y5SWLetZpe3klYvhRcuEWJ1OMmy7ruE7tgUDCA+cIcn+9BXDt3wMY/Bt06d81YtGrIUCgOTMss82r8tItA2j6WD06qOtRywwTL8BiDIgpvrYHqVtYOSBwgtRjMXIbERobEoAkIoAyTYTAoumEbi8oPbnrIcvLGaB4L5p7tQBkBoAyTM4s5Kan2bSNSdf2/BD6y/SQhuGvP4CkIYAEmpMOE9XAQACQHQtrOW1AxAA0nIT1u0+AAEguhbW8toBCABpuQnrdh+AABBdC2t57QAEgLTchHW7D0AAiK6Ftbx2AAJAWm7Cut0HIABE18JaXjsAASAtN2Hd7gMQAKJrYS2vHYAAkJabsG73AQgA0bWwltcOQABIy01Yt/sABIDoWljLawcgAKTlJqzbfQACQHQtrOW1AxAA0nIT1u0+AAEguhbW8toBCABpuQnrdh+AABBdC2t57QAEgLTchHW7D0AAiK6Ftbx2ANIyQMxbGfPsjl+9WfbQrF+z7rLjLjofgLQMkOeee6XQFmJ81Zrt+03KfluVdt81IAEgAGSeAgBkvkEAEAACQCyuB4AAEAACQOYroPkdhRpxcLZO7TgeIdac2lNTZ+nw4WPWKX3jjfcLv0sdX8GmTUNO/QCkOtEBSIHWMb71SGsaAYiWsufWOzl5io4fPwkP0qsAADmYaxT9ts0LQOBBzlEAOcicJAAEgACQEjtYfCqS9OpCXlFLyEFEMpUuJPEeAKS0zPErACDxNc2rEYBYdEaSjiTddQXdmA9CrGoWLHEr8CBiqYILSr0HQqxgifVOBCB62pqapd4DgOjPhXcLAMRbMq8TfLwHV7x9+5uF9bf2VpORkXvp2muHCgeGHKR/cxAf7+ECZGzs0cSLTkfhqJU9/vi28TRN1+W1CUCKZ6KfLxT6eg8AEhP/SHUhxIokZE81IXCwt+FdrKKjtR6Ewyv2IkVHk0MsXuGLDr5XquzBz40XjZ+feV+1amVwE9p9D+1YCBzc1gcf7KZduz7PbTZJkoktWzYMh/Yp77yoIdYTT2xb1+2m43kNtRmQmIKjLqJQOFyAEKWbxsYe2xhT48oA4U7b8pAme5CYgvd7XWXgcOUfjQeEB2BL1B955Nd0001X5doIAFn46JSFwxZesXqx8w+uM6oHcQHCsTRDsnz50nOsAYAsXED4KcHJyZPEP8scdkDih1cqgNjyEG6Qk87169eeA8mBA9/R6dNnyuiHcxuoQFmvYYbk8h4a4ZUKIC4vwp+Pjt5HZ86cpaGhFbOgHD16go4cmWzgFKNLIQrEAkMKiEZ4pQbI6OjWjUTJM0XCrllzPd1ww6rpjy+44Hy65JLltGzZUmIvgqO9CsQKpXoVqMt7qAEi8SJ33XUbXXbZxbNaDA4unv59cHBg9v8GBmb+D0czFeAogI+pqTOl84uiEbouDPJ5Wt5DFRBXLsKN90LSTDNAr+pUwPbsx0y/dJJzM+bou1hZMW1bvlyOPQhDggMK5CngDq10vYeqB+HKJV4EkACOUDi0vYc6INyAK2E34iDcAihGAXdYpR9aVRJimUZcoZYpd8st19DNN18NS+lTBSQJ+fSqrnBTYpHkqjmITz6SheSyyy6at8PVp/bSN8NmMHbt2l34QupeITR3rXrbqgwQST6S7Ry8SX/wIUnEs0rEfqTWpXJlgEiT9t4OcxJ/+eUXE7yKayrb8bl5vNbHY5iRVQ1HJUl63rRJc5K8cw0w7TAH9JIV2L//8KwQvs+fm5wjSWjT5s0bJqpWtFIPkh2cdHerakHQXrMUqDIhzxt5bYBwZwBJs4yxeb3RvUouGW+tgJgOAhTJVPVPGfYadYVUte1iSaYXoEhUWrhlmgSGUbkRHuTc3GQ6NSu8XX7hmkh/jqyJYDQWkKyJzFw76a4DLAsLHAZiZneqnp0pHzUb50FsnWdg+PMZaGaOJOmUfzGVj2Io66VAmnZ3dDqd2e3ZOrZqvTrcU7hVgJQZKM6FAiEKAJAQ1XBO3ygAQPpmqjHQEAUASIhqOKdvFPg/NL841++ytNcAAAAASUVORK5CYII=;" vertex="1" parent="1">
          <mxGeometry x="-55.25" y="765" width="106" height="106" as="geometry" />
        </mxCell>
        <mxCell id="zQXd-Jtvyqu_DLBY98N6-12" style="edgeStyle=orthogonalEdgeStyle;rounded=1;orthogonalLoop=1;jettySize=auto;html=1;shadow=1;sketch=1;curveFitting=1;jiggle=2;" edge="1" parent="1">
          <mxGeometry relative="1" as="geometry">
            <mxPoint x="-18" y="674.1899999999999" as="targetPoint" />
            <mxPoint x="-130" y="673.92" as="sourcePoint" />
          </mxGeometry>
        </mxCell>
        <mxCell id="zQXd-Jtvyqu_DLBY98N6-14" value="&lt;p style=&quot;line-height: 200%; margin-top: 0pt; margin-bottom: 0pt; margin-right: 0in; text-indent: 0in; text-align: left; unicode-bidi: embed; word-break: normal; font-size: 25px;&quot;&gt;&lt;span style=&quot;font-family: &amp;quot;Helvetica Neue&amp;quot;; font-variant: normal; color: black; letter-spacing: 0pt; font-weight: bold; vertical-align: baseline; font-size: 25px;&quot;&gt;&lt;font style=&quot;font-size: 25px;&quot;&gt;SFT&lt;/font&gt;&lt;/span&gt;&lt;/p&gt;" style="text;whiteSpace=wrap;html=1;fontSize=25;" vertex="1" parent="1">
          <mxGeometry x="20" y="637" width="70" height="40" as="geometry" />
        </mxCell>
        <mxCell id="zQXd-Jtvyqu_DLBY98N6-15" value="&lt;p style=&quot;line-height: 200%; margin-top: 0pt; margin-bottom: 0pt; margin-right: 0in; text-indent: 0in; text-align: left; unicode-bidi: embed; word-break: normal; font-size: 25px;&quot;&gt;&lt;span style=&quot;font-family: &amp;quot;Helvetica Neue&amp;quot;; font-variant: normal; color: black; letter-spacing: 0pt; font-weight: bold; vertical-align: baseline; font-size: 25px;&quot;&gt;&lt;font style=&quot;font-size: 25px;&quot;&gt;SFT LLM&lt;/font&gt;&lt;/span&gt;&lt;/p&gt;" style="text;whiteSpace=wrap;html=1;fontSize=25;" vertex="1" parent="1">
          <mxGeometry x="-57.5" y="883" width="158" height="40" as="geometry" />
        </mxCell>
        <mxCell id="zQXd-Jtvyqu_DLBY98N6-17" value="PolySC-Query" style="text;whiteSpace=wrap;fontSize=25;fontFamily=Helvetica;fontStyle=1" vertex="1" parent="1">
          <mxGeometry x="163.56999999999994" y="713" width="300" height="30" as="geometry" />
        </mxCell>
        <mxCell id="zQXd-Jtvyqu_DLBY98N6-65" style="edgeStyle=orthogonalEdgeStyle;rounded=1;orthogonalLoop=1;jettySize=auto;html=1;sketch=1;curveFitting=1;jiggle=2;shadow=1;" edge="1" parent="1">
          <mxGeometry relative="1" as="geometry">
            <mxPoint x="932.33" y="559.1600000000001" as="targetPoint" />
            <mxPoint x="812.33" y="559.1600000000001" as="sourcePoint" />
          </mxGeometry>
        </mxCell>
        <mxCell id="zQXd-Jtvyqu_DLBY98N6-66" value="" style="rounded=1;whiteSpace=wrap;html=1;strokeWidth=2;fillWeight=4;hachureGap=8;hachureAngle=45;sketch=1;arcSize=10;" vertex="1" parent="1">
          <mxGeometry x="726.5699999999999" y="466" width="70" height="190" as="geometry" />
        </mxCell>
        <mxCell id="zQXd-Jtvyqu_DLBY98N6-67" value="" style="rounded=1;whiteSpace=wrap;html=1;strokeWidth=2;fillWeight=4;hachureGap=8;hachureAngle=45;sketch=1;arcSize=10;" vertex="1" parent="1">
          <mxGeometry x="452" y="462" width="80" height="200" as="geometry" />
        </mxCell>
        <mxCell id="zQXd-Jtvyqu_DLBY98N6-68" value="" style="rounded=1;whiteSpace=wrap;html=1;strokeWidth=2;fillWeight=4;hachureGap=8;hachureAngle=45;sketch=1;" vertex="1" parent="1">
          <mxGeometry x="454.56999999999994" y="723" width="325" height="150" as="geometry" />
        </mxCell>
        <mxCell id="zQXd-Jtvyqu_DLBY98N6-69" value="" style="shape=table;startSize=0;container=1;collapsible=0;childLayout=tableLayout;swimlaneFillColor=none;rounded=0;sketch=1;curveFitting=1;jiggle=2;shadow=1;" vertex="1" parent="1">
          <mxGeometry x="834.5699999999999" y="698" width="165" height="190" as="geometry" />
        </mxCell>
        <mxCell id="zQXd-Jtvyqu_DLBY98N6-70" value="" style="shape=tableRow;horizontal=0;startSize=0;swimlaneHead=0;swimlaneBody=0;strokeColor=inherit;top=0;left=0;bottom=0;right=0;collapsible=0;dropTarget=0;fillColor=none;points=[[0,0.5],[1,0.5]];portConstraint=eastwest;" vertex="1" parent="zQXd-Jtvyqu_DLBY98N6-69">
          <mxGeometry width="165" height="48" as="geometry" />
        </mxCell>
        <mxCell id="zQXd-Jtvyqu_DLBY98N6-71" value="" style="shape=partialRectangle;html=1;whiteSpace=wrap;connectable=0;strokeColor=inherit;overflow=hidden;fillColor=none;top=0;left=0;bottom=0;right=0;pointerEvents=1;" vertex="1" parent="zQXd-Jtvyqu_DLBY98N6-70">
          <mxGeometry width="75" height="48" as="geometry">
            <mxRectangle width="75" height="48" as="alternateBounds" />
          </mxGeometry>
        </mxCell>
        <mxCell id="zQXd-Jtvyqu_DLBY98N6-72" value="" style="shape=partialRectangle;html=1;whiteSpace=wrap;connectable=0;strokeColor=inherit;overflow=hidden;fillColor=none;top=0;left=0;bottom=0;right=0;pointerEvents=1;" vertex="1" parent="zQXd-Jtvyqu_DLBY98N6-70">
          <mxGeometry x="75" width="90" height="48" as="geometry">
            <mxRectangle width="90" height="48" as="alternateBounds" />
          </mxGeometry>
        </mxCell>
        <mxCell id="zQXd-Jtvyqu_DLBY98N6-73" value="" style="shape=tableRow;horizontal=0;startSize=0;swimlaneHead=0;swimlaneBody=0;strokeColor=inherit;top=0;left=0;bottom=0;right=0;collapsible=0;dropTarget=0;fillColor=none;points=[[0,0.5],[1,0.5]];portConstraint=eastwest;" vertex="1" parent="zQXd-Jtvyqu_DLBY98N6-69">
          <mxGeometry y="48" width="165" height="47" as="geometry" />
        </mxCell>
        <mxCell id="zQXd-Jtvyqu_DLBY98N6-74" value="" style="shape=partialRectangle;html=1;whiteSpace=wrap;connectable=0;strokeColor=inherit;overflow=hidden;fillColor=none;top=0;left=0;bottom=0;right=0;pointerEvents=1;" vertex="1" parent="zQXd-Jtvyqu_DLBY98N6-73">
          <mxGeometry width="75" height="47" as="geometry">
            <mxRectangle width="75" height="47" as="alternateBounds" />
          </mxGeometry>
        </mxCell>
        <mxCell id="zQXd-Jtvyqu_DLBY98N6-75" value="" style="shape=partialRectangle;html=1;whiteSpace=wrap;connectable=0;strokeColor=inherit;overflow=hidden;fillColor=none;top=0;left=0;bottom=0;right=0;pointerEvents=1;shadow=0;" vertex="1" parent="zQXd-Jtvyqu_DLBY98N6-73">
          <mxGeometry x="75" width="90" height="47" as="geometry">
            <mxRectangle width="90" height="47" as="alternateBounds" />
          </mxGeometry>
        </mxCell>
        <mxCell id="zQXd-Jtvyqu_DLBY98N6-76" value="" style="shape=tableRow;horizontal=0;startSize=0;swimlaneHead=0;swimlaneBody=0;strokeColor=inherit;top=0;left=0;bottom=0;right=0;collapsible=0;dropTarget=0;fillColor=none;points=[[0,0.5],[1,0.5]];portConstraint=eastwest;" vertex="1" parent="zQXd-Jtvyqu_DLBY98N6-69">
          <mxGeometry y="95" width="165" height="48" as="geometry" />
        </mxCell>
        <mxCell id="zQXd-Jtvyqu_DLBY98N6-77" value="" style="shape=partialRectangle;html=1;whiteSpace=wrap;connectable=0;strokeColor=inherit;overflow=hidden;fillColor=none;top=0;left=0;bottom=0;right=0;pointerEvents=1;" vertex="1" parent="zQXd-Jtvyqu_DLBY98N6-76">
          <mxGeometry width="75" height="48" as="geometry">
            <mxRectangle width="75" height="48" as="alternateBounds" />
          </mxGeometry>
        </mxCell>
        <mxCell id="zQXd-Jtvyqu_DLBY98N6-78" value="" style="shape=partialRectangle;html=1;whiteSpace=wrap;connectable=0;strokeColor=inherit;overflow=hidden;fillColor=none;top=0;left=0;bottom=0;right=0;pointerEvents=1;" vertex="1" parent="zQXd-Jtvyqu_DLBY98N6-76">
          <mxGeometry x="75" width="90" height="48" as="geometry">
            <mxRectangle width="90" height="48" as="alternateBounds" />
          </mxGeometry>
        </mxCell>
        <mxCell id="zQXd-Jtvyqu_DLBY98N6-79" value="" style="shape=tableRow;horizontal=0;startSize=0;swimlaneHead=0;swimlaneBody=0;strokeColor=inherit;top=0;left=0;bottom=0;right=0;collapsible=0;dropTarget=0;fillColor=none;points=[[0,0.5],[1,0.5]];portConstraint=eastwest;" vertex="1" parent="zQXd-Jtvyqu_DLBY98N6-69">
          <mxGeometry y="143" width="165" height="47" as="geometry" />
        </mxCell>
        <mxCell id="zQXd-Jtvyqu_DLBY98N6-80" value="" style="shape=partialRectangle;html=1;whiteSpace=wrap;connectable=0;strokeColor=inherit;overflow=hidden;fillColor=none;top=0;left=0;bottom=0;right=0;pointerEvents=1;" vertex="1" parent="zQXd-Jtvyqu_DLBY98N6-79">
          <mxGeometry width="75" height="47" as="geometry">
            <mxRectangle width="75" height="47" as="alternateBounds" />
          </mxGeometry>
        </mxCell>
        <mxCell id="zQXd-Jtvyqu_DLBY98N6-81" value="" style="shape=partialRectangle;html=1;whiteSpace=wrap;connectable=0;strokeColor=inherit;overflow=hidden;fillColor=none;top=0;left=0;bottom=0;right=0;pointerEvents=1;" vertex="1" parent="zQXd-Jtvyqu_DLBY98N6-79">
          <mxGeometry x="75" width="90" height="47" as="geometry">
            <mxRectangle width="90" height="47" as="alternateBounds" />
          </mxGeometry>
        </mxCell>
        <mxCell id="zQXd-Jtvyqu_DLBY98N6-82" style="edgeStyle=orthogonalEdgeStyle;rounded=0;orthogonalLoop=1;jettySize=auto;html=1;sketch=1;curveFitting=1;jiggle=2;shadow=1;" edge="1" parent="1">
          <mxGeometry relative="1" as="geometry">
            <mxPoint x="718.89" y="560.94" as="targetPoint" />
            <mxPoint x="688.89" y="560.44" as="sourcePoint" />
          </mxGeometry>
        </mxCell>
        <mxCell id="zQXd-Jtvyqu_DLBY98N6-83" value="" style="shape=image;verticalLabelPosition=bottom;labelBackgroundColor=default;verticalAlign=top;aspect=fixed;imageAspect=0;image=data:image/png,iVBORw0KGgoAAAANSUhEUgAAAMgAAADICAYAAACtWK6eAAAAAXNSR0IArs4c6QAAFSJJREFUeF7tnVuIXtUVx9f5khljaqI2Ru3YaLRqUUFFEihWMENBTSlVUJA+FPHFEmVGBaFvmvhW8CEZiemb2DwUqX0QWrSCzASqSBWbCApeMMFoGhNjzGVymcTvlDXjnjnz5Zy9195nr3OZ738gzEy+ffblv9dvr7X2uXwJ4YACUKBQgQTa1K/AE09sW2d60e1213U6nQn+e/PmDdM/cdSnAACpQXsG4vvv02e46SShWTjyupKmNJEk6Q6GBsBUP1kApELNDRguKOxdSjeNjT22scJu93VTAKSC6Y8DRraj6SZ4lAomjj18Nc30byujo1s3EiXT4VT8A94kvqbzawQgigrrwmE6DkgUpxAeREvcauAAJFrzZ+qFB1FQ2BeOq68emu3F6tVDtGfPPtq9e59nz+BJPAUTFQcgIpnkhXzgYDDWrVtLWUCyLTEke/Z8RePj74k60Okkw9gKFkklLgRAxFLJCo6OvpC6Sg4Pr6Hh4bWuYvM+Hx9/1wkKXzN5/vlHh70qRmGrAgAkooFIvEcIHKaLEkiIEGpFnFIk6THFdHmPMnD4QDI29igWvkgTCyEjCenyHjHgkEKCXCTSpOJCYTwhXYA8++yGeI0R0Ysvvlq404VcJJ7U8CCRtLSFVzG9h+ku73AxJEUHwqw4EwtAIuhYtfcwXX766W2FvUeYFWFiEWLFEdEGiIb3ML22hVnYzYozt/AgEXSsCxD7ti+2eyNMLbZ5Y4g4MvLCeNEzHpoexJaHIFGPMbO43T2KijZAHn743sJbSco2DkDKKug+HyGWWyNniboAQYjlnJrSBQBIaQmJkINEELGhVQCQCBNjA4Tv1OUwS+PALpaGqvPrBCARNOZnzrvddLyoKq08BNdBIkyeowoAEknjqq+ku+7sxZX0OBMLQOLoSLZEnZuI7UVs3gMXCSNNKq6kxxPSFWbFzEXsuQePCRcJY80sPEgsJYmcXiTGRUNXaAU4Ik4oPEhcMV1ehFsrA4nbc8B7xJ1RXEmPrafTi5gGfUBx3do+NwiEVrEnFCFWbEUFoVa2SQZl9eor5t2OYl75MzHx7nRR6SuAsHMVfzIBSHxNSRJqxW4Wz3/EVnSmPgCio2vFkCC0UppGAKIlLNdbhSeB59CcQXgQXXV/qN11ETGkE3jeI0Q1/3MQYvlrFnSG67l1aaUMxqJFySa8YlSqWLlyAKScft5nMyhpmtzp+y1T5qvY8O1S3pKXOgGAlJKv3MlzsKS3EiUX5dXW6dCTRMlOeIxyWoeeDUBClYt4ni1HQRIeUeiAqgBIgGixTwEgsRWNVx8AiadlcE0AJFg69RMBiLrE7gYAiFujukoAkLqUz7QLQBowCQVdACANmBsA0oBJACDNnQQA0ty5gQdpwNwAkAZMAjxIcycBgDR3buBBGjA3AKQBk7AQPAjfPm7G0e12Z39vrrzSniUPEdHqgtIvEaV7pDU1tVyn05ngvrXtlplGe5CZ5ym665Kkc2eapgsIiKaacZX9SjcxNE0HpnGAMBRpSs/wVAGKKg22zrbSTdx6E+9UbgwgBgxAUaeh1t1280BpBCCPP75tHGDUbZxNar85z9jXCkisp+yaNLXoS0wF6gelNkAAR0xDWsh11QtJLYCEhlTXXjs0awnXXXfFQraKBTe2Tz/9ij77bF/QuJIkmUgSquU5/EoBCUnEDRTr16+lLCBBSuOkRijw+uvvURgw1XuTSgGxfclM78wxDICiEfas2gmG5bXXZl6xKjmqfgS5MkCkYRXAkJjJwivjA0qVkFQCiDQhZ49xzz1rFt7sY0QiBaSQcE6yZcuGYVGlJQupAyKFY2TkXuQYJSez7acfO3aSPv54L73xxvv09deHHcOpJh9RBUQCB4dUDAcOKMAKfPzxl3Ts2An64IPdtGvX57VDUisgWnCcPn1mVlj+/dSpKVhfwxRYsmTwnB6dd94AHTp0lPbtOzT9mcSTaH8nihogEu8RM6xiEI4cmZwWNgtIw+wC3XEocPjwMZqaOjtbyg2JbqilCMgLqU2LWAn50aMnZsGA9bVfgcnJU3T8+MnZgXAuwpDYDs1dLRVAXN4jBhwAo/0w5I2gFxAu44JEc1dLCRC799iyZUPw7JpQCmFUsISNPpHDKw6zeg9XqKWVi0QHxPWtSmW8B7xGo207SueKAHF5Ea0wKzogrvAq1HsAjij214pKiq6B2LyIVpilAEhxeBXqPQ4c+A47U60w7TidLALE5UU0wqxKAQnZ1oXniGN0barFdhV9+/Y3C4eiEWZFBSR2eBUbjr17D5L5Z1Tmv7PHqlUrp//M/jS/t8nIJH3lsb/99kezRXu16NWB/7799hslVZcqYwOk6jCrMkB8w6tYcBgjyJt8n1k0hlGFgfj0y6es0YChKKMHLxj8T0sLGyC2MEsjD4kKiO2Wdl9AykwgGw0bQXZ19DEkV1k2DC3jcLUd8nmsRSKvbY2Foy8B8ck/yngPNoaXX94RYkfe5zQdFE0wesWKqYXrTl5bHhI7UY/qQWxPDEoBCYWjSmPozVnYOJqWp2h6UNtKEgOUvgREev0jBJC6jCFrKDEMw9uFFZzAHrRsiFqmL7xYPPjgncFVuACxJeqxd7Iq8yASQPj2Eb7m4XM0AQ7T37ohqTK8lMwRQxLiWQFIgbq+3iNkpVxy+UpafsvcViX/nT1O7Z/Z9j29/yCd/vogmb8lBmG2QetI4EMXCokerAUfR3bNbQlr6gFACtT1CQt84DBG0AuDdJKP7PzIyzjKhhjSfplyvnCU0YMXDAbGBxZfTwJASgIiNYgyhpDXRR9Qqgq3fMKqOvXwgQSA5FifNLySwnHhLTfShbfqXPWVglIFJBJPGhuM7PRJtfDxqgAkEJAmwGG6LjUMn5VTI7RiOC69O3xHSdqnA//a4czXpJAAkBzVJXfsPvfcK9b50lwpQ0MuqVFIDdEn79D0oqF6SLwqAAkAROI9eKWUJuKdwYHpXpif2S51p84Q/5McnLTy6mk7NLyIa7HwgcOmBY/LRw+JZ33qqQesegGQHHlcO1hlDYKNYObfYC4URTN29vjMm1LOHj9ROKkxjEICo9R7SMIq1mLxBT+KrgX30RVuubwIAPEExOU9bKtliCHYYCkCxQWJyyh8AHEtFlc+lL9CV6UFj+WLl+zhsM2rAhBPQGwGYYNj8McXea2QUiNlr5IHimvldIUWkvZDF4vFFyyd9hixjyItXKGnLTcDIB6AhBgEr5QMh+aRZxguo4iRi9gWi7zQKqbXKNKTcxTWozdvC10wAIgHILZ9/jzvkV0pz+sQne7KMBlIiM5YX3WXX8/Ut9/NMwybUZTd0XJdFOzVQ8trSEPQ0AUDgHgA4hNe9RrE8kVEty3j71t3Q/LRCaKDso2rcyrLQuIyijJhls2b9nqPquEwovR61pAFA4AIAXGFV9lkNM8gDCBuPIg+nAwHhOvPQmJLUMuEWdLFIk+Lq5YQnRUsFDyWQ2eITgk9b562WUhsC0aRRwUgEQDJhhNFq2WVgHD8zZC4tjlDwyxXeGUWi6L862dLiFYtkSwVRDu+IxKyVFihWTBcHjVvwQAgQkAkK6YtIa8SEB6SgSRk1XSZrhSQogulVQMiXTAAyA8z73pgKu9CoQ0Qs2LarpxXDYgJtU58sa/w6nqoB7GFm8ab2vKOqgHJLhi2PCTv+hA8SAQPwoC4EtE6ADErpy0PCUnUJYDYFos6ADELxuH/7Cp8fgSABHoQW0hhdmxc913VAQgPl5PUz7f+pTBq0gBkxR1rrBcC6wKEF4yjH33q5VHhQQQexAXI0P3rnVeG6wKEh8cepOhx3ZCdLNv1oMt/8ytaftP11jSmLkC4U0c//IT2/yP/laF5IScAKQnI+UOX0hUP/tZ5G0mdgOzd/nc6ue9ArtHGBuQn991Ny35+TWMBmfz8C/rqb//M7R8AUQixGJBVv7/ftfFDdQLyyZ+2RQ2xbB7kp7+7l5ZeOdRYQL7Z8Q59+85/c/uHHCQQED7Ntot1/R/d31J1yQDRRYudHE0X4FtS9p6WlZWUig2ILUlf8cs1tOKOtY0F5NC/36VDb70HQGxvVoy9zSsBRGLIGmV4m/fLv74a1YMAkDk5+/LFcb7XQSRhhYbx85v2XFeZbStm6HUQ26YFh1esh+24cLH8xs3v07AbN4va58WCF428AyFWiRCrbNxdFpCVg0SdTCWdhOjAFBEbkO3wDSkk/XRdSW+yR7WFm7iSrgSIZNWUGJ6tzIoBomWL5pfgPMUFiM0gyjxZaMvJND3qomT+QmEU4Zsfy3hTrifvmhC2eXOsMi/Ecq2amkbBXQwBRCP/MHLZPKr2gsF3A2df5MzPznwl2NQI8aYARAgIF7MZhWT3powXCQFEI/8wY6hzwbjyPCIOMc3Bu37/m3KrG+JNAUgkQLgaTS9y6SDR0mwSQjNbwUUhlst7lAmvjGS2MEvTi4QAYlssisIr/n8A4gGIa9XUNIq89ZFX0W5B4O0yiJAr6L19cL1qVGvBCAEkxHsAkAKvbHsvVl1G4Q4g5kq44IjhPbi1uhaMlQPzPedi3tGzPKJcRg94EA8PUqdRSAFxhVa2cELaRraca8HQzs1cfS4DBzxIgAdxJev8edWhVnYYtgthXC6W95Am61yuLkhccHDfXKFm4z3IyMjWBxYt6nzjWil6P+920/Gic0JuNcnW5Qot6jIKFxyxvYfRxOVF6tBD4kkli0U5QOhJomSnj+1u3rxhoqh87ncUjoxs/UOSJH/2acRVtiwgXL/rLSdVehI2hm/ferfwFgqjh8QgXNrlfS5ZMKqEROI5pItFGUB8tUxTmnj++UeHFwQgklDLDFRrN4frl6yUGqFV7yQ2BRIpHNLFAoDk4Op6u3v2FEl4obF6Sr0Gtx16U6LvCijxqqbO2HmJjx5SOLivAKQkINKVM6ZhSFdJ02bIc+e+cJjyvpBMLx6O50dsffEBI8STApCSgEjzkd5meAWVGoe5PVuSZ/S249qlCQXBdp4PJNmFw0cP1sKEmNIx+HgOUycAiQAIV+HrSXqbNY+pnr9qiE7unXteoejZBZdRcFjFBsE/6zhCIMn2k/VgLfiIoUcIHK0IsUZHtz5DlNwTMMm/KDonxi5WUd3SnCRgPOJTqso5XB0qC4mrfunnoXBEAGRnmtLMO2AFR5KkO8bGHttYVDR3m1dQb26R2I/c+vSjTsMoYww+Y5SWLetZpe3klYvhRcuEWJ1OMmy7ruE7tgUDCA+cIcn+9BXDt3wMY/Bt06d81YtGrIUCgOTMss82r8tItA2j6WD06qOtRywwTL8BiDIgpvrYHqVtYOSBwgtRjMXIbERobEoAkIoAyTYTAoumEbi8oPbnrIcvLGaB4L5p7tQBkBoAyTM4s5Kan2bSNSdf2/BD6y/SQhuGvP4CkIYAEmpMOE9XAQACQHQtrOW1AxAA0nIT1u0+AAEguhbW8toBCABpuQnrdh+AABBdC2t57QAEgLTchHW7D0AAiK6Ftbx2AAJAWm7Cut0HIABE18JaXjsAASAtN2Hd7gMQAKJrYS2vHYAAkJabsG73AQgA0bWwltcOQABIy01Yt/sABIDoWljLawcgAKTlJqzbfQACQHQtrOW1AxAA0nIT1u0+AAEguhbW8toBCABpuQnrdh+AABBdC2t57QAEgLTchHW7D0AAiK6Ftbx2ANIyQMxbGfPsjl+9WfbQrF+z7rLjLjofgLQMkOeee6XQFmJ81Zrt+03KfluVdt81IAEgAGSeAgBkvkEAEAACQCyuB4AAEAACQOYroPkdhRpxcLZO7TgeIdac2lNTZ+nw4WPWKX3jjfcLv0sdX8GmTUNO/QCkOtEBSIHWMb71SGsaAYiWsufWOzl5io4fPwkP0qsAADmYaxT9ts0LQOBBzlEAOcicJAAEgACQEjtYfCqS9OpCXlFLyEFEMpUuJPEeAKS0zPErACDxNc2rEYBYdEaSjiTddQXdmA9CrGoWLHEr8CBiqYILSr0HQqxgifVOBCB62pqapd4DgOjPhXcLAMRbMq8TfLwHV7x9+5uF9bf2VpORkXvp2muHCgeGHKR/cxAf7+ECZGzs0cSLTkfhqJU9/vi28TRN1+W1CUCKZ6KfLxT6eg8AEhP/SHUhxIokZE81IXCwt+FdrKKjtR6Ewyv2IkVHk0MsXuGLDr5XquzBz40XjZ+feV+1amVwE9p9D+1YCBzc1gcf7KZduz7PbTZJkoktWzYMh/Yp77yoIdYTT2xb1+2m43kNtRmQmIKjLqJQOFyAEKWbxsYe2xhT48oA4U7b8pAme5CYgvd7XWXgcOUfjQeEB2BL1B955Nd0001X5doIAFn46JSFwxZesXqx8w+uM6oHcQHCsTRDsnz50nOsAYAsXED4KcHJyZPEP8scdkDih1cqgNjyEG6Qk87169eeA8mBA9/R6dNnyuiHcxuoQFmvYYbk8h4a4ZUKIC4vwp+Pjt5HZ86cpaGhFbOgHD16go4cmWzgFKNLIQrEAkMKiEZ4pQbI6OjWjUTJM0XCrllzPd1ww6rpjy+44Hy65JLltGzZUmIvgqO9CsQKpXoVqMt7qAEi8SJ33XUbXXbZxbNaDA4unv59cHBg9v8GBmb+D0czFeAogI+pqTOl84uiEbouDPJ5Wt5DFRBXLsKN90LSTDNAr+pUwPbsx0y/dJJzM+bou1hZMW1bvlyOPQhDggMK5CngDq10vYeqB+HKJV4EkACOUDi0vYc6INyAK2E34iDcAihGAXdYpR9aVRJimUZcoZYpd8st19DNN18NS+lTBSQJ+fSqrnBTYpHkqjmITz6SheSyyy6at8PVp/bSN8NmMHbt2l34QupeITR3rXrbqgwQST6S7Ry8SX/wIUnEs0rEfqTWpXJlgEiT9t4OcxJ/+eUXE7yKayrb8bl5vNbHY5iRVQ1HJUl63rRJc5K8cw0w7TAH9JIV2L//8KwQvs+fm5wjSWjT5s0bJqpWtFIPkh2cdHerakHQXrMUqDIhzxt5bYBwZwBJs4yxeb3RvUouGW+tgJgOAhTJVPVPGfYadYVUte1iSaYXoEhUWrhlmgSGUbkRHuTc3GQ6NSu8XX7hmkh/jqyJYDQWkKyJzFw76a4DLAsLHAZiZneqnp0pHzUb50FsnWdg+PMZaGaOJOmUfzGVj2Io66VAmnZ3dDqd2e3ZOrZqvTrcU7hVgJQZKM6FAiEKAJAQ1XBO3ygAQPpmqjHQEAUASIhqOKdvFPg/NL841++ytNcAAAAASUVORK5CYII=;" vertex="1" parent="1">
          <mxGeometry x="581.5699999999999" y="502" width="98.5" height="98.5" as="geometry" />
        </mxCell>
        <mxCell id="zQXd-Jtvyqu_DLBY98N6-84" style="edgeStyle=orthogonalEdgeStyle;rounded=0;orthogonalLoop=1;jettySize=auto;html=1;exitX=0.5;exitY=0;exitDx=0;exitDy=0;entryX=0.5;entryY=0.667;entryDx=0;entryDy=0;entryPerimeter=0;" edge="1" parent="1">
          <mxGeometry relative="1" as="geometry">
            <mxPoint x="534.5699999999999" y="532" as="sourcePoint" />
            <mxPoint x="534.5699999999999" y="532.01" as="targetPoint" />
          </mxGeometry>
        </mxCell>
        <mxCell id="zQXd-Jtvyqu_DLBY98N6-85" style="edgeStyle=orthogonalEdgeStyle;rounded=1;orthogonalLoop=1;jettySize=auto;html=1;shadow=1;sketch=1;curveFitting=1;jiggle=2;entryX=1.007;entryY=0.045;entryDx=0;entryDy=0;entryPerimeter=0;" edge="1" parent="1" target="zQXd-Jtvyqu_DLBY98N6-76">
          <mxGeometry relative="1" as="geometry">
            <mxPoint x="977.7199999999999" y="639.5" as="targetPoint" />
            <mxPoint x="978" y="610" as="sourcePoint" />
            <Array as="points">
              <mxPoint x="978" y="650" />
              <mxPoint x="1020" y="650" />
              <mxPoint x="1020" y="795" />
            </Array>
          </mxGeometry>
        </mxCell>
        <mxCell id="zQXd-Jtvyqu_DLBY98N6-86" value="" style="shape=image;verticalLabelPosition=bottom;labelBackgroundColor=default;verticalAlign=top;aspect=fixed;imageAspect=0;image=data:image/png,iVBORw0KGgoAAAANSUhEUgAAANUAAADICAYAAAB/CKTGAAAAAXNSR0IArs4c6QAADKhJREFUeF7tnf193DYMhiWPkXYVN/E+zgxOZkj2Sdyu0mQMqz8q1lV3OesAEhQB6vF/bSgKfF88hEh93Dgc7O/PL/98mMbh6cfj/cPBhs5wd1Jg3Ok8Lk6TgHoZp28pmHEYvwOWC1u6C+IwUK2BWlwErO7y2cWADgHVNaAAy0X+dRlE91BtAQVYXeZ080F1DZUEKMBqnoPdBdA1VO++/j1pHGONpVGLtm8p0DVUf3z959s0TB809gOWRi3aXlOga6g0l39rcQALWEoU6BqqJAxglaQHx+Yo0D1UgJWTFhxTosAhoAKskhThWK0Ch4EKsLSpQftcBQ4FFWDlpgnHaRQ4HFSApUkP2uYocEioACsnVThGqsBhoQIsaYrQTqvAoaECLG260F6iwOGhAixJmtBGowBQvarFkxeatKHtlgJAtVIHsPaFZfleyHLW9cPP6fnL9P+n6eX5brj7/u/H+/m/I/wB1YVLgFU3bReQtG8PzFFN0+efH99/qhthee9AdUVDwCpPrMseimC67Mw5XED1Rv4Alh1Y7748fxrG8cmux1893U3jg8fLQqDacBqwyjGoBdQpModVyz1UKbGTgC/Di+oN3vJ0eO0hd4Z1aLaZJsKOqgN12uHwtdZyA9VcFYaXD+N4935ekypfgxf6vG+zA4O1G1AOwWoKlenidV9c5Gc7IFi7A/Xqhpc11u5QHQKkYLtV8hlC1lL7FStZr7dbefm2yC5QrW/ydXFZd9vf31scpGK1qlKL4B6qVXWoWouck/+1jvFgeK2xLf22qlLL+T1Uq2pQHfIybytjD1CpvEygrScvc6iA6QpZBwAqjTrn46U1KmframUKlZeZqoZR2X0eBKikT+tLv7VHPx//Ms1tjf9mJ/YyS2kGX73tkYCq9ChSrkctLwGLocp9lEcq1voVAOkxlu3SzeisHcsDATVXKaA6pV0RVNZAJYCW92dShK0flsxOlIMBBVTn03g2VNkJd6WMJJjGafjcGqJ1aNnjOyBQHqFquVmRBVV2wq2y1iNIp3stuZcyBwXK087f2ZzdyA81VKVAeYapaMZtZKDl+rGkL5cbVY08UUFVCpT316Gzx9fIvBIIrI8Fqv8VFUNVsinR8vpWmjwAJVXqejugyoAq98Zey/sF0jQBKKlSb7cDKiVUOUnnfe3EpkQ5SOsegEoBVS5QPx7vH2xts+8tZ2xzFKyhfjMDqIRQ5SRdhPUTu3z2ExRQSaH6+vekkj/IDJ4zWVChtjMBqARQaROPCqWafrprDFQSqJRVquWj9tIM1U4Up36DVGCpDjXaAdUNqNTJFyDp1GNaNAowthqQaPsEqltQaapUgKQDKC0i+vZAtQGVKgEBSp99nR4BVFtQKapUiHWUYjysofKJB6o3oKJKcWM3FyugegsqxazuvUplPQAc4HI2N+lrHwdUV6DqrUqlIarAAqgi7lL+LD8uUdSR4cHp0wwtfnnx9OqHBirvVWrtiwgsgDJMZbr6HyrppV/ABNwEK+B4SFvfCsxQiWbz13FEeD/qmuRXxwhQvrMzaHQzVL1e+l16cgYWQAVNWf9hz1CJd246SMTlFxtbLGD9pwMRWijwq1J1vJ6yEIk+UECjwKhZT0Xa9dOIQFsUsFRADFWU96UsxaEvFMhRYBRvUnSwnsoRiGNQQKsAUGkVo/1vCnh7mqL1d/mBCkiKFRDvHhefSdhB46uqUSpI1Ju+QhtoVqCANIcKTqE7FKh0etHanwJAde7JKL1HxXa6v2T2EhFQAZWXXOwmDqACqm6S2ctAgOoCqvREhcQcTz8dKomXNvspAFQXUO0nPWfqVQGgAqpec7vZuIAKqJolX68nBiqg6jW3m40LqICqWfL1emKgAqpec7vZuIAKqJolX68nBiqg6jW3m40LqICqWfL1emKgAqpec7vZuIAKqJolX60TmyV15ntIZue3EihzHMvpS8dz+uyz1XjoZ38FxN8ZuRVaZjKWJuGtsLT/XvpCbel4gErrmMP2VlDlfjHL6vxW0gKVlZIH7kfz7cYtmXKhsjq/lYWlL9RKX9x9K14qlZWTDfuxSuoeoModw9o+oGqYzF5ObQVVGk/uLF+6DjHTMnNduJy/VMsENZXKzM22HZXOrkv0uesRL+uq3PiX8ZeOA6jacmB69tZQlc7wJmIUVqkUA1CZONFHJ1aXXyVrktKELHUi99LVcj01TNNnLv9KnXRyvBVUJeuqeaaX/iyTtW4GVcqk2gKVtbPt+jNJiNfwS9YlLapVSXU9q1Jfnj8N4/hU4mKqllSqEgUdHWsJVWmS7g1WySSwttCi2gOVIygsQrFIiiWO0vXJbmAZXPalMZtMSq+xUKksstlJH5ZQpQV36e8i1wbLqkJZ7PrNKQBUTkgwDMNktl3FU1qtzJL1QqPSy9NLya3gX/SiUhkmtYeuTHffDKrVoolF4s43Vqfhs/XXkq1i+/F4/5DGC1QeSDCMwfQSsOCxpbeGtPzq4jRMos+N/0rSOjCZVtLVBARUhgntoSvrS0CLtdUWYDM04937yzbT9PJ8N9x9t65Kl+exmoTW6zug8kCCcQxWibKEZbkhYDzUou4sLvvWGxRLMEBVZIvPg82r1TAMvYFlBtRq1w+ofPJgFpV1tbLecTMbaGZHVhs613RRVaplkZk5Dg4TKLDsIAmabjYxnYmXMxnuBpaOr+R40wnniiYqqEyDKVGl42Mt7g0t8ljNxmdyBwfLOoev+QVUzgA1hcrgAdGr8gQFyxqot3ZGgapjqNLQqlSrK4tzZzL+Fo45UBv38IDKWTZYVqoZqlrVKghYaSd0Gocnzc1mUUpsVGugEim4XyNrqFLkNWbpCOusahPKjctfoNqPF9GZakBV9TLQ4c5gter0OtZbHgGVKNX3a3TLsNxIatwQ9riJUa06KSYPoMrN0krH1YKq+vpqpUe6IZqe3St9H0sjcc6Dupr+57bCXU+gUitb94CaUO2yvrqUR5iIOarWvsxbx6R5ogSoctyseExtqHa7DLzQaKleJU+ep9jngjEO88dZzHf0NnzVPPsIVBUByem6NlR7XgZujX+BTKLR8mrInhCdxaWstkAlcXXHNntA5QWsHWXNP5USqHSi6lDtkSQ592GOHNeSYdV3yvJT2ceRGUABVWXrvMK+HjZgvZEEmUABFVDNCgDWRSIUAAVUQHVSALBepSgECqiA6kyBo4Ol2Tbf3tlUJJbXNQJxKUwUND0aXNafQGP3T5BkuU28wi4Zz2HAMrjcu9QTqCQZltkmMlRpyHs+BpQpcfZh1tVpHQhQZdty+8DoUC0j7K5qVahOQFXhc8bXEOsFqtO2+7y1VfajaLenonotalYnoAKq7Mydq1YwuPaCaRGVy7/s9Lp9YE+V6tpovV8W7g1TFlQ5H9O0+jjkVgp7TV6vet2eDnQt3MFVec10Sx1VpbrVWat/9wpVKz1anbfVpWGqSPMVaYXfrsrREqhyVOMYkQK1IPMG0aUYQCVKDxqVKmBxidhqjaQdO1BpFaN9lgIWr/FrvhORFaTRQUBlJCTdbCsAVMEyhI0K/4YBlX+PziIEKv+GAZV/j4AqmEdAFcwwKpV/w4DKv0dUqmAeAVUww6hU/g0DKv8eUamCeQRUwQyjUvk3DKj8e0SlCuYRUAUzjErl3zCg8u8RlSqYR0AVzDAqlX/DgMq/R1SqYB4BVTDDqFT+DQMq/x5RqYJ5BFTBDKNS+TcMqPx7RKUK5hFQBTOMSuXfMKDy7xGVKphHKdwEVmnY/368nz9H5vmPb1R4dofYQioAVCFtI2jPCgCVZ3eILaQCQBXSNoL2rABQeXaH2EIqAFQhbSNozwoAlWd3iC2kAkAV0jaC9qwAUHl2h9hCKgBUIW0jaM8KAJVnd4gtpAJAFdI2gvasAFB5dofYQioAVCFtI2jPCgCVZ3eILaQCQBXSNoL2rABQeXaH2EIqAFQhbSNozwoAlWd3iC2kAkAV0jaC9qwAUHl2h9hCKgBUIW0jaM8KAJVnd4gtpAJAFdI2gvasAFB5dofYQioAVCFtI2jPCgCVZ3eILaQCQBXSNoL2rABQeXaH2EIqAFQhbSNozwoAlWd3iC2kAkAV0jaC9qwAUHl2h9hCKuAOqvRre9M4PGnUnIZJ/Qt94zCqfpFvml6ef358/0kTF22PqYBLqF7G6Zs3OxKEPx7vH7zFRTz+FAAqoSdAJRSKZgNQCZMAqIRC0QyopDkAVFKlaEelEuYAUAmFohmVSpoDQCVVinZUKmEOAJVQKJpRqaQ5AFRSpWhHpRLmAFAJhaIZlUqaA0AlVYp2VCphDgCVUCiaUamkOQBUUqVo9x9SBqT50eMsJAAAAABJRU5ErkJggg==;" vertex="1" parent="1">
          <mxGeometry x="941.46" y="510.5" width="95.85" height="90" as="geometry" />
        </mxCell>
        <mxCell id="zQXd-Jtvyqu_DLBY98N6-87" value="" style="shape=image;verticalLabelPosition=bottom;labelBackgroundColor=default;verticalAlign=top;aspect=fixed;imageAspect=0;image=data:image/png,iVBORw0KGgoAAAANSUhEUgAAAAwAAABGCAIAAAB31OK6AAAAAXNSR0IArs4c6QAAAERlWElmTU0AKgAAAAgAAYdpAAQAAAABAAAAGgAAAAAAA6ABAAMAAAABAAEAAKACAAQAAAABAAAADKADAAQAAAABAAAARgAAAAABT7q1AAABgUlEQVRIDWP8//8/AyHAREgBSH5U0WgQjKYC2mWEB4+eHjp+9uOnL+iZEZiDIWD6gpU6dgFAZO4ReebCFZgwiIZmzu8/fkydtxxiwNdv32cvWYtsGFTRu/cfkUUfPnmGzIUqkpYUN9LTgkuE+rnD2UAGI9BKCP/Vm3frt+65fvu+rYWRt4sdBwc7XB1CEVwIkzFaqlCxVGGBh+/DJ8+nzV9x5/4jNwerhIgAdjZWuBRCUX51+90Hj4ESt+4++Pb9R2F6LFwRNFoePX0OUQGR2Lr7IFwFkAFVJCYsxM3FCZfQ0VCFsxGKgAmjODMeIiEuKpwSE4ysiAE5LX/5+u3i1Zt//vxBFgSyR9MTLMRRgg6DQ4ssdeHKjcj0Ul37wPquqR8+fUa2ExotwAjyisp88uwlRC4iwLO6MA2uDuqmh4+fwVUA5XYdPAZXAWRAFclKSwgJ8sMlbC2M4WyEImZm5vriTBkpcaCQoa5GSlQQsiKU9PT377+Pnz6jJabR9AQKLwAb6tMjzMam2QAAAABJRU5ErkJggg==;" vertex="1" parent="1">
          <mxGeometry x="870.5899999999999" y="798" width="6.86" height="40" as="geometry" />
        </mxCell>
        <mxCell id="zQXd-Jtvyqu_DLBY98N6-88" value="" style="shape=image;verticalLabelPosition=bottom;labelBackgroundColor=default;verticalAlign=top;aspect=fixed;imageAspect=0;image=data:image/png,iVBORw0KGgoAAAANSUhEUgAAAAwAAABGCAIAAAB31OK6AAAAAXNSR0IArs4c6QAAAERlWElmTU0AKgAAAAgAAYdpAAQAAAABAAAAGgAAAAAAA6ABAAMAAAABAAEAAKACAAQAAAABAAAADKADAAQAAAABAAAARgAAAAABT7q1AAABgUlEQVRIDWP8//8/AyHAREgBSH5U0WgQjKYC2mWEB4+eHjp+9uOnL+iZEZiDIWD6gpU6dgFAZO4ReebCFZgwiIZmzu8/fkydtxxiwNdv32cvWYtsGFTRu/cfkUUfPnmGzIUqkpYUN9LTgkuE+rnD2UAGI9BKCP/Vm3frt+65fvu+rYWRt4sdBwc7XB1CEVwIkzFaqlCxVGGBh+/DJ8+nzV9x5/4jNwerhIgAdjZWuBRCUX51+90Hj4ESt+4++Pb9R2F6LFwRNFoePX0OUQGR2Lr7IFwFkAFVJCYsxM3FCZfQ0VCFsxGKgAmjODMeIiEuKpwSE4ysiAE5LX/5+u3i1Zt//vxBFgSyR9MTLMRRgg6DQ4ssdeHKjcj0Ul37wPquqR8+fUa2ExotwAjyisp88uwlRC4iwLO6MA2uDuqmh4+fwVUA5XYdPAZXAWRAFclKSwgJ8sMlbC2M4WyEImZm5vriTBkpcaCQoa5GSlQQsiKU9PT377+Pnz6jJabR9AQKLwAb6tMjzMam2QAAAABJRU5ErkJggg==;" vertex="1" parent="1">
          <mxGeometry x="948.54" y="798" width="6.86" height="40" as="geometry" />
        </mxCell>
        <mxCell id="zQXd-Jtvyqu_DLBY98N6-89" value="&lt;h3 style=&quot;font-size: 20px;&quot;&gt;&lt;font style=&quot;font-size: 20px;&quot; face=&quot;Comic Sans MS&quot;&gt;duration&lt;/font&gt;&lt;/h3&gt;" style="text;html=1;align=center;verticalAlign=middle;whiteSpace=wrap;rounded=0;fontStyle=1;fontSize=20;" vertex="1" parent="1">
          <mxGeometry x="924.5699999999999" y="664" width="60" height="30" as="geometry" />
        </mxCell>
        <mxCell id="zQXd-Jtvyqu_DLBY98N6-90" value="&lt;h3 style=&quot;font-size: 20px;&quot;&gt;&lt;span style=&quot;font-size: 20px;&quot;&gt;target&lt;/span&gt;&lt;/h3&gt;" style="text;html=1;align=center;verticalAlign=middle;whiteSpace=wrap;rounded=0;fontStyle=1;fontFamily=Comic Sans MS;fontSize=20;" vertex="1" parent="1">
          <mxGeometry x="845.02" y="662" width="60" height="30" as="geometry" />
        </mxCell>
        <mxCell id="zQXd-Jtvyqu_DLBY98N6-91" value="" style="shape=curlyBracket;whiteSpace=wrap;html=1;rounded=1;labelPosition=left;verticalLabelPosition=middle;align=right;verticalAlign=middle;size=0.5;" vertex="1" parent="1">
          <mxGeometry x="523.5699999999999" y="768" width="25" height="68" as="geometry" />
        </mxCell>
        <mxCell id="zQXd-Jtvyqu_DLBY98N6-92" value="&lt;h2&gt;&lt;b&gt;&lt;font face=&quot;Comic Sans MS&quot;&gt;DPO&lt;/font&gt;&lt;/b&gt;&lt;/h2&gt;" style="text;html=1;align=center;verticalAlign=middle;whiteSpace=wrap;rounded=0;" vertex="1" parent="1">
          <mxGeometry x="463.56999999999994" y="785" width="60" height="30" as="geometry" />
        </mxCell>
        <mxCell id="zQXd-Jtvyqu_DLBY98N6-93" value="&lt;h1 style=&quot;font-size: 20px;&quot;&gt;&lt;font style=&quot;font-size: 20px;&quot; face=&quot;Comic Sans MS&quot;&gt;&lt;b style=&quot;font-size: 20px;&quot;&gt;SFT LLM&lt;/b&gt;&lt;/font&gt;&lt;/h1&gt;" style="text;html=1;align=center;verticalAlign=middle;whiteSpace=wrap;rounded=0;fontSize=20;" vertex="1" parent="1">
          <mxGeometry x="560.5699999999999" y="465" width="151" height="30" as="geometry" />
        </mxCell>
        <mxCell id="zQXd-Jtvyqu_DLBY98N6-94" value="&lt;h1 style=&quot;font-size: 20px;&quot;&gt;&lt;font style=&quot;font-size: 20px;&quot; face=&quot;Comic Sans MS&quot;&gt;&lt;b style=&quot;font-size: 20px;&quot;&gt;TTS&lt;/b&gt;&lt;/font&gt;&lt;/h1&gt;" style="text;html=1;align=center;verticalAlign=middle;whiteSpace=wrap;rounded=0;fontSize=20;" vertex="1" parent="1">
          <mxGeometry x="941.46" y="467" width="74" height="30" as="geometry" />
        </mxCell>
        <mxCell id="zQXd-Jtvyqu_DLBY98N6-95" value="&lt;h1 style=&quot;font-size: 20px;&quot;&gt;&lt;font style=&quot;font-size: 20px;&quot; face=&quot;Comic Sans MS&quot;&gt;&lt;span style=&quot;font-size: 20px;&quot;&gt;Select strategy&lt;/span&gt;&lt;/font&gt;&lt;/h1&gt;" style="text;html=1;align=center;verticalAlign=middle;whiteSpace=wrap;rounded=0;fontSize=20;" vertex="1" parent="1">
          <mxGeometry x="523.5699999999999" y="670" width="191.93" height="42" as="geometry" />
        </mxCell>
        <mxCell id="zQXd-Jtvyqu_DLBY98N6-96" style="edgeStyle=orthogonalEdgeStyle;rounded=0;orthogonalLoop=1;jettySize=auto;html=1;shadow=1;sketch=1;curveFitting=1;jiggle=2;" edge="1" parent="1">
          <mxGeometry relative="1" as="geometry">
            <mxPoint x="784.29" y="789.89" as="targetPoint" />
            <mxPoint x="821.29" y="790.28" as="sourcePoint" />
          </mxGeometry>
        </mxCell>
        <mxCell id="zQXd-Jtvyqu_DLBY98N6-98" value="" style="shape=image;verticalLabelPosition=bottom;labelBackgroundColor=default;verticalAlign=top;aspect=fixed;imageAspect=0;image=data:image/png,iVBORw0KGgoAAAANSUhEUgAAACAAAADsCAIAAACaMjNsAAAAAXNSR0IArs4c6QAAAERlWElmTU0AKgAAAAgAAYdpAAQAAAABAAAAGgAAAAAAA6ABAAMAAAABAAEAAKACAAQAAAABAAAAIKADAAQAAAABAAAA7AAAAACAY2cpAAAOF0lEQVR4Ae1ceXzNxxaXCBH7Uk0tRcUSS5AQtGopamkIr1RRqfa1hLZP7d5rqtJGa22LWkrtfaHRoqqJLWgtrX0nqC1EbEUkIhJZ3vc6N+fOnd9yf7+r/nif/u4nn1/OnDlzzsyZ/cyc8cjLyyvwOH+ej5O5jfejCriXcX/b7/tzcnI0MwoVuffLzMqKi98e8to79Vt1v5VyR4uJl6ZkjYi76femzFp0/mLS6bOJ6fcyNKgcaNMqupOatmHrzgcPskM7vVC5oq+DkwZkugSVKvjuWreMuH38IPuH5I0anO1o0yXQZ6eMtQQodSJhHruKNFvRyp837T98ok2L4A5tnpMypRLUHs/UBazbvCNyymwwWrvxl70bvitSxFuFqYBCNxZCTqC6itZt2c5UhQsXYlgLyCtgRkB2ds7WHXuIV7OgAE9P9UyIwrQLoDaanjh9lhMHBwYwrAOYUxHqlnk1aViXYfcAleIfOOIQUN+/phG+OiWwtSJMFzdu3rYN6Ajk5e09dIyY1qlVHXjPgrZMFC/qU7JEcQC5ublfLViWm5uXcid1VWw8UQ4bO6lRfX80hw6tn0MqQtLXA2xnLlw+d8kKEauE27VsPm38GOCRm0ZtexYr6kM0mBLKlimVmZmFIOBR7775eq9QMbmtBOcTk0SUKly7RjXCFyxY8Oivq1VpVJG2Ety/n5mRmYmmnJOb+37EhCMnThPp5pULChWy98QSxYp5eRVUZaGPtKVHR6W+ih7A3J9t0vDJJ8rqJzYS69SKEv44x2maGusBTK8FOAkQG2jjhvW00pjCOwnYc/AoJ65b24/hRwEcAtD+sIQiXhiCvA2McegT5y9epv6jlQmHgIQ/zjNR06AGDGsBWNNh1RUa9t6M+dFaNMA7BIgVYGQI2r3/SFLyNbCgXqYlw97MEb37wBEmqle7BsPJV68fO3mmYb3avuXLMRJAPX+/BnVrVfAt/0bvbiJehqFB/LKzs7HEpL83h3xISPoiCPzquHgRaRy2q+j0uUSWHBxYn+Edew5i7MNo0/GFFow0BdgFZGTc52QBdWsRfPX6nyPHTQE8dGCYT5EiTADgUvJVtB8RowXb66B4saJMkZaWDvjylWsjI6digESTDe3YhmNT0+4O/2jy7gO2HlPLr9qi6VE0jDOBBBSMjIwEqlzZ0liOY1EOGOo6deZCxIQZ1/+8FRjgP2vSWO/ChSkZpoHwUZ+cS0wa/58h+w4fRytCzQfUsZeYaKSvo5mOGzUYrQLRiZeSaSbp2bXD7Elji/o4lLNr/2G0ZmisfatniRGyInGUgnYVAVumVMnoOZOQa2TNp4i3f41n0AQlaghGlru82PrQ8ZO3bt9BbFBAHYlGCjoEUASG6JfatZSIONi1Q5vXenTBJLF2wy+EbNeqOceqArIAVSJGtn6uCeCM+/d/WGvbd3Tr9ILYOphMBBx1IGL14a079xIBCqRPiVh3BPwYtxkp0fvQJa//eTNmzXqdbaxpAcnXbvy+7zAE9ArtiFXlkpifvvx6qbmlo36pDx87RQSd27VEp1u64qdhg17XWQ+YLoFftcokICU1LXzkx9jJ9gh5USdPtmWLTrRq1JioL+PityEK1TBvaiQvmVSJ3REARhgHsaoE68KFCqnyZaSbAji9S8B0HbjkKBFYAiSFKIOWipQ6kTCWiiSFKIOWipQ6kTCPXUXmli1i7m6npJ65cDEjIxOTGv60JgZ3BGCynDpr0Zr1W1keLAtDw8N6dumgnJxNTzjYmvUaMALr13f/2aduLb+kK1dnfBNNRuyXQ9p/PPpdlmoHjO9ViHLyzIXY8Pyycy8nvHz1erNOfWh3hCUl4wkwXcmwjCNrY6K+uHj5CuWxom/5gWE9Cf7+4ZLSnveH/8wJyMx6cO3GTSSETnbsPsCMmjSy77qwuAcN4wGYE4DdeYumgZQ+UFi48w4FUXm5uaIA061o5oSIg8cSKlfwFXcPp87aN/FYKUlGVtMC0BCD8xXCOd2y3W4GfSW0IyMJMKciKTEF9x06vnn7LsDY/IT17CrRaJbAoO0668GDCTPmgyn62pzJY0uVtBkOnX5Ss6UgjpeoXeOLLbQqDZCwtmAzCppW3fqfPntBlUxdRQZt1/O+/WHNui0YiKJnT6pZvapTxvMDKgIM2q7BeuaCZbCSgjtkgCG2/0CiWPnMbf9VBBixXaOXfTjxq6AGdRdOi0LTJI4wqQMpclcX4NJ2ffzUmcGjo55vFjR3ykfiLhMGIRgXJGu9SisSLVNK2zX08NbQj5A1AG++/yEAWFtzcnJxgIdRpHO756US2AQYt13DVjFwRCQNzhixJV4IVq/6tIS0CZizZIWq7Trh9LnOfQZRArJdZ2VlkRlN4sJBv2pqAozbrjHOmDJcQ7BtRrNs11wDaoBTRxMbqGW7zleXQ0WW7TpfJ/J/moYs27WsF0fYPh+I84Zlu3aoxwY5pkzLdu2sGQ45xiJGuQQs27W+iizbtb5+ONayXbMqHh1wpyebkmoJcKkuS0WWilxqwCWB1YosFbnUgEuCv1UrunDxMm6Z3Um961ItIoFjfyBilfDXS1bMWrgceBhgZ02MMG7JMFQHuGtC3CEA9rRv/rtSmQMtjCEBdBGHWSQmqVjrOFYCDAnAjX2YSDml0sTOUUrA6CER7h2tjo2HwaRl86CQ9q2kQwIlX8YYFcAJzAKGVGSWqUhvCRC1oQpbKlJVi4j8/1eR0eE6MenK7EXfnTl/ES4hb/TubuTKMSnKqABcWT974RLS4LwMZ9bDwsNERevAhuoAR8fEnRjFbvpVh6MUZUjAk+XKsj8A0itPjiSmYtCQAAzOIwb3p2Q4EX27Xw+RhT5sYrjGZAlF1avtBxcEfaZirAkBYjLjsCEVGWenpLQEKHUiYSwVSQpRBv8+Kjp07GSf8FEBrf8xbvIsXGBSqkILY2iowEnVS30H81F17+6dI4YN1OIo4Q3VAU7XmTvSb/z1N4mLTtCQgKcrPcV3G8CrZfPGOhylKEMCMD6PGzGYbmfA5eHtvi9LXHSChuqA0uNKwt30dH2HDKUkEwKUiY1gDKnICCMtGkuAlmYYb6mIVaEFWCrS0gzjLRWxKrQAS0VammG8pSJWhRbwSCrCBT14RGmxJrzRnb7IZeKM+fHbdtEFbOC3r11aumQJkUCE3SlBUR8fWFKJC7bNOtxB404Jhgx4DXeJG7fvhfTNmzQU86uE3SkBuJw4dZZ4BbvyVXdTAL+nENjAhWepmwLgv40SYEVcpVIFpVpEjDsC4BRO7sMtgu0X7YkjTEnKVutOJeNSMXFkX2zchv4meiVd0sWjELhey4VwpwT78p/kCKzvjyU3XhvCbWi4/NJ93LUbnMxV7pRgz0N/eFQANiZRn89Zt2VHzLyp8Dglq5h0/d20AK6A+v414KCJ5rR87pRnqlSinSEMY3D5Zf0AUN8foJGs37LjKd/yA/r1kC5qHzia0P+9D4gF2K1ePJ09HVDDJYoVlc4uVEqA/d7bw8cRi6AGdSR3hv2Hj3MGYQPrHT6q78shb7zazdu7cPlyZTiKAZVK3rZrH0eLDuKE5B6wYv7naC04P8IV+0+nzeMkEqAiYOeeg0xUo1oVhgFgCKIegI1mnZrVv/hkND3dszpuM7ko40GKg0dPiklkAWDBj0pAOSi4SH0y/0UIGoI8PT0qV3yKCDw8POFXMOSDCb/tdeQPUbIAZoG4Zo3lRyUOHk0gdjwE4QwPmKpPV4QwONmjVjq1dbpfLwuATYJY4BvcSH7Vg4ovDkFtn28KyrS76XgRYuJXC+AzIF1/t7UinJFBg3kPGZN79kOwALbEeEuigIcHXMGeKFsayFspKfi+0rUDEeALNeKdBvgvwVSCcnz2wfscRYDH7/sODRgeKWGVQbpTf/N2SvLVG7DNSp0DvmlwuYJzFxQlpfWC3V5CKYMwHxCyXJnS+FMSlCldEn9KPDAeeLQsLd32vAOcQ5bG/LRw+Wqig1NNPf8aBPt421+OoaCprxdcj3DTlNLABY8TNw0K0PLCYxojgKMVoRVzD8C7Nn8Jd+TAIeBxvGvjJIA7EbBBj/yyE2vPUQKtZ1WYVAng6EXyn1PS2AWgo3EFGHzX5j+fTgvp+07fQaOVTEWMXYBZ34Dbd1J/3mibe+9lZMAmKXKUYPuE4+ScIaylcKIFtyfMvRicxZRYj2KEwFsSwwf19/CQe69IaRegVQHffr8W8wkevvgswmmQAdOpkSNFRlqwTUUoI1cARgWeVDEILnrYscNekR3xtNgp8TYBogcZX/lAvxsZOQXjO7IvPc2F2ydHE/4QUyn5MsamIvHYCm9cAEOPN2L0x9A/NLwfU2OZ9fmcxXgEAxhETR//b7wPxrGqgP3lmdKlSpCn6IVLyVh9RHw2Hc9hYVUSPXsi7zWQfs7imAXRq8b8661CXl7o+VgL4d0NVb6MtDfT3t1f6ta5LbDQybJVsfhiJsGKqlqVSkwKdhAAjfXr2aVE8WLA8y6BaVQA8gGhLzSzdeeedZu3nzpzXsQTHPPjejgw4uEctH3yeYRLo5JMwtiakMEffAXhTgni2PhtJACN22Vaez9QKZoChb5G3Y3fbWniav8EHvY6UHDTRPC7La926yTNzKppTAuI27SNGIW82BpD5Io1G3jD/BcIgMZXxm4CI3T4qpUroP9HffE1/BlVWRPSXAmQWTprCe3UFsIWx6zB2hS+mDoCTFQyuGDNgt6HXgLljP9yLsbg2GWzdbjboly2M4lg2ao4aqP4UquVCKSg+g5HP1Poj3jIquYzVag/6xO7I0CfoxRrrpKlxEaCj13A/wD92b8jzSM/BwAAAABJRU5ErkJggg==;" vertex="1" parent="1">
          <mxGeometry x="750.29" y="478.75" width="22.57" height="166.5" as="geometry" />
        </mxCell>
        <mxCell id="zQXd-Jtvyqu_DLBY98N6-100" value="" style="shape=image;verticalLabelPosition=bottom;labelBackgroundColor=default;verticalAlign=top;aspect=fixed;imageAspect=0;image=data:image/png,iVBORw0KGgoAAAANSUhEUgAAAB4AAAAyCAIAAADEPPy4AAAAAXNSR0IArs4c6QAAAERlWElmTU0AKgAAAAgAAYdpAAQAAAABAAAAGgAAAAAAA6ABAAMAAAABAAEAAKACAAQAAAABAAAAHqADAAQAAAABAAAAMgAAAADOcPUAAAAEgUlEQVRYCe1Xe0xTZxTn0kIBebotatgYm4/JeFoEMheVucz5mNNkW7YYliXbjGaJ0RDiVGLWRaeLbFOcE/1DRBcxoGOoo3MqLlIdIggdEEBQBMU6QETeaKHd7/p1p1373Vtbw/7aTXvzu+fxu+ee75xzvyuYzWaPsTk8x4ZWZH0iajzxH+X6+719/PigduMwmUwV+tqVaV9GzVl2TlfGZVDybygt3Xswv7K67ur1lnvdPdJWosblhJw6d8HQ3jk7Sf3KzFh5apejLjy4izFqi3WlFX/KsLsctQyXnep/6v8uIfwKKbtSjSKbOOGZFSnveHo6WQ/0i1287JJD3WZo/zT1C6ZWx0QkxEVxPUlo9uBTcyIquVRBbn6+PoSlgETQvG68eLmKWKaEhxGWAlIJsY/6odFYUnqFsSAVKpW3FCPJH5e6oekG+STFxxB2A9hHra9tIJaEuEjCbgCxQjru3hsdHWXLbDtxAgP8DX91eAiCt5fX0+ODGfuxk6dvGdqHhx8U6y4xyfbd2eVVtf7+fhFTX5yfPIuCEEor9CtSNXQtBWrO/8xUH6/ZVK6vHefna2c5MDiUPCvh+20bSa5sbbtDF1JgRvR0UmVnbiYsDwSjcaRvYABGeCcdyjuRfcQSXdb2TZHTpzBnX5XKx0clT+SoVSqVipCgQKa41nKTLBLV0UgxXboBrBUyMjJKFY2X0xPyIhQrdX1TM4WWOCOasNvASl1VU08s6tiXCbsNrNRlldXEEvmSZQFJwgU3b9958NDIVUFooUbLUKKT1NEqb+cLuOGrnYuXf7Z81Ton1PU2oyNR7Xx0dPf0/nL6PEgHh4akxpPlVYANEd08PiaC8ODQ8IWyyudCJ6KJSQgQHBjw5muvdtztSl31kSAItirCFmqpRP949OTu/blL5idvTV9DPgCg+0aTZitxxGKu8USUaPQ0NR7G1oFHzfnhe0scPZ1KRGq0ONnFx1oGKTooTZOBoYOQI6b9Kxs9vf019U22XuRuC8SEKBQKEvX29QP3Dwxm/HCgqqZhfEjQ2pUppDWZzN9m5RzKPwEJVJlb1sdFWScXmTGg0Gg0QMFBAVgugJZbhs6u7vStmdV1jZich/d8HTppAjPFOSsnb//hgs9Xf+KlVKJ7sWlf+Pps0toBMSE4Pli2aOnCeQDIQG5BEc54MR7ZlxEeFvpIL55ABGrkJ+XdtwL8x0GCbTZpOQBrSAfy8PvFy78W665eu0FCAnmFp/AN0NzahloGwC992y7SOgKxPB7zqGu8rj2rg3HR2RJGjZKV8bXUNedxHEToGtY4hdpiKLGMM/8pJwdbUWDJNVfHFeJrg72a31+6QH476DK19kwJu+XiN+ZiqOUf/629s4sbhGvUyOxPRWdAhKZ9/tlJ6OHN3+3tkfhudI0aAWIfC+q3F8zDbXLyjmPjMW1yODdqF5YR/k+FBKOPUPVIxZYd+zAvi3L3cHlFoUz1cFW5BVpWeTizWuSaQSjgL3lbCQU6q7G5deoLYawnJaw83KGW4rKTu7aMds7yl2NI/Tf/IsPh8+g4TAAAAABJRU5ErkJggg==;" vertex="1" parent="1">
          <mxGeometry x="863.3299999999999" y="705.5" width="18" height="30" as="geometry" />
        </mxCell>
        <mxCell id="zQXd-Jtvyqu_DLBY98N6-101" value="" style="shape=image;verticalLabelPosition=bottom;labelBackgroundColor=default;verticalAlign=top;aspect=fixed;imageAspect=0;image=data:image/png,iVBORw0KGgoAAAANSUhEUgAAAB4AAAAyCAIAAADEPPy4AAAAAXNSR0IArs4c6QAAAERlWElmTU0AKgAAAAgAAYdpAAQAAAABAAAAGgAAAAAAA6ABAAMAAAABAAEAAKACAAQAAAABAAAAHqADAAQAAAABAAAAMgAAAADOcPUAAAAFd0lEQVRYCbVXCVBVZRTmyZMnyGqWKEhYLiAgCIqjVm6TueTClC0OWFO5TJOTWxuU85xEVCjDQHQclaGAQZPcHhmgKWAsIxA8BQRENlE2TbbH9h59t/9x3p37LuilvMM8vvudc777v3PPf/7zZH19fSZP5xr2dGQ5VfnQpDs0nRVVtY1ND+yfGz3ewd5ypIWxjmTp3l5tzKlzBw7H8LXWvbVyQ8AaG2tLPimTmuvA4PDzyVf8li1aMNe3pbUtNlFVXFoBxckvOsdE7BlpYW5Qh/STX5fTs91fWR0SfpRCNJrOdZ8EgsTfzn0RxANIe41pmdexqNjTquQrf7LVjRih2LoxgOFEVWp7h4ZWLU26ovoui7yQcpUkpk2dTPjmrXLC0qTnzZnBImf7eJKETCajFOt0OuKlVcgH7/pxojIT10kvkETtvXrKg8PYMcRLk0aY62SDKFPJyMpjAJkZP86epKUlhMIIPGppCz/6M7v9YvOHxAOIrzo7t/Di5Qz7Mc+u939j2LDBHh95Ip5lIyRoC/99cs/gVyLDNXfvszrFZ06+2tiBmDNJl5hnUmo6kQREVp2WxRUvuyzMR/RD4f/sPPXXe38EGxW68yXf6UKziYnIl72Wk09+E52dCPNB6e3Kj7buRM3FHwllup2dXb+cT374qIXchNLdPT1pmbnMPNPLXaEwI1cCdfWN67crR9nZxEbtc3eZyPjyyppdYVFIJrkJE1JSdodss3ymESaAktiwXTlcLo8+GOw4zlDFuQU34ePkOJY8hdJ/3Sgh20wvN8IMdHV1bw4MrqqpQyo+2xUGUqvTabW6ru5uRtpaW1EIJ93Q9ECr1bJzLPN6AdmsrSzr7jeYyGRmw4ePHmULfn/k8Xw192wU3I0SQ7tgIVMmTqBYAHlWbsH6bUo+Rdjv/U8Jq6/+ClxWUUWMMXARSFfV3jN2EjDTPVwYExMRIjANcivr6eltbW+HB5pWTMK54/Hc6nBF7f/Grf/tmysU6MuMf/JPuVxuamdjzQLKK6sp0tfbAymm2yEAQ13jPKWKnj3D8z/qYikG6eIy7vRkl+90j3449P8G6Xx1Mcl4e04lPGRgkM7OKyQVtyn67UuMKKi+e6+ru0fUBFIvjS1DiZ7l7aEwe/wL/Cr4h+VrP1676fPHSBfzWoevt0jrEMSjw11I5g71Do0GDVpgZbf6HpJXWERmn2muhDHbZWTnYarjn7Owole8tmBuQ1Pztk3v4UQnfz7QSw+U6J9OnY84Frdi8fw9QYZNj3jIhSl38IWMMZdrfCNKNPY0bTy0rRP/bs6ANSuMIx/LcNL8ucTHU99IsYN2KEPR4bBkwYCAlq0uLuNHiT6GS4ipqSnZMHwCt7V3hEaeQP/EUbJloz9Zdbq+76KiY06eAwNT+O4vvdz1nYt8CJgqlUrc2NpY4XUBVNbUNTY/DNoTXlhUin4fe2gvfyCKik44FpuIeQOnDHbv3y2tSxe9TFoCoK/rd1YvW7V0IWzIQFyiCp84GHGkOjs5UACEII38+L/5upXlSPBFt26TVQTQ2ACAPPxxLee3S+m3yu/weYYTzlzE1IHfGahlNn4EhRw0diNGZMQhmwAUld5mo4wqNY1Jo2QFPvxbfV2LfB0jCruGbRwMTTDiNc7oLycjX47Q51rUJkpiCGFH89urlgw+DkqWTkpJY49c/uo8NLWTZ3+vb2wWXYQ0aaTytCoFQti0zzuOxR7+9vvDj1pa/wdpLLC2rh5CK5csxGOiE84unj8HP+tEpSW8RsQ/Y2eLfYSqRyp2HziCfqmKOySqy5H8cnkSHJeYxCoPn6JjNYlI/rWL1WBnlVZUTZrgxPbkQKseivRAWgJeWoUIgge/fYrS/wCBzWLepuScvQAAAABJRU5ErkJggg==;" vertex="1" parent="1">
          <mxGeometry x="863.3299999999999" y="751" width="18" height="30" as="geometry" />
        </mxCell>
        <mxCell id="zQXd-Jtvyqu_DLBY98N6-102" value="" style="shape=image;verticalLabelPosition=bottom;labelBackgroundColor=default;verticalAlign=top;aspect=fixed;imageAspect=0;image=data:image/png,iVBORw0KGgoAAAANSUhEUgAAACAAAAAyCAIAAACyBk4zAAAAAXNSR0IArs4c6QAAAERlWElmTU0AKgAAAAgAAYdpAAQAAAABAAAAGgAAAAAAA6ABAAMAAAABAAEAAKACAAQAAAABAAAAIKADAAQAAAABAAAAMgAAAAC2pqYRAAAFzklEQVRYCbVXC1BUVRh2YWF5yEtiABHEUAR5uctDS03FJEwNpzKNaGymHJymrGF8lNS0k4pMioKWpGkyNuBgI4gESL5GxATk6SogL0FxVRB5Lu9H33IuZ5e7dxdY5c6dO9/5n+ec//z/+S9vaGhoirZPd3dPu6zTytJCgwG+Bp46VuThE5ezcp41NhGBG6mnzU1N1AnrqGNooBsZGtrZWhMBaytLDdYho80Ktm7+pLevz/vtj6C/0MdLw1TA0mYFUCu9X03s+nq5TYqD28V3iV2hp+ukOMgtuAO70yzMHOxsX72Dnp7e3EIJ7C7yFSpbr6iubWxqVqYAaxPke/eriBVfoTsBKRlX/4g/V/dIimH0np0rliwkdHy1CXJ+SSnRF7q7DA4O7f/t1A+RR9asXOrkaA96auZ1ah1AmxXkFTIBsLez2R0Vm3E1O/H4AemzxuraR7BoZjr1pRzQALi7zN65+xCO05lj+2c52LW0tcOusZFhUOByZQc8zlqEQ3LxaraNtdXmkA90dEZtY6GkbNNXu4gJmEuOi7G1tiJDRNjE2MjAQKDsgGOL6qXPvgj7iQiJPF195zORJJSCkntUX9bZtTF0e/D7qz/bECQQ6HNWvVGzI5pZOfnUhJGhAcUE0Aw4eyIKp+VFc+uvJxP2Rh9nidEhh4ObeUWUPdvRgWIAlCCSAUsWervOef3gzzsClr0JenL6lYGBAYC8IkmRpFxZhe0AJrJuFRAJbA4WrixdXvmAYQ2XIB0d3ozpNoTC4+n09w9s3bXvv9uK+YHFdkBNgLfA25Mo02+RpIxgWoK6urtBmWk/Hc5yCkoQlUD/xVQegO2g+K5igb7z2ZWSLF+5BPkv9oOV9g7Z3fKqyCMnFy8QkXSjPuSnqOH5C+wguTlv5ZdQnqnJVOnThik8nr6e3mvTzEF/0dKC7/q1AVQG2/jO8kWZ125+HLod64jY9Q1lEcC7lV+8OUzMoqoOJdeTQWxqbpE+bXSb68RKjuaWtsdPG+Y5g85j6fLr6p+wSKpDoYcLIVpamONVFbAwN8WrSgeF19fX3y6TAQ0ODp5OvPDnGflM8cT+8qOby2yCDQUCVn4S+ni+fD5f18KMcV5V+5Dq+Ik8sPV0qDVQnCKcYpoBb/h4vRLrmJbCQVllDZ2mn9CD4pcECgc0iWBR5DXvJe1SdYWD3OFrhDDc5jLhpXKc4OHjJz29fZwsSmQcINFoABaIPAT6Y4f3+73Rq4O/DN6yg9riBIyDspEqBiE/EbsEqWo2t7b986/87u3s6uK8sqgKc+EU3mHucTC8lXqpzq7u7NxC3L0ozlQHAP0oKkTD86awLZt4PHb2KksyDtQF4K+/U3GfrA1YFhE+qsjA6AHxNmVD6rB8i7BGGgBUBZq0KIKnhhP70/Vr1emPSZc7QJGgct4jzSzybpt4P+o7pu/qPGp/Wts6JGWVylpUXRXIt0hXV5cy2to7gDtknWinUP1R+r8NDaFctFlRsXGnz14ABayYPd/Nd2fqIJVhAV2xWAySuZkJgglQ+0iK7iM8IuZOaQW6kvijkfRfA9zYuMST8Uk7v/5cj89H5qMXWrViCegaHvkW4dm47t2gVf4A2JOEpDR8cZOgo3J0sBvmyz8wBwfYsZAP15hMNQaF/iVQGQ6ACNMHO3PtZl7GlRv3qx5QIgWJ5y+6v7Wupq4eZx8Ab/i+w5SrDsiP0Dif0orq9Ms3IJx2OYs4wOEeU5fJA46lqZCQayTdzqdfARNB9hk5ciqyCgITAwVhLIQumjQGG4ICWTczp+qEHaRfyiKGVq9cihJ5NiWT/jC/AgfY8XNpl2AICT9zhi3yf/fB31uHG3dO6yBObAWYLHpvqL0X6A9ncYkp6E2dnRzVWQd9AkGGNHoWZB+yBJuz59Ax1OC0hKMarMtZY54zlkBCUjo5o/iSU8sSYA25/3A0Twr5WFFTN2eWA8lnzcLaONBskcWdWJBZyuMZTrqD/wF0UghL5FokrwAAAABJRU5ErkJggg==;" vertex="1" parent="1">
          <mxGeometry x="865.4200000000001" y="848" width="19.2" height="30" as="geometry" />
        </mxCell>
        <mxCell id="zQXd-Jtvyqu_DLBY98N6-103" value="" style="shape=image;verticalLabelPosition=bottom;labelBackgroundColor=default;verticalAlign=top;aspect=fixed;imageAspect=0;image=data:image/png,iVBORw0KGgoAAAANSUhEUgAAAH4AAAAyCAIAAAAV2/jIAAAAAXNSR0IArs4c6QAAAERlWElmTU0AKgAAAAgAAYdpAAQAAAABAAAAGgAAAAAAA6ABAAMAAAABAAEAAKACAAQAAAABAAAAfqADAAQAAAABAAAAMgAAAAC9laIOAAANRElEQVR4Ae1aB1hUxxaWZkGKFVtMjL0rKtjQiFiCiu1hLxGNXWOJqJGQiBqiUYItamzRZ8duBAuWaHyWYEMELKhIUyx0sSHkXwcOw717C7CKD9lvv90zM2fOnHvuzKmjl5aWVqjgkxcS0M+LRQvW1EigQPTZ3gdBN+/cC4vM9jTRhALRi0Qi3REaFum+ZE2/UdN2/XlUGkvtiKFaxI8Y7+hfZw/6nrp7P+J+eJQOxVCw65WFedE/EEqmepVPHR06KWOrxtD7SDyci1cDg27d6fBFy4rlyqoWjhDxQfTjTn1HoXdo3+7O452Ew2/bDx89OXziTJ2a1Zo3aaAVgTo/CoXj7Xt65jxPPHOLpg0L5UL0JDUZIDY+wWPlRiDMnTmhp72dDGb+VzjXgm4xuU8bN6xmtSoystDJUJ0aVb8d+xVIuc5ffubCZRmahmGRD4ZPcpXBMDLSnAwDAwP8GhoYFC5sVLlieSvL+l3s2piZmshM/BCGHj2JmTjLHZy0bdl0SJ/u74eloX17XPIP+uus39jpc3ev95R633r37kc4DJmQM556d+0wsHfXWtWr5Gz6u5718uWrYd+4XL8RUqqk+b4NS0uWMMvlimp0PVsiLiHRcfiU6MdPsfTOtR4WZUqLl9aY2fOX/J8lP09+/gL24fS5S4QEybZs1sjQ0NBAXz/ljeYTFvnwTmj4qbN+wCc0DzfnTu1aUfPDAX785bc93sfAz8qFP9hYW+aeMfWix1r/XAkYMfkHAHZtWiyeN0O8ukaZtGjaiA1AT/Gihy/VoE4N8ZykZ8nb9vosXbOFDX3748JZk0cN6GUvxszDHmwRJnec99ZWjRU5uR/xwGv/YWzE4QN7lylVQhFfEcHaskH92tVx5o7/fT741t06NasKpsiZWWx3ATZrmhQ3HjnYcc2vs2nUffHqbXsPUfNDAHbsP8zYGNa/h56enjxLqalpY5zd/ut1YNPOP9VEqio9cqcBvdi6y9dvFTMgJ3roGfEE6sFZWes5h5qQPlxaauYtkJCYtG2PD3goblysU7vWiswgKxMRFc3QjIsVVcRPTU1VxAFCe5vm0PUAoEvgaAmmyAlXX1b0IISogdfyi1ZsEFDPqybifrb0sP49ixQ2UmTD78p1woGWIFgKUJloh9oY1q8nI7Jlt7eAmpzoFc8paI1z6k8Uj5z8H2wLNfMKwJaE3mCra2IoFZ+zflcJq14tFaIvpLbIQTEtfBPBWZETveKuB7vVqlRmZ4qxvtfnOD1DXgH+gbdIe9Su/rkiGykpb7BlGJpV4/pFihRWnKIeoUbVzxgyfMKbd0L5iRoPR+qjYJsypkHp+xw7zVonz/wDk6Wvr5n6+Gnsk5jYhMRn0LzxiUkJCYmmJsX7dO/MMGGpkAhMfJacmKRBwG9MXELj+rVpm4DXqIePNHMTkuAm4ws/feywfqAffPsOcjJ45Y3q1fq0UoUMRtL/A2+GMKhh3ZpFixYRjIqbUPTU2aJZurNHPbkEEJDidfpd1Sg0qDX4kERQTvSEJA/Uq1WNRA953QkNY6/adf4y2k1EgUT/OiVFHMp1tm1NokfiZe6vq2giA2Bahk92jYmNp/4JIwaOHtqHmgBI9M0a1+f7eRgv8vnzF0xrnDmfGe6XtyiN913orUdUwaIMU7mIe85dvJaSkhIQnG4qYcMRBpUuWcLczGR4hhvD0+fhpo3qMtGfu+iPvBsN6UD05lnTCRf9g5joBaqNllQJpKZp8SJGT3OD3Nu1skKYzugsX7fVoXM7Ph959foNNiRlMHHC2jgM1cqGi/tS6vda68E2KTTY+q174CxhCEcNDAA+duocmthqiqKvXzs9NroSEEzEAehA9CYmxjzFiKiHrLlo9rSnsfGXrwXNXriCR2BwYSOjU/s2xMTFb9ixf/+hE2KEXvZ27W2sQ8OjnN08aJsjNMfGX+A61dLOkaaERz4k0WMzkqIvU6ok4fCASie4UnkLNgunSnCweGqKMNlCvCfYFYqWdCB6th2IgxcvXzIYyTV8P/+00tY9PreyWhiGAJ7wRUJRq+hh7iyKlEb2Y4ijw5I1m4n+jIkjwH2XDm2ZlgOFJg3q0Ch2NMGmWfcE9eNQnj6wEc201LTLAcFTXBewIRiSAb27MBiJQlgmmpIbwLR45taE6aI3oQPRv3qVwnPGcpx8j0Aj8UOAzUwU0p8luLRXjy9tLcqUwqw508fbtraC9YZ5YLlVRjar6CVlV9I8PZWm0ewZn1ZWjak/o08H/6ammWyAYV2KPik5mWfQTLRZmMPD42SF1frImFU7w0PAmfiyvU1WOpoW8kvUiYQHwVLAhcvXaKhurWoE6xAwKc6JPiGRKMv59YQkD8D54xEa1KnJNwErxQcqnVgNVcUEdRKXUlVMCUDzUroQOVqYHwHnOmny4TQvKx2I/lZIpl8MXuFLCTgWqyABgvqmskLgYnzFaPwGxzmKP+rZyDEmEu80Vwei9/MPJHJNGtYVH3MdKhxaSArgC2cvXqQbfClkeF801LRRPYJlgCcxcYgJZBDEQzhb1Ml7g7kVfVT0Y/52CkwfLUOAvp7cKioTsIya4gHiLU0C5+0QMzzAK/p6NZUV/c4DR2x7OSEmwAvg6cjDic8ynS4T40zzIysUeZJvR7fv9SGsTyqW69/TnpoE6L3NK1BTAKS8yQydFF+DgYEcw6Bsbm5K9HmTS50E4OyTokcIrSZ1Q9nH169fEx1FgGdDZ7seJfU/tu2jtd2mj9eaM4GPTDhi4G5ouLgzxz38ruefWUww+HamibKyzHJnBq+Ez2XSXFRMkS6cN3NihezcKElK4pwubtfL+fXymQBEmAjriS3Hbh1REqMmD/AeDmjyTaCdOHOBkN9wJ4A607i6RKo2BMIEAI2EEA9xI+DYuAR+SABnUfQNM12DS/6B42fOg/eNYFswBRkYPgkjGJVq4mYOGwJjfGle7vxKHX+YL9TSugwcSyE7YksEmVJrI8dEQ69eZTmqiPuprAGcqOhHhEkAr5FQnad+KYBSN8G370rhoB/X+WiUpkALscg5N5kDIsuAGxlswPfjnS5DZGJDQsOw3ZKfPz90/Aw/DaUPWCqoC0wAT8gQPI2JR7l5t7cvJVWAj0wA9gJPlCcC2La1tdf+I6xz10HfwY7dGIxdOW7GXHp/6ET5GNX25k0bwn/HipEPHsXFJx46fprh49frwBEkdoyLFStbuqTUqW/ZrPGFy5qKDb+viQIByRkRAOROenLZuq1XAm6UK1tacL3y1evXuHaJ7D9hEh1FAAQZjiDiMYSL0n+Us9b5qzZ64at1iHWiyj51zFC60CCFCQQ4nUwQC5atQwLvs08qPo2NQ/YRr7C1tSVyjUxFgMKazbvwtbezwZSfPFcLaCJby4qukM6xXWsFo6xJHjqStHh/Uk4RuaHMWQTm7oPH1m3ZAyLzvpvIh1cHj56a5/k74zC7dy9QXWAZY5Ctm9WJMiymophATwhtBU8AaULUmu3aNheXKQiTB5DtWv7zrJUbduC2NFKP+KXREYN6j/2qX9dB40j0bIjyQizjYWSYaZOQ6MdJxS8REQD8E4bcC5cKgLG079vEL46d26KVEBDzkj3nzuA3E+ztdz8thoFF7ggbccnqTYD5AFWwuqAZGh7JHg2is84atb3Xm8YwHrfv3sdFdVhaqIsqlSuy7CAUHbxGczNTM9PicFHQCUaldqvg2bQ2v3H5GfUyDM2aNJKSkWLM7fsOLf59E711OMcuk0fZNG/CYw4Y7Yxy26Ftq7yPncI1Sgwd3r6qUoVyPI4MvPugL8uZfz34P5NGDuYxM3cT3/uOYNgDXEgS30GEetHtin27d2ai37LHu19Pe6lwGlFIH4dO/oE3Ix5E4wSjIM4nQcFSyL0w3GGaM2MC+qF20ANFV6GchUpusdWQMGfIWEgwS87DEaD+HzVhP1CYBcPQIWf90kveWvnH2YJR6d7ZFmVhgdyBjxIgzk3Xjm1hEZnphvmVepFi+lBirFCBu38VMwovhJY/RY/jNfHrgewh4QfT02YXgBsOfQWT6+Ob7mV16dBGPZFNXul3UgY5dhXPyp+ix3MytwoA/JybIaHiJ1ffA70Bfxr4lg1qq/QsgAyTxgrImNVMW24u34oeD+8yeSSTr+uCZfCJGJyD36vXb7LgA74Npmuur2ZESVLUEAe4uC/BKDw0D7fpWoOe/Cx62POVv7ji+RGpea7SFGNz9jlw5CSbCJUNb2fy9wsCb4TIk1qyejPsM3B+m/89oj+tyPlZ9HhgeIquU8cAQNLxxN+ZySKtspDqxD0cDCFZAq8X95Cxkbt1/EIKGf1YiBkYd5dJlKIQ4+dz0eOB+/bojCvzAGa5L+GL4GJZSPWwGM3I0AAX9lf8sd15nJNMOgGqCQuBlNOAng6d2knRRP979etl+HinQ1NGDylvUQa30oxyVH0d0scBubb9h0/ii2yVvJODTJetjTVCBEpVST3ae41mpZj48PuR4QkIvo0IHCGVrrgtEL2uJJltOvlf12dbJO9rQoHo35ekRev8CxRER86VsWq3AAAAAElFTkSuQmCC;" vertex="1" parent="1">
          <mxGeometry x="923.48" y="710" width="57.96" height="23" as="geometry" />
        </mxCell>
        <mxCell id="zQXd-Jtvyqu_DLBY98N6-104" value="" style="shape=image;verticalLabelPosition=bottom;labelBackgroundColor=default;verticalAlign=top;aspect=fixed;imageAspect=0;image=data:image/png,iVBORw0KGgoAAAANSUhEUgAAAH4AAAAyCAIAAAAV2/jIAAAAAXNSR0IArs4c6QAAAERlWElmTU0AKgAAAAgAAYdpAAQAAAABAAAAGgAAAAAAA6ABAAMAAAABAAEAAKACAAQAAAABAAAAfqADAAQAAAABAAAAMgAAAAC9laIOAAAOI0lEQVR4Ae1bB1iURxMOcGhUihUVa9TYGyrY0F8kapRgC3YlYsfeUCPBiBKiUYNdYguJURQbGAEVSzTGxFhREVFUFMRKLzaEvGRhbvnaHeQihp977jlmZ2dn55tvd9ouellZWe8VfwpDA/qFMWnxnNkaUBWrQUsNZGS8iYp+EB37qJypSXXzKhXLl9VyoBxZserlNJMHf+K3PxcuWx+fkETYLh0sZ0xwrFOrOmHyC+gV23qNKtsfdGzB0rWtmjce2LuHoaHqyC9nDp/4jY3a77Oq3gc1NXKQJChWvaRa1Mgnz+JtPx3dtGE9nzWeJUsYsg4v7x+3+u4HXN28cuD29fr6BXGZBRmjluu/A52/HPaj34HYx0/zK/K5S9cw5NqNyNWbfqKx4xwHlCldCs2Y2McXrlwnPIBHT5757PQ/e/Eqj5SE/y9UHxhyymnaF8vWfZ+amiapBQUk/CrrxZsj4wy9WzRrxPAXQvOoPiEpecWGH8bMWOAffEyBLbqKvuqvXL85z8MLjzp74sj6dWsrq0Pc2651c4a07dROT0+PCEqWKMHgjDdvCAmg0Yd1Zjl/BsBtydrTZy/yXQJYdf/Bw1HT3ARYvgnHgqaBgQF+VQYGJUoY1jCvYmnRtJdtJxNjI57yHYRhqafM94Rgndu3HjGgdwEkbNm04aGd3jAjAPjhl66Fs2bNalV4PGDHgX2wFX45c855zuK9W73k3rfe3Xsx9iMmCwZr2exv99HQ/nYN6tXWkv4tk718+WrkVFeY6fLlTP19Vpcra6IrAcJv3Rk4ZhbjdurAD4j0BZwTk1McRs14/DQOU+/evMKsYgUBAZrZEc4fF0LT0p+nP39x6PjpU79fICJotn2bFiqVykBfH9sKn/sPHt2Oij555hzoiWyFu0v3Lh2o+e4AX36zbl/gUcizYdkCaysLHQoGO3Hucrb7dZnk5DhQejP9eenq6OkLQANLtdJjrnj2bGPSrnUL1gE7xavewb57s0YfisekpqX77g9avWk765r15bL508cN6ddTTFmIGCwRpnfs946WLTVKci/moV/AISzEUUP7K2eqiOuZ3h0+6Sand0xnZdEMISn23LFf/wi/eadR/ToCGZTcLJa7gJo1jcqUHjvcYdO3C6nXc+VG3/3B1HwXgF0Bh5gYIwf34d2jpGyZmVkTXNwRw2zb/fOen49I0jDkzdtRWGqAh31q5zbLWYESXU5D+jGCtVt3iCmVVA87Ix5AGOyVzV6LqAntwxdRs3CB5JRU331BkAFRYPcuHTUKE3H7LiJ0Rla61Pty9E+exY2dtRC9k0cNmTd1jL6+OuCRHNLVui1sPbpgSxBoCWiUlKsxSWvbqhlv5Zev9xFwL6zmwZCTbOqRg/tSCqogDMubGAGshCRlSmqa8xwPlHHc50wa/9lARgPviH0gSQ8kzMbIQX1Z7/a9gQIyJdVr3KfgNdFpMHFEZQO+hZqFBWRmZsJusNkpKlcWBsabCJo0kFD9q9evZ7gthZYRUyD6YMSIO1zcV/BjiQkBWJ0MRmwCwQgPQEn1Glc9xtetXYPtKcYUlSaee6HAoWE3yXo0rPeBRhlQDcaSYWSWLZuWLJmTK9FAeALkR6gNbPjGjd/l12/eAU2tGuZEKQY+rFOLIRETRuTdHyoxNWE0WLJcOhj9oKOnWOvE6T8hKDOCT+MSnsUnJKekwfImpaQmJ6cYG5UZ0LsHo0QscS86NiUtHRsZBPiNT0xG2kLLBLLGPnqSPTY5FWEyvojTnUcOAv/wW7dRk8Erb9GkQc1qVXMFyfkbFhHJoOaN67//fklBr7gJQ0/Idm1ygj3CAFi58Uf2gKs3b1+31ReYN5mZiMWfxSUAFgvAj0VCitfJIiKYNcSQ1KukeiJSBpo0qEuqh75uR91nr9ptyRpaTcSBVP86I0OcyvWw6UiqR+Fl8bfeNJABWHSjprvxdfPJo4eOdxzAk5Hq27RsyuN5GC/y+fMX7Gj09B8XqauKWQW87/f+LhhUNasIkxt87PT3vv6MADEiURJQvWplgiWB1i0aM9X/fj6UD0Z1oHrTvOWE86HXmeoFpk1SLAVkZlYey8gox892h95xTIHYmmHWbtlh36OLeeVKxOrytRsMVnCYnewdiZ4HXD1XU9Nv8wos0rv3YwgjBmBtxAZKQNa0YU5udOlqON+lA9UbGZXmOcbklvqWL5wdl5B08cp1nO/wBAwuYWh40t8nPjHJZ1dAQPBxMUG/nrZdra2iomPhymiZIzXHwl/qNtPC1oGGRD94RKqHHSBDX7F8OaLhAS2D4GpVzDAKcQQfSvB8tITJF8IkwK9QtqQD1bPKNcnx4uVLBqO4hu8HNavt2BckGYFBJnxRUJRUPVaTWckKqH6McLBfxdXK504ZDel7fdSZWTlwaJVbv8W88BkkiXHeNUF4bEoUXtDMysy6eDUcoQvrgiMZ0r8Xg1EohGeiIf8EMC6jXppwXfQmdKD6V68yeMlYjZPHCCwS3wXYxEhD+bMsV/bq87GNWcXyGLVoziSbjpbw3nAPrLbK2OZVvazuqOCVbdlzPx0sWxI+F6eDv8bGajEgsC5Vn5qezgtoIlosmrI+5u14HrJww9wIAXvi467WYjrUlwiJggfBcsDZi1eoq3GDugTrEDAqw6k+OYU4K8X1RKQMIPjjCZo1qs83AWvKD7QMYrO5aixQp3IlVYWSAJMQlpfKhajRwv0wvG5/+XSa15UOVH8zUh0XQ2jEUgLRxSZIQKB9U7NB4C7TaczGb3CS4/BHezEKTIkEmMbqQPXnQsOIHW5MiLe5Dg0OTSQH8AdnL17kOHw5YkRf1NW6RROCFYBn8YnICRQIxF3YW4Tko8F/qnqc8SMpJdZwfQQToK+nNAudNRO9AqBxA/GeJpmLdiR58oa+SX3Nhn73gcM2/ZyQE+AFSDKURKakqYMuo9Jq96OoFElOeZE79wcRApdSBveVODDRUyyuZrxRp04aX4OBgZLAkMTU1Jjk4V0uIQnA3idDjxRaY2aEgVR9fP36NfHRCPBi6GzV40idkmxIgGqqZM0EMbKCfHeiohV689vFr3r+mcV8wm+pXZSlRU59kZHhlUjWI1GzRLnQY96UqlzyLOYswKSmckEXt+qV4nrlSgAyTKT1NA1Oy3AkRk0e4CMc8OSbIDt++iwRv+F2ACGzuFprphQBUQKARUKKh7wRcEJiMt8lgPMY+ubq0OBCaNikeR6IvpFsC4agAsMXYQS9ck3czGFdEIw/mlfav3LbH+4LZ2m9hjpTyo7cEkmm3NymJuqk6dWrPFsVeT8da2B47OMnYia8RRJcehETA0OlG9wbkCRgyPNcdEBDYIVY5iwoySnw0dh1I1cMxH580KVCJTYy6j6WW/rz56jS8Yxw9AFPBXOBAZAJFYK4+CQcN+8NDKGiCuhRCcBa4JnyTADbdLTyCzjMkHsOhgx3+ITBWJUT5y6m9wckSoM4bW/bujnid8z44OGTxKSU4GOnGD1+/Q4cRmGndKlSlSqUk9v17du0ZPfu+HVNHAhIz80AoHeyk2u27Lh09UblShVwJYAoAeCo5HrEbVT/iZLvVYbBkBEIMh4VQpTB41wkB3v/4IevZBdD4pR95gRHutAgRwkCBJ1MEUvXbEEBr1Z187iERFQf8Qo7Wlmg1shMBDhs+mkPvj1trTHkK6+NAp44cWWHrtDO0T2bBb2sSRE6irR4f3JBEYWhLFgE5d6DR7ds3wcmHp9P4dOrg0dOenh9xyTM790LnC6wijHYNs4bRKlKaXGYQE8Ia4VIAGVCnDXbdm6rfEpAo1DtWvv1/A0+u3CNAqVH/FLX6GH9nT8bZDdsIqmedVFdiFU8DFVqn4RCP3YqfomJAOCfMPJutFwCjKlDTv6Osdh27ss3QEEsSvZaPJdfTPC3n3+1Eg4WtSMsxFUbtwHmE1TB7IIm/huCPRpUZ5U3a3url7zhPG7duXfnXgw8LcxF7RrmrDoIQ4eo0dTE2MS4DEIUICGo3GoVPJtkc6rr1zgvQ9f8aWOpGCmm3OkfvPK7bfTWERy7Th9n3bYVTzlkvAuO24J9vQOPnsQxIbpwD7CapuMR4rD3YAirmY8Z/um0scMJD0C9mnjsvwTDH+BCkvgOIsyLbmfE/yAw1W/fFziob0+5dBpZyAD77qFhETEPH2MH40CcL4JCpMi793GHadHcycDD7AADQ1e1spmW0mKpoWDOiDGRYJRShCMg/Q814T9wMAuBYUPOnMs58paUH3sLTqV3DxscCwv0DvoK5cpi39h16wyPyFw33K/cixTzhxFjBxW4+2f+98ELT1M0VY/tNWXMUPaciIP5B84XjDAc9gouNygkJ8rq9VEn7Tls88u5kzLMwU48qmiqHs/JwioAiHMiIqPET649BnYD8TToLZo11DKyADFcGjtAxqg2UrW5Iqt6PLzr9LFMv25L1yAmYnABfi9fi2DJB7v8lH19NTdLkuOGPMDVcxV6EaGtcJ8jmfQUZdXDn+PSEp4fmZqXd/ZhbME+Bw6fYANhshHtTP9iadiNSGVWqzb+BP8MmnVLvkD2J0lclFWPB0ak6DZzAgAUHY//qi4WSepCDon/P0AXiiWIenEPGQv5k27/kyMGHhMxB+PpOo1KFGL6Iq56PPDAPj1wZR7AfM9V/CG4WBdyGJajGaoMcGF//fc7XSY6KZQTYJowEVg5Delr372LHE/g32pcryDHv9o1Y/yIKmYVcSvNsECnryMG2KPWFnDoBL6oVikHOah02VhbIUWgUpXco73VbFZOiHcfjwrP1fBbyMCRUulK2mLV60qT+eZT9G19vlXytgYUq/5taVo0z19bfa6dSRJsogAAAABJRU5ErkJggg==;" vertex="1" parent="1">
          <mxGeometry x="924.06" y="756" width="57.96" height="23" as="geometry" />
        </mxCell>
        <mxCell id="zQXd-Jtvyqu_DLBY98N6-105" value="" style="shape=image;verticalLabelPosition=bottom;labelBackgroundColor=default;verticalAlign=top;aspect=fixed;imageAspect=0;image=data:image/png,iVBORw0KGgoAAAANSUhEUgAAAIAAAAAyCAIAAAAbXkTiAAAAAXNSR0IArs4c6QAAAERlWElmTU0AKgAAAAgAAYdpAAQAAAABAAAAGgAAAAAAA6ABAAMAAAABAAEAAKACAAQAAAABAAAAgKADAAQAAAABAAAAMgAAAAAiiV8DAAAOpklEQVR4Ae1bCVhVxRcXeGgaiysqaprmghsioub2F9fUcCFXzD1TNNL6SypGuSBmWbhQ4pbmHu6koOISZqZh7oiAKO5LCgiICgj94DzOG+67776rvtSP5OPTM2fOnJk7Z+asg1lOTk6RVz+qdyAzMyslLc3GysrSUqN6kBKhabgozVAo+naEHwj8cW1Scsr99Af4oPn+k11bNjXJl5mbhEuhZ2JhYV7FvgLtPj629ltvmuqTzV6pIPVbOXycb+SJM6VL2UZsXaF+lDLlqxugvD+63kcZmdh9tFs3d9Zhnxl6JQC1WxgVc55IXRzrqR2jgu6/IoCjJ6JWBodcv/W3ij2RJwEH6mjUwEGeQsCG7T24asMvbDOEHin4n/CC4MNM8gvApzd3blikfDnpHqhrHz56EoQwAFUrV+QRN2/fSX/wsHrVyowhIDziUHjEH1vD9i2fN8PG2krSKzYL/w04dTaWdn/CmKG1alQTP149/OhRBhmAli5ONOrEmXOwyR37jOwx2GvODyskrL6Y4AlRxcYnjP98dkZmpqRXbGouX7sBRiJKAlPEYWFhAbzGwqJoUUs4ZC5O9bu2b60sWwmfF9K8fSfRy8cfU7d523lQn+5PvQadAXCqDya7fz30/y+/6dW1PXZ51/7fN/6y+9PRg83Ndae5pI31An+fgZ4TIbbpcxbOmORlZmYmO7sm+3H2rb/vyvYZQkbHXsAKZgYsdu/WwcO9W+23qhmifLF4HNtxU2YlJt3DNvlN+tjcXH4L1Czy6MmzROZUv862sH2ff7XAb5JXi6ZO7dyHA2/1eglx94myYd1a3mOHffP98m0791e2rzB6SF/ZiTTV3qi05LupMBfQZTv3HTzwx19Mh/19u4mjRqOxMDfPepz7c/nazfiEKxGHIsm8bN6xB7/fTvPu1LYFj3p5AP95S86cy3VdZvqMK1XS5lkW9uexUxj+eoni+w4eCVi0aq7fxPatmyenpBLP4R69ZJkP6uP26++RuATf/7gOkbPsSS0QiJ2/eLnX0HHMa23Q1w0canKTgbT76eu2hM5fsoYxPuM/HNCrCzdfBgAHpeeQj7ES6P2Ny74zpAF4qZeu3gjethNh6XAP97KlSzIeAG5Sk079GLNozpctXBpREwcxIyNTQboHjxzz/GwGiF1bNZ0/czIzYUCnthjFAI4+wyKAGzfy/d64N4z0n7t43ZYwbr4MwM/bdtIyhvbvYXT3s7NzRntPg58K3xEKXbL+qNh4ETNqwrQvZgfCugCJO6Gw+yBo4eJUtYo9gP0H/6TrKLICrCQAaB4Jtdhs7uy4NGA6YyAD+GTcfLFASmraus2hWAM2qFPblkYXExN/8er1W0RWovhrEvq/TmojAJz9McP6o3dL6N7h430RG0so9ZswPMMHaBUUFJEMgT6KMfqGhbsIaNa4gaj99b0xCf1za24Pj6C5hvbvWayopdF5I4/n5hjop36dt/JB7f/UC0sOzeM5tB/0LTouXbkec/4igITL1+CSSIaITbiLOAfAQB1duHRV7AKsdMaN3lyMpxNBTOGQ/Xn8tGSC59/Mzs6GJqF5cyMvFT+HIk8wVb3aBQSAAsAfeSEYp4AqVbAjYtqfuYtXr96onY6ZiMBrrxVzaZTrvOJHf3+UBGD0BoBjjWpVcDTymOf+g7vJ8IsCTkbFsj6poyJvnJX1GAeHVoudKlasqLjyc3nHHBhOAT189IgI7CuUS7qXsve3w907u4pD9GGnhtrshShpIlNKRah0m2EMQvccIHYwNTBo5HH/fTfpTmJSSup9aOR7qWkpKanWVq/36d6ZKOFv4Ban3k9PTcslwL+JySmN6teBWiMCOBjXb97OHZuSBocPv/BGoAHAPzouHpkZCN6xXu03KukSAzSQgyZ44jh9hFT4FwaAe5s3cWSYgDPRcQTwJvKtirtwaUPIbizjnXatJKMkTce6tQiD/YE3T1EtYZQEIOFiqFmvdg0WAHYtPuFyzepVQez71QI+WTyWBZCZleU26CPGE9DZtSULAAmcGd8FSQhgcmD9EFsx/qMRHqMG9+EmABZAk/yLL/YSDHE+ePCQirEHDx9jggp2ZSD1InlRa0W7slAyicm5c0GWLGnE/5+MHrx45YaRn06Fcg/65gu4hcxBFnCoVYPxUTHx4MZNEwjAtmCyCUEjCQC6mKd5CiA7R2Y4XEDsftsWLr8eiiSegcvWunVuay+k2JCloS59c0p43LbWboNllzTFfz7jg5d+61Cz+ggPd7iSDjXfZDwAODYD3btFx10AgURliWQMw7NCOILUEDDn4i6KAlCyATxeGbCyKiD/q9dvEv2cqRNCVgVO9R4jO7yopSXqSltWzOvRpZ0sQa8u7fduWrps7nTRxiBrgksQMGOiOOTKNe2MQCKeZwNQtnQpkYxhle4yGVsoMacGdfRVGfYdClPN7tO8uFsEJOVdKV6MCW4A+VjMkW0Urip+33yj0trNoSR8piEAO4tfJCmRXZF0oYlvsytWxq5smUG93eYtWc0EE71GIELs2qEN6T1waCwk6HG6mdK64MlgPC7ogZCf0MzJzjl2OvoT39nUBQMzwL0rwUg7wmLxkGcHbK2tiQnMocjNBALIyMgSOYoWhvASHSUSA8YTDwlG0iwppHF6vONqV7Y0CKZ/Nta1pQs+BmZDfCFSUAAGd7CUrQ3Nkqvx83/g5jM+H2ey/22stYu5KxgwcDeBANLS08Vl2ugdHGNpSLKFIg+DcJ2a1akP90PW90CeigcbtY2gPJKXZaMhdWvrTCUzMRVga5N/A/JTeMTZBDYAbqK4ygYOOhOvnUMxpVGkiEp3N5eZbEJRnD0t790OYfSTCiIlYEQAnP1F3hdmSUJgwiafBnjnIlsTCCA2P1Qhvs6OdcUJAOsrJQmB+qZxFSE89DMayXOQhQWgxKR+GU9BCaNCoxAHiMNNIIDI/FwV+DZuWJdFzdOYUAUxT0OAWKR7+FAbshoiPnbqLHc5q3vrcCcxmcsAPFYNgIiSyFgXUfNZBYB3BghoeQUwjAwzYG6mNMsTvQwzeplEC5QieES8GBEQDUA9IVYSaUR4Q8gu117DEENADCJeDcyLEVeIgYpbo4Lx+i2hTFXZvnz/nl24yYCZYi0w67Eu4DIqDDwRZLaygK2t1tahVzTI+sRQBWwAEH6r8ejXbNpBfDIV6+z6cwHD3qetTQGvz8j3yPJiJAr6y9dt5ea0z8bqByzoZfXHlCJwIeGK2HxGWDxfygKIjtOlgFyctAkomh2C0c+aoQs1WiQfUQ2uKATeKhfMKkhUkhir5IYq5xKQEkBigKfv/W7HpgU/g7vErCp4ik3QoMrKlI+F28DIHCGlgScEjJcFoKMQGFLJGo+ZZWkIWcAANNQ5Dii/jJ3kh/hO/wHo4L7d8avAU6Hrbr7WqlalkkimdAMMKQQYN1Tvunp4ctCPuBQBqshXhMVLhwqq2IXMARdPgL9+SxcWMZmoo/A2gPGGAE4BIVdjiAb4o4LvwEOglyjqliT4FPio6UJRAc+TiNKhVnVxiAY53vMJl3H00h88wIM6sQ8FFpgOKBD4c1gZcgx3E++h2L1pR7iYj0QuAedCwefDg4DgbbuI88bt4e/3fpdgnNAxE2ewFIHEgxfU+ps5N4S/jxmv3bidfC81bO8BXlVwyK52rZqWKF68XJlShvTA200aHTmWWxcSzzhzYCA9P2LA7rPmXLBs7fHT58qXK9PbrRNTAsDjqrMx8aguMKXYaxSOvZDANLXyUsXc1MCN6f+hN7dFIOinYPyKGAkMYeJBEuoBErykCQK4p7QdsxcsO346umpl+7tJychoQpAtmzohf0lKAwOXrN6I3y7tW2EInh5JWKHSS8Ve7NGejUslvdRkjx6VLEjRkOPEupjcSlBu2r5n2ZrNYOI32UsMyrbvjvALWEQrfLr3H6fOaosK2DGJtdcUV1Gy4O+EesV45H5R6W7fphmnyJlAFkDuLHCWz8IVP6N2inSmWEEdMdDdc0i/bgPHsACIA+eXoIuBsdTobBUKCbi1+Fd2LiDrCg7l+YtXDAXPmBrPN0GPKzhtzkK83iF/GqlW8UjBGk+eORfmFzkoHMd5i1cBVlNnFpfHGfJuHdqIeMAF3gVJ+kzehFFBFQmFadhhKJBqVewp4wjVB/8SEQoyVnBjgISkDZ1cNav6eMos1J5A6TNuJCc49Qeu3xo2d9Eqlj3c6CnjP2zVrLFIOWCUN5IHYeuCduyJ8P0qEF071wdVqlhepFGGcbfavTeClPZvv6zEq0WRXneyROy/BMNOoC6BXwl/KBwJ5hmbfbt3JgGs2byjX88uhkJxRC193DqdjIq5euMWbjPK8WJiFWvASzU85pk+8SPgoYiAgeqrWN7uiZYHp5Z2H3ZFsvvgo+QFPdE0LxUx7ApVnaBVDkUeV1gb7hmMDarqqK5Idh+jypQqiTvUrWMbWEoy7NhEQ+I0NMuKn7dRl2yUWjgFgKvm9YEHfTY8ZkNbYxSPV2/QYDDIoeFaT6xrh9ZGR4kEKFCT9wExy1qjwikAbAG5XgDgC8WcTxA35UlhmC543hiF2qRKv4OnWBmsfTLkObQvI0Wg0AoAHzll/Ej6VN/ZC9Q8IxT3RYRPnImhYAX+D/B4CKQc4vFY2CGqm3p9MFD0rJgAQGEWAKz9wq998ZGI7wKCcovAT/cTsms/DcSTdHhE+KOXqLxX78rcrt24Bf8VNHhF8MHA9wwRF2YB4JvhU/p+OhoAEpn7ftMlnQxthyz+8F8ngUe6Bf4x3k4jNHm34/9kKRmJyHnC1DlwcJG8w5/HKNjtQi4A7EjfHp3x5B+Aj/88sQTPm2UUoMjOUmOBv0b5Yfl67zHDjCYkEF7Af0U0EzhrinJl9LnGAUY/9V8i+GTUoAp2ZeGQWD5V1Rd/6ILMHf7SCL/IeqlxhBBU4gHH6CH9ENwpf9RzjYSVl/Iy9yKaPR0dh+gdgZhp1/lKAKbdzyfmVvhtwBNvyfMd8EoAz3e/9Wb7B8m+rbeIKOEsAAAAAElFTkSuQmCC;" vertex="1" parent="1">
          <mxGeometry x="923.06" y="848.5" width="58.88" height="23" as="geometry" />
        </mxCell>
        <mxCell id="zQXd-Jtvyqu_DLBY98N6-106" style="edgeStyle=orthogonalEdgeStyle;rounded=1;orthogonalLoop=1;jettySize=auto;html=1;shadow=1;sketch=1;curveFitting=1;jiggle=2;" edge="1" parent="1">
          <mxGeometry relative="1" as="geometry">
            <mxPoint x="495.01000000000005" y="668.75" as="targetPoint" />
            <mxPoint x="494.57" y="712" as="sourcePoint" />
          </mxGeometry>
        </mxCell>
        <mxCell id="zQXd-Jtvyqu_DLBY98N6-107" style="edgeStyle=orthogonalEdgeStyle;rounded=0;orthogonalLoop=1;jettySize=auto;html=1;sketch=1;curveFitting=1;jiggle=2;shadow=1;" edge="1" parent="1">
          <mxGeometry relative="1" as="geometry">
            <mxPoint x="571.5699999999999" y="561.94" as="targetPoint" />
            <mxPoint x="541.5699999999999" y="561.44" as="sourcePoint" />
          </mxGeometry>
        </mxCell>
        <mxCell id="zQXd-Jtvyqu_DLBY98N6-110" style="edgeStyle=orthogonalEdgeStyle;rounded=1;orthogonalLoop=1;jettySize=auto;html=1;shadow=1;sketch=1;curveFitting=1;jiggle=2;" edge="1" parent="1">
          <mxGeometry relative="1" as="geometry">
            <mxPoint x="1120" y="677.0899999999999" as="targetPoint" />
            <mxPoint x="1090" y="677.0899999999999" as="sourcePoint" />
          </mxGeometry>
        </mxCell>
        <mxCell id="zQXd-Jtvyqu_DLBY98N6-112" value="PolySC-DPO" style="text;whiteSpace=wrap;fontSize=25;fontStyle=1" vertex="1" parent="1">
          <mxGeometry x="1110" y="713" width="300" height="30" as="geometry" />
        </mxCell>
        <mxCell id="zQXd-Jtvyqu_DLBY98N6-114" value="" style="endArrow=none;html=1;rounded=0;sketch=1;curveFitting=1;jiggle=2;shadow=1;" edge="1" parent="1">
          <mxGeometry width="50" height="50" relative="1" as="geometry">
            <mxPoint x="1290" y="1010" as="sourcePoint" />
            <mxPoint x="1290" y="340" as="targetPoint" />
          </mxGeometry>
        </mxCell>
        <mxCell id="zQXd-Jtvyqu_DLBY98N6-115" value="" style="shape=image;verticalLabelPosition=bottom;labelBackgroundColor=default;verticalAlign=top;aspect=fixed;imageAspect=0;image=data:image/png,iVBORw0KGgoAAAANSUhEUgAAAMgAAADICAYAAACtWK6eAAAAAXNSR0IArs4c6QAAFSJJREFUeF7tnVuIXtUVx9f5khljaqI2Ru3YaLRqUUFFEihWMENBTSlVUJA+FPHFEmVGBaFvmvhW8CEZiemb2DwUqX0QWrSCzASqSBWbCApeMMFoGhNjzGVymcTvlDXjnjnz5Zy9195nr3OZ738gzEy+ffblv9dvr7X2uXwJ4YACUKBQgQTa1K/AE09sW2d60e1213U6nQn+e/PmDdM/cdSnAACpQXsG4vvv02e46SShWTjyupKmNJEk6Q6GBsBUP1kApELNDRguKOxdSjeNjT22scJu93VTAKSC6Y8DRraj6SZ4lAomjj18Nc30byujo1s3EiXT4VT8A94kvqbzawQgigrrwmE6DkgUpxAeREvcauAAJFrzZ+qFB1FQ2BeOq68emu3F6tVDtGfPPtq9e59nz+BJPAUTFQcgIpnkhXzgYDDWrVtLWUCyLTEke/Z8RePj74k60Okkw9gKFkklLgRAxFLJCo6OvpC6Sg4Pr6Hh4bWuYvM+Hx9/1wkKXzN5/vlHh70qRmGrAgAkooFIvEcIHKaLEkiIEGpFnFIk6THFdHmPMnD4QDI29igWvkgTCyEjCenyHjHgkEKCXCTSpOJCYTwhXYA8++yGeI0R0Ysvvlq404VcJJ7U8CCRtLSFVzG9h+ku73AxJEUHwqw4EwtAIuhYtfcwXX766W2FvUeYFWFiEWLFEdEGiIb3ML22hVnYzYozt/AgEXSsCxD7ti+2eyNMLbZ5Y4g4MvLCeNEzHpoexJaHIFGPMbO43T2KijZAHn743sJbSco2DkDKKug+HyGWWyNniboAQYjlnJrSBQBIaQmJkINEELGhVQCQCBNjA4Tv1OUwS+PALpaGqvPrBCARNOZnzrvddLyoKq08BNdBIkyeowoAEknjqq+ku+7sxZX0OBMLQOLoSLZEnZuI7UVs3gMXCSNNKq6kxxPSFWbFzEXsuQePCRcJY80sPEgsJYmcXiTGRUNXaAU4Ik4oPEhcMV1ehFsrA4nbc8B7xJ1RXEmPrafTi5gGfUBx3do+NwiEVrEnFCFWbEUFoVa2SQZl9eor5t2OYl75MzHx7nRR6SuAsHMVfzIBSHxNSRJqxW4Wz3/EVnSmPgCio2vFkCC0UppGAKIlLNdbhSeB59CcQXgQXXV/qN11ETGkE3jeI0Q1/3MQYvlrFnSG67l1aaUMxqJFySa8YlSqWLlyAKScft5nMyhpmtzp+y1T5qvY8O1S3pKXOgGAlJKv3MlzsKS3EiUX5dXW6dCTRMlOeIxyWoeeDUBClYt4ni1HQRIeUeiAqgBIgGixTwEgsRWNVx8AiadlcE0AJFg69RMBiLrE7gYAiFujukoAkLqUz7QLQBowCQVdACANmBsA0oBJACDNnQQA0ty5gQdpwNwAkAZMAjxIcycBgDR3buBBGjA3AKQBk7AQPAjfPm7G0e12Z39vrrzSniUPEdHqgtIvEaV7pDU1tVyn05ngvrXtlplGe5CZ5ym665Kkc2eapgsIiKaacZX9SjcxNE0HpnGAMBRpSs/wVAGKKg22zrbSTdx6E+9UbgwgBgxAUaeh1t1280BpBCCPP75tHGDUbZxNar85z9jXCkisp+yaNLXoS0wF6gelNkAAR0xDWsh11QtJLYCEhlTXXjs0awnXXXfFQraKBTe2Tz/9ij77bF/QuJIkmUgSquU5/EoBCUnEDRTr16+lLCBBSuOkRijw+uvvURgw1XuTSgGxfclM78wxDICiEfas2gmG5bXXZl6xKjmqfgS5MkCkYRXAkJjJwivjA0qVkFQCiDQhZ49xzz1rFt7sY0QiBaSQcE6yZcuGYVGlJQupAyKFY2TkXuQYJSez7acfO3aSPv54L73xxvv09deHHcOpJh9RBUQCB4dUDAcOKMAKfPzxl3Ts2An64IPdtGvX57VDUisgWnCcPn1mVlj+/dSpKVhfwxRYsmTwnB6dd94AHTp0lPbtOzT9mcSTaH8nihogEu8RM6xiEI4cmZwWNgtIw+wC3XEocPjwMZqaOjtbyg2JbqilCMgLqU2LWAn50aMnZsGA9bVfgcnJU3T8+MnZgXAuwpDYDs1dLRVAXN4jBhwAo/0w5I2gFxAu44JEc1dLCRC799iyZUPw7JpQCmFUsISNPpHDKw6zeg9XqKWVi0QHxPWtSmW8B7xGo207SueKAHF5Ea0wKzogrvAq1HsAjij214pKiq6B2LyIVpilAEhxeBXqPQ4c+A47U60w7TidLALE5UU0wqxKAQnZ1oXniGN0barFdhV9+/Y3C4eiEWZFBSR2eBUbjr17D5L5Z1Tmv7PHqlUrp//M/jS/t8nIJH3lsb/99kezRXu16NWB/7799hslVZcqYwOk6jCrMkB8w6tYcBgjyJt8n1k0hlGFgfj0y6es0YChKKMHLxj8T0sLGyC2MEsjD4kKiO2Wdl9AykwgGw0bQXZ19DEkV1k2DC3jcLUd8nmsRSKvbY2Foy8B8ck/yngPNoaXX94RYkfe5zQdFE0wesWKqYXrTl5bHhI7UY/qQWxPDEoBCYWjSmPozVnYOJqWp2h6UNtKEgOUvgREev0jBJC6jCFrKDEMw9uFFZzAHrRsiFqmL7xYPPjgncFVuACxJeqxd7Iq8yASQPj2Eb7m4XM0AQ7T37ohqTK8lMwRQxLiWQFIgbq+3iNkpVxy+UpafsvcViX/nT1O7Z/Z9j29/yCd/vogmb8lBmG2QetI4EMXCokerAUfR3bNbQlr6gFACtT1CQt84DBG0AuDdJKP7PzIyzjKhhjSfplyvnCU0YMXDAbGBxZfTwJASgIiNYgyhpDXRR9Qqgq3fMKqOvXwgQSA5FifNLySwnHhLTfShbfqXPWVglIFJBJPGhuM7PRJtfDxqgAkEJAmwGG6LjUMn5VTI7RiOC69O3xHSdqnA//a4czXpJAAkBzVJXfsPvfcK9b50lwpQ0MuqVFIDdEn79D0oqF6SLwqAAkAROI9eKWUJuKdwYHpXpif2S51p84Q/5McnLTy6mk7NLyIa7HwgcOmBY/LRw+JZ33qqQesegGQHHlcO1hlDYKNYObfYC4URTN29vjMm1LOHj9ROKkxjEICo9R7SMIq1mLxBT+KrgX30RVuubwIAPEExOU9bKtliCHYYCkCxQWJyyh8AHEtFlc+lL9CV6UFj+WLl+zhsM2rAhBPQGwGYYNj8McXea2QUiNlr5IHimvldIUWkvZDF4vFFyyd9hixjyItXKGnLTcDIB6AhBgEr5QMh+aRZxguo4iRi9gWi7zQKqbXKNKTcxTWozdvC10wAIgHILZ9/jzvkV0pz+sQne7KMBlIiM5YX3WXX8/Ut9/NMwybUZTd0XJdFOzVQ8trSEPQ0AUDgHgA4hNe9RrE8kVEty3j71t3Q/LRCaKDso2rcyrLQuIyijJhls2b9nqPquEwovR61pAFA4AIAXGFV9lkNM8gDCBuPIg+nAwHhOvPQmJLUMuEWdLFIk+Lq5YQnRUsFDyWQ2eITgk9b562WUhsC0aRRwUgEQDJhhNFq2WVgHD8zZC4tjlDwyxXeGUWi6L862dLiFYtkSwVRDu+IxKyVFihWTBcHjVvwQAgQkAkK6YtIa8SEB6SgSRk1XSZrhSQogulVQMiXTAAyA8z73pgKu9CoQ0Qs2LarpxXDYgJtU58sa/w6nqoB7GFm8ab2vKOqgHJLhi2PCTv+hA8SAQPwoC4EtE6ADErpy0PCUnUJYDYFos6ADELxuH/7Cp8fgSABHoQW0hhdmxc913VAQgPl5PUz7f+pTBq0gBkxR1rrBcC6wKEF4yjH33q5VHhQQQexAXI0P3rnVeG6wKEh8cepOhx3ZCdLNv1oMt/8ytaftP11jSmLkC4U0c//IT2/yP/laF5IScAKQnI+UOX0hUP/tZ5G0mdgOzd/nc6ue9ArtHGBuQn991Ny35+TWMBmfz8C/rqb//M7R8AUQixGJBVv7/ftfFDdQLyyZ+2RQ2xbB7kp7+7l5ZeOdRYQL7Z8Q59+85/c/uHHCQQED7Ntot1/R/d31J1yQDRRYudHE0X4FtS9p6WlZWUig2ILUlf8cs1tOKOtY0F5NC/36VDb70HQGxvVoy9zSsBRGLIGmV4m/fLv74a1YMAkDk5+/LFcb7XQSRhhYbx85v2XFeZbStm6HUQ26YFh1esh+24cLH8xs3v07AbN4va58WCF428AyFWiRCrbNxdFpCVg0SdTCWdhOjAFBEbkO3wDSkk/XRdSW+yR7WFm7iSrgSIZNWUGJ6tzIoBomWL5pfgPMUFiM0gyjxZaMvJND3qomT+QmEU4Zsfy3hTrifvmhC2eXOsMi/Ecq2amkbBXQwBRCP/MHLZPKr2gsF3A2df5MzPznwl2NQI8aYARAgIF7MZhWT3powXCQFEI/8wY6hzwbjyPCIOMc3Bu37/m3KrG+JNAUgkQLgaTS9y6SDR0mwSQjNbwUUhlst7lAmvjGS2MEvTi4QAYlssisIr/n8A4gGIa9XUNIq89ZFX0W5B4O0yiJAr6L19cL1qVGvBCAEkxHsAkAKvbHsvVl1G4Q4g5kq44IjhPbi1uhaMlQPzPedi3tGzPKJcRg94EA8PUqdRSAFxhVa2cELaRraca8HQzs1cfS4DBzxIgAdxJev8edWhVnYYtgthXC6W95Am61yuLkhccHDfXKFm4z3IyMjWBxYt6nzjWil6P+920/Gic0JuNcnW5Qot6jIKFxyxvYfRxOVF6tBD4kkli0U5QOhJomSnj+1u3rxhoqh87ncUjoxs/UOSJH/2acRVtiwgXL/rLSdVehI2hm/ferfwFgqjh8QgXNrlfS5ZMKqEROI5pItFGUB8tUxTmnj++UeHFwQgklDLDFRrN4frl6yUGqFV7yQ2BRIpHNLFAoDk4Op6u3v2FEl4obF6Sr0Gtx16U6LvCijxqqbO2HmJjx5SOLivAKQkINKVM6ZhSFdJ02bIc+e+cJjyvpBMLx6O50dsffEBI8STApCSgEjzkd5meAWVGoe5PVuSZ/S249qlCQXBdp4PJNmFw0cP1sKEmNIx+HgOUycAiQAIV+HrSXqbNY+pnr9qiE7unXteoejZBZdRcFjFBsE/6zhCIMn2k/VgLfiIoUcIHK0IsUZHtz5DlNwTMMm/KDonxi5WUd3SnCRgPOJTqso5XB0qC4mrfunnoXBEAGRnmtLMO2AFR5KkO8bGHttYVDR3m1dQb26R2I/c+vSjTsMoYww+Y5SWLetZpe3klYvhRcuEWJ1OMmy7ruE7tgUDCA+cIcn+9BXDt3wMY/Bt06d81YtGrIUCgOTMss82r8tItA2j6WD06qOtRywwTL8BiDIgpvrYHqVtYOSBwgtRjMXIbERobEoAkIoAyTYTAoumEbi8oPbnrIcvLGaB4L5p7tQBkBoAyTM4s5Kan2bSNSdf2/BD6y/SQhuGvP4CkIYAEmpMOE9XAQACQHQtrOW1AxAA0nIT1u0+AAEguhbW8toBCABpuQnrdh+AABBdC2t57QAEgLTchHW7D0AAiK6Ftbx2AAJAWm7Cut0HIABE18JaXjsAASAtN2Hd7gMQAKJrYS2vHYAAkJabsG73AQgA0bWwltcOQABIy01Yt/sABIDoWljLawcgAKTlJqzbfQACQHQtrOW1AxAA0nIT1u0+AAEguhbW8toBCABpuQnrdh+AABBdC2t57QAEgLTchHW7D0AAiK6Ftbx2ANIyQMxbGfPsjl+9WfbQrF+z7rLjLjofgLQMkOeee6XQFmJ81Zrt+03KfluVdt81IAEgAGSeAgBkvkEAEAACQCyuB4AAEAACQOYroPkdhRpxcLZO7TgeIdac2lNTZ+nw4WPWKX3jjfcLv0sdX8GmTUNO/QCkOtEBSIHWMb71SGsaAYiWsufWOzl5io4fPwkP0qsAADmYaxT9ts0LQOBBzlEAOcicJAAEgACQEjtYfCqS9OpCXlFLyEFEMpUuJPEeAKS0zPErACDxNc2rEYBYdEaSjiTddQXdmA9CrGoWLHEr8CBiqYILSr0HQqxgifVOBCB62pqapd4DgOjPhXcLAMRbMq8TfLwHV7x9+5uF9bf2VpORkXvp2muHCgeGHKR/cxAf7+ECZGzs0cSLTkfhqJU9/vi28TRN1+W1CUCKZ6KfLxT6eg8AEhP/SHUhxIokZE81IXCwt+FdrKKjtR6Ewyv2IkVHk0MsXuGLDr5XquzBz40XjZ+feV+1amVwE9p9D+1YCBzc1gcf7KZduz7PbTZJkoktWzYMh/Yp77yoIdYTT2xb1+2m43kNtRmQmIKjLqJQOFyAEKWbxsYe2xhT48oA4U7b8pAme5CYgvd7XWXgcOUfjQeEB2BL1B955Nd0001X5doIAFn46JSFwxZesXqx8w+uM6oHcQHCsTRDsnz50nOsAYAsXED4KcHJyZPEP8scdkDih1cqgNjyEG6Qk87169eeA8mBA9/R6dNnyuiHcxuoQFmvYYbk8h4a4ZUKIC4vwp+Pjt5HZ86cpaGhFbOgHD16go4cmWzgFKNLIQrEAkMKiEZ4pQbI6OjWjUTJM0XCrllzPd1ww6rpjy+44Hy65JLltGzZUmIvgqO9CsQKpXoVqMt7qAEi8SJ33XUbXXbZxbNaDA4unv59cHBg9v8GBmb+D0czFeAogI+pqTOl84uiEbouDPJ5Wt5DFRBXLsKN90LSTDNAr+pUwPbsx0y/dJJzM+bou1hZMW1bvlyOPQhDggMK5CngDq10vYeqB+HKJV4EkACOUDi0vYc6INyAK2E34iDcAihGAXdYpR9aVRJimUZcoZYpd8st19DNN18NS+lTBSQJ+fSqrnBTYpHkqjmITz6SheSyyy6at8PVp/bSN8NmMHbt2l34QupeITR3rXrbqgwQST6S7Ry8SX/wIUnEs0rEfqTWpXJlgEiT9t4OcxJ/+eUXE7yKayrb8bl5vNbHY5iRVQ1HJUl63rRJc5K8cw0w7TAH9JIV2L//8KwQvs+fm5wjSWjT5s0bJqpWtFIPkh2cdHerakHQXrMUqDIhzxt5bYBwZwBJs4yxeb3RvUouGW+tgJgOAhTJVPVPGfYadYVUte1iSaYXoEhUWrhlmgSGUbkRHuTc3GQ6NSu8XX7hmkh/jqyJYDQWkKyJzFw76a4DLAsLHAZiZneqnp0pHzUb50FsnWdg+PMZaGaOJOmUfzGVj2Io66VAmnZ3dDqd2e3ZOrZqvTrcU7hVgJQZKM6FAiEKAJAQ1XBO3ygAQPpmqjHQEAUASIhqOKdvFPg/NL841++ytNcAAAAASUVORK5CYII=;" vertex="1" parent="1">
          <mxGeometry x="1420" y="440" width="121" height="121" as="geometry" />
        </mxCell>
        <mxCell id="zQXd-Jtvyqu_DLBY98N6-116" value="&lt;p style=&quot;line-height: 200%; margin-top: 0pt; margin-bottom: 0pt; margin-right: 0in; text-indent: 0in; text-align: left; unicode-bidi: embed; word-break: normal; font-size: 25px;&quot;&gt;&lt;span style=&quot;font-family: &amp;quot;Helvetica Neue&amp;quot;; font-variant: normal; color: black; letter-spacing: 0pt; font-weight: bold; vertical-align: baseline; font-size: 25px;&quot;&gt;&lt;font style=&quot;font-size: 25px;&quot;&gt;SFT LLM&lt;/font&gt;&lt;/span&gt;&lt;/p&gt;" style="text;whiteSpace=wrap;html=1;strokeWidth=30;fontSize=25;" vertex="1" parent="1">
          <mxGeometry x="1420" y="382" width="205.5" height="40" as="geometry" />
        </mxCell>
        <mxCell id="zQXd-Jtvyqu_DLBY98N6-117" style="edgeStyle=orthogonalEdgeStyle;rounded=1;orthogonalLoop=1;jettySize=auto;html=1;shadow=1;sketch=1;curveFitting=1;jiggle=2;" edge="1" parent="1">
          <mxGeometry relative="1" as="geometry">
            <mxPoint x="1481" y="747" as="targetPoint" />
            <mxPoint x="1480" y="588.5" as="sourcePoint" />
          </mxGeometry>
        </mxCell>
        <mxCell id="zQXd-Jtvyqu_DLBY98N6-120" value="" style="shape=image;verticalLabelPosition=bottom;labelBackgroundColor=default;verticalAlign=top;aspect=fixed;imageAspect=0;image=data:image/png,iVBORw0KGgoAAAANSUhEUgAAAMgAAADICAYAAACtWK6eAAAAAXNSR0IArs4c6QAAFSJJREFUeF7tnVuIXtUVx9f5khljaqI2Ru3YaLRqUUFFEihWMENBTSlVUJA+FPHFEmVGBaFvmvhW8CEZiemb2DwUqX0QWrSCzASqSBWbCApeMMFoGhNjzGVymcTvlDXjnjnz5Zy9195nr3OZ738gzEy+ffblv9dvr7X2uXwJ4YACUKBQgQTa1K/AE09sW2d60e1213U6nQn+e/PmDdM/cdSnAACpQXsG4vvv02e46SShWTjyupKmNJEk6Q6GBsBUP1kApELNDRguKOxdSjeNjT22scJu93VTAKSC6Y8DRraj6SZ4lAomjj18Nc30byujo1s3EiXT4VT8A94kvqbzawQgigrrwmE6DkgUpxAeREvcauAAJFrzZ+qFB1FQ2BeOq68emu3F6tVDtGfPPtq9e59nz+BJPAUTFQcgIpnkhXzgYDDWrVtLWUCyLTEke/Z8RePj74k60Okkw9gKFkklLgRAxFLJCo6OvpC6Sg4Pr6Hh4bWuYvM+Hx9/1wkKXzN5/vlHh70qRmGrAgAkooFIvEcIHKaLEkiIEGpFnFIk6THFdHmPMnD4QDI29igWvkgTCyEjCenyHjHgkEKCXCTSpOJCYTwhXYA8++yGeI0R0Ysvvlq404VcJJ7U8CCRtLSFVzG9h+ku73AxJEUHwqw4EwtAIuhYtfcwXX766W2FvUeYFWFiEWLFEdEGiIb3ML22hVnYzYozt/AgEXSsCxD7ti+2eyNMLbZ5Y4g4MvLCeNEzHpoexJaHIFGPMbO43T2KijZAHn743sJbSco2DkDKKug+HyGWWyNniboAQYjlnJrSBQBIaQmJkINEELGhVQCQCBNjA4Tv1OUwS+PALpaGqvPrBCARNOZnzrvddLyoKq08BNdBIkyeowoAEknjqq+ku+7sxZX0OBMLQOLoSLZEnZuI7UVs3gMXCSNNKq6kxxPSFWbFzEXsuQePCRcJY80sPEgsJYmcXiTGRUNXaAU4Ik4oPEhcMV1ehFsrA4nbc8B7xJ1RXEmPrafTi5gGfUBx3do+NwiEVrEnFCFWbEUFoVa2SQZl9eor5t2OYl75MzHx7nRR6SuAsHMVfzIBSHxNSRJqxW4Wz3/EVnSmPgCio2vFkCC0UppGAKIlLNdbhSeB59CcQXgQXXV/qN11ETGkE3jeI0Q1/3MQYvlrFnSG67l1aaUMxqJFySa8YlSqWLlyAKScft5nMyhpmtzp+y1T5qvY8O1S3pKXOgGAlJKv3MlzsKS3EiUX5dXW6dCTRMlOeIxyWoeeDUBClYt4ni1HQRIeUeiAqgBIgGixTwEgsRWNVx8AiadlcE0AJFg69RMBiLrE7gYAiFujukoAkLqUz7QLQBowCQVdACANmBsA0oBJACDNnQQA0ty5gQdpwNwAkAZMAjxIcycBgDR3buBBGjA3AKQBk7AQPAjfPm7G0e12Z39vrrzSniUPEdHqgtIvEaV7pDU1tVyn05ngvrXtlplGe5CZ5ym665Kkc2eapgsIiKaacZX9SjcxNE0HpnGAMBRpSs/wVAGKKg22zrbSTdx6E+9UbgwgBgxAUaeh1t1280BpBCCPP75tHGDUbZxNar85z9jXCkisp+yaNLXoS0wF6gelNkAAR0xDWsh11QtJLYCEhlTXXjs0awnXXXfFQraKBTe2Tz/9ij77bF/QuJIkmUgSquU5/EoBCUnEDRTr16+lLCBBSuOkRijw+uvvURgw1XuTSgGxfclM78wxDICiEfas2gmG5bXXZl6xKjmqfgS5MkCkYRXAkJjJwivjA0qVkFQCiDQhZ49xzz1rFt7sY0QiBaSQcE6yZcuGYVGlJQupAyKFY2TkXuQYJSez7acfO3aSPv54L73xxvv09deHHcOpJh9RBUQCB4dUDAcOKMAKfPzxl3Ts2An64IPdtGvX57VDUisgWnCcPn1mVlj+/dSpKVhfwxRYsmTwnB6dd94AHTp0lPbtOzT9mcSTaH8nihogEu8RM6xiEI4cmZwWNgtIw+wC3XEocPjwMZqaOjtbyg2JbqilCMgLqU2LWAn50aMnZsGA9bVfgcnJU3T8+MnZgXAuwpDYDs1dLRVAXN4jBhwAo/0w5I2gFxAu44JEc1dLCRC799iyZUPw7JpQCmFUsISNPpHDKw6zeg9XqKWVi0QHxPWtSmW8B7xGo207SueKAHF5Ea0wKzogrvAq1HsAjij214pKiq6B2LyIVpilAEhxeBXqPQ4c+A47U60w7TidLALE5UU0wqxKAQnZ1oXniGN0barFdhV9+/Y3C4eiEWZFBSR2eBUbjr17D5L5Z1Tmv7PHqlUrp//M/jS/t8nIJH3lsb/99kezRXu16NWB/7799hslVZcqYwOk6jCrMkB8w6tYcBgjyJt8n1k0hlGFgfj0y6es0YChKKMHLxj8T0sLGyC2MEsjD4kKiO2Wdl9AykwgGw0bQXZ19DEkV1k2DC3jcLUd8nmsRSKvbY2Foy8B8ck/yngPNoaXX94RYkfe5zQdFE0wesWKqYXrTl5bHhI7UY/qQWxPDEoBCYWjSmPozVnYOJqWp2h6UNtKEgOUvgREev0jBJC6jCFrKDEMw9uFFZzAHrRsiFqmL7xYPPjgncFVuACxJeqxd7Iq8yASQPj2Eb7m4XM0AQ7T37ohqTK8lMwRQxLiWQFIgbq+3iNkpVxy+UpafsvcViX/nT1O7Z/Z9j29/yCd/vogmb8lBmG2QetI4EMXCokerAUfR3bNbQlr6gFACtT1CQt84DBG0AuDdJKP7PzIyzjKhhjSfplyvnCU0YMXDAbGBxZfTwJASgIiNYgyhpDXRR9Qqgq3fMKqOvXwgQSA5FifNLySwnHhLTfShbfqXPWVglIFJBJPGhuM7PRJtfDxqgAkEJAmwGG6LjUMn5VTI7RiOC69O3xHSdqnA//a4czXpJAAkBzVJXfsPvfcK9b50lwpQ0MuqVFIDdEn79D0oqF6SLwqAAkAROI9eKWUJuKdwYHpXpif2S51p84Q/5McnLTy6mk7NLyIa7HwgcOmBY/LRw+JZ33qqQesegGQHHlcO1hlDYKNYObfYC4URTN29vjMm1LOHj9ROKkxjEICo9R7SMIq1mLxBT+KrgX30RVuubwIAPEExOU9bKtliCHYYCkCxQWJyyh8AHEtFlc+lL9CV6UFj+WLl+zhsM2rAhBPQGwGYYNj8McXea2QUiNlr5IHimvldIUWkvZDF4vFFyyd9hixjyItXKGnLTcDIB6AhBgEr5QMh+aRZxguo4iRi9gWi7zQKqbXKNKTcxTWozdvC10wAIgHILZ9/jzvkV0pz+sQne7KMBlIiM5YX3WXX8/Ut9/NMwybUZTd0XJdFOzVQ8trSEPQ0AUDgHgA4hNe9RrE8kVEty3j71t3Q/LRCaKDso2rcyrLQuIyijJhls2b9nqPquEwovR61pAFA4AIAXGFV9lkNM8gDCBuPIg+nAwHhOvPQmJLUMuEWdLFIk+Lq5YQnRUsFDyWQ2eITgk9b562WUhsC0aRRwUgEQDJhhNFq2WVgHD8zZC4tjlDwyxXeGUWi6L862dLiFYtkSwVRDu+IxKyVFihWTBcHjVvwQAgQkAkK6YtIa8SEB6SgSRk1XSZrhSQogulVQMiXTAAyA8z73pgKu9CoQ0Qs2LarpxXDYgJtU58sa/w6nqoB7GFm8ab2vKOqgHJLhi2PCTv+hA8SAQPwoC4EtE6ADErpy0PCUnUJYDYFos6ADELxuH/7Cp8fgSABHoQW0hhdmxc913VAQgPl5PUz7f+pTBq0gBkxR1rrBcC6wKEF4yjH33q5VHhQQQexAXI0P3rnVeG6wKEh8cepOhx3ZCdLNv1oMt/8ytaftP11jSmLkC4U0c//IT2/yP/laF5IScAKQnI+UOX0hUP/tZ5G0mdgOzd/nc6ue9ArtHGBuQn991Ny35+TWMBmfz8C/rqb//M7R8AUQixGJBVv7/ftfFDdQLyyZ+2RQ2xbB7kp7+7l5ZeOdRYQL7Z8Q59+85/c/uHHCQQED7Ntot1/R/d31J1yQDRRYudHE0X4FtS9p6WlZWUig2ILUlf8cs1tOKOtY0F5NC/36VDb70HQGxvVoy9zSsBRGLIGmV4m/fLv74a1YMAkDk5+/LFcb7XQSRhhYbx85v2XFeZbStm6HUQ26YFh1esh+24cLH8xs3v07AbN4va58WCF428AyFWiRCrbNxdFpCVg0SdTCWdhOjAFBEbkO3wDSkk/XRdSW+yR7WFm7iSrgSIZNWUGJ6tzIoBomWL5pfgPMUFiM0gyjxZaMvJND3qomT+QmEU4Zsfy3hTrifvmhC2eXOsMi/Ecq2amkbBXQwBRCP/MHLZPKr2gsF3A2df5MzPznwl2NQI8aYARAgIF7MZhWT3powXCQFEI/8wY6hzwbjyPCIOMc3Bu37/m3KrG+JNAUgkQLgaTS9y6SDR0mwSQjNbwUUhlst7lAmvjGS2MEvTi4QAYlssisIr/n8A4gGIa9XUNIq89ZFX0W5B4O0yiJAr6L19cL1qVGvBCAEkxHsAkAKvbHsvVl1G4Q4g5kq44IjhPbi1uhaMlQPzPedi3tGzPKJcRg94EA8PUqdRSAFxhVa2cELaRraca8HQzs1cfS4DBzxIgAdxJev8edWhVnYYtgthXC6W95Am61yuLkhccHDfXKFm4z3IyMjWBxYt6nzjWil6P+920/Gic0JuNcnW5Qot6jIKFxyxvYfRxOVF6tBD4kkli0U5QOhJomSnj+1u3rxhoqh87ncUjoxs/UOSJH/2acRVtiwgXL/rLSdVehI2hm/ferfwFgqjh8QgXNrlfS5ZMKqEROI5pItFGUB8tUxTmnj++UeHFwQgklDLDFRrN4frl6yUGqFV7yQ2BRIpHNLFAoDk4Op6u3v2FEl4obF6Sr0Gtx16U6LvCijxqqbO2HmJjx5SOLivAKQkINKVM6ZhSFdJ02bIc+e+cJjyvpBMLx6O50dsffEBI8STApCSgEjzkd5meAWVGoe5PVuSZ/S249qlCQXBdp4PJNmFw0cP1sKEmNIx+HgOUycAiQAIV+HrSXqbNY+pnr9qiE7unXteoejZBZdRcFjFBsE/6zhCIMn2k/VgLfiIoUcIHK0IsUZHtz5DlNwTMMm/KDonxi5WUd3SnCRgPOJTqso5XB0qC4mrfunnoXBEAGRnmtLMO2AFR5KkO8bGHttYVDR3m1dQb26R2I/c+vSjTsMoYww+Y5SWLetZpe3klYvhRcuEWJ1OMmy7ruE7tgUDCA+cIcn+9BXDt3wMY/Bt06d81YtGrIUCgOTMss82r8tItA2j6WD06qOtRywwTL8BiDIgpvrYHqVtYOSBwgtRjMXIbERobEoAkIoAyTYTAoumEbi8oPbnrIcvLGaB4L5p7tQBkBoAyTM4s5Kan2bSNSdf2/BD6y/SQhuGvP4CkIYAEmpMOE9XAQACQHQtrOW1AxAA0nIT1u0+AAEguhbW8toBCABpuQnrdh+AABBdC2t57QAEgLTchHW7D0AAiK6Ftbx2AAJAWm7Cut0HIABE18JaXjsAASAtN2Hd7gMQAKJrYS2vHYAAkJabsG73AQgA0bWwltcOQABIy01Yt/sABIDoWljLawcgAKTlJqzbfQACQHQtrOW1AxAA0nIT1u0+AAEguhbW8toBCABpuQnrdh+AABBdC2t57QAEgLTchHW7D0AAiK6Ftbx2ANIyQMxbGfPsjl+9WfbQrF+z7rLjLjofgLQMkOeee6XQFmJ81Zrt+03KfluVdt81IAEgAGSeAgBkvkEAEAACQCyuB4AAEAACQOYroPkdhRpxcLZO7TgeIdac2lNTZ+nw4WPWKX3jjfcLv0sdX8GmTUNO/QCkOtEBSIHWMb71SGsaAYiWsufWOzl5io4fPwkP0qsAADmYaxT9ts0LQOBBzlEAOcicJAAEgACQEjtYfCqS9OpCXlFLyEFEMpUuJPEeAKS0zPErACDxNc2rEYBYdEaSjiTddQXdmA9CrGoWLHEr8CBiqYILSr0HQqxgifVOBCB62pqapd4DgOjPhXcLAMRbMq8TfLwHV7x9+5uF9bf2VpORkXvp2muHCgeGHKR/cxAf7+ECZGzs0cSLTkfhqJU9/vi28TRN1+W1CUCKZ6KfLxT6eg8AEhP/SHUhxIokZE81IXCwt+FdrKKjtR6Ewyv2IkVHk0MsXuGLDr5XquzBz40XjZ+feV+1amVwE9p9D+1YCBzc1gcf7KZduz7PbTZJkoktWzYMh/Yp77yoIdYTT2xb1+2m43kNtRmQmIKjLqJQOFyAEKWbxsYe2xhT48oA4U7b8pAme5CYgvd7XWXgcOUfjQeEB2BL1B955Nd0001X5doIAFn46JSFwxZesXqx8w+uM6oHcQHCsTRDsnz50nOsAYAsXED4KcHJyZPEP8scdkDih1cqgNjyEG6Qk87169eeA8mBA9/R6dNnyuiHcxuoQFmvYYbk8h4a4ZUKIC4vwp+Pjt5HZ86cpaGhFbOgHD16go4cmWzgFKNLIQrEAkMKiEZ4pQbI6OjWjUTJM0XCrllzPd1ww6rpjy+44Hy65JLltGzZUmIvgqO9CsQKpXoVqMt7qAEi8SJ33XUbXXbZxbNaDA4unv59cHBg9v8GBmb+D0czFeAogI+pqTOl84uiEbouDPJ5Wt5DFRBXLsKN90LSTDNAr+pUwPbsx0y/dJJzM+bou1hZMW1bvlyOPQhDggMK5CngDq10vYeqB+HKJV4EkACOUDi0vYc6INyAK2E34iDcAihGAXdYpR9aVRJimUZcoZYpd8st19DNN18NS+lTBSQJ+fSqrnBTYpHkqjmITz6SheSyyy6at8PVp/bSN8NmMHbt2l34QupeITR3rXrbqgwQST6S7Ry8SX/wIUnEs0rEfqTWpXJlgEiT9t4OcxJ/+eUXE7yKayrb8bl5vNbHY5iRVQ1HJUl63rRJc5K8cw0w7TAH9JIV2L//8KwQvs+fm5wjSWjT5s0bJqpWtFIPkh2cdHerakHQXrMUqDIhzxt5bYBwZwBJs4yxeb3RvUouGW+tgJgOAhTJVPVPGfYadYVUte1iSaYXoEhUWrhlmgSGUbkRHuTc3GQ6NSu8XX7hmkh/jqyJYDQWkKyJzFw76a4DLAsLHAZiZneqnp0pHzUb50FsnWdg+PMZaGaOJOmUfzGVj2Io66VAmnZ3dDqd2e3ZOrZqvTrcU7hVgJQZKM6FAiEKAJAQ1XBO3ygAQPpmqjHQEAUASIhqOKdvFPg/NL841++ytNcAAAAASUVORK5CYII=;" vertex="1" parent="1">
          <mxGeometry x="1427.5" y="767" width="106" height="106" as="geometry" />
        </mxCell>
        <mxCell id="zQXd-Jtvyqu_DLBY98N6-121" style="edgeStyle=orthogonalEdgeStyle;rounded=1;orthogonalLoop=1;jettySize=auto;html=1;shadow=1;sketch=1;curveFitting=1;jiggle=2;" edge="1" parent="1">
          <mxGeometry relative="1" as="geometry">
            <mxPoint x="1452" y="677.09" as="targetPoint" />
            <mxPoint x="1250" y="677.59" as="sourcePoint" />
            <Array as="points">
              <mxPoint x="1230" y="677.09" />
              <mxPoint x="1452" y="677.09" />
            </Array>
          </mxGeometry>
        </mxCell>
        <mxCell id="zQXd-Jtvyqu_DLBY98N6-122" value="&lt;font face=&quot;Helvetica Neue&quot; style=&quot;font-size: 25px;&quot;&gt;&lt;span style=&quot;font-size: 25px;&quot;&gt;&lt;b style=&quot;font-size: 25px;&quot;&gt;DPO&lt;/b&gt;&lt;/span&gt;&lt;/font&gt;" style="text;whiteSpace=wrap;html=1;fontSize=25;" vertex="1" parent="1">
          <mxGeometry x="1500" y="654.75" width="70" height="40" as="geometry" />
        </mxCell>
        <mxCell id="zQXd-Jtvyqu_DLBY98N6-124" value="&lt;h1 style=&quot;font-size: 25px;&quot;&gt;&lt;font face=&quot;Comic Sans MS&quot; style=&quot;font-size: 25px;&quot;&gt;&lt;b style=&quot;font-size: 25px;&quot;&gt;Policy LLM&lt;/b&gt;&lt;/font&gt;&lt;/h1&gt;" style="text;html=1;align=center;verticalAlign=middle;whiteSpace=wrap;rounded=0;fontSize=25;" vertex="1" parent="1">
          <mxGeometry x="1342" y="902" width="286" height="30" as="geometry" />
        </mxCell>
        <mxCell id="zQXd-Jtvyqu_DLBY98N6-125" style="edgeStyle=orthogonalEdgeStyle;rounded=1;orthogonalLoop=1;jettySize=auto;html=1;shadow=1;sketch=1;curveFitting=1;jiggle=2;" edge="1" parent="1">
          <mxGeometry relative="1" as="geometry">
            <mxPoint x="350" y="674" as="targetPoint" />
            <mxPoint x="300" y="674.0899999999999" as="sourcePoint" />
          </mxGeometry>
        </mxCell>
        <mxCell id="zQXd-Jtvyqu_DLBY98N6-133" value="" style="shape=image;verticalLabelPosition=bottom;labelBackgroundColor=default;verticalAlign=top;aspect=fixed;imageAspect=0;image=data:image/png,iVBORw0KGgoAAAANSUhEUgAAACIAAAEkCAIAAADFC3Q8AAAAAXNSR0IArs4c6QAAAERlWElmTU0AKgAAAAgAAYdpAAQAAAABAAAAGgAAAAAAA6ABAAMAAAABAAEAAKACAAQAAAABAAAAIqADAAQAAAABAAABJAAAAABGZodRAAANoklEQVR4Ae1dd1xVRxZWQRFFsVLsi70gCoIVG2oCxppYMPagJPaCEd1EiTFrVndti2bdoK591aCx4Noj2AALKNbYxYZ9rSiW/XBw3tw7c+9994n8Yeb9+D3OPXPKnW/mzntz5sy83K9fv871/l953r+LTA/SjQ04S9AkaDYgYIOK7GkSNBsQsEHlw+pp9tYgcP7Slbj9B5+mP/OqWdXbs3r+/A5E6+r1tIPJx1Ovp5VyLdmkvrdLiWJa1gzcnL1weeLUOUdP/M7qTw4f2iGwZfTGbRHT5rL8n6dHNPDxYjmUzq3zlePC5avBoWMeP3lasULZj1o0fvT4CUzjEsq49z0Jh0EEdw4q4Jh//rI1oAsWcNwXszRPHkF7a9bm2o2bfYf9GUa7dvjo6yFfOOTLC0NuLiWmRi4AQXygWgFNG3QJGQUOXhC+euNm2VJu5JJ9F3gmxVMjF96997/yZUuFDw0hPsCvXtmDKtf1rNb+4xYHjxy/ci2NMosXLUJplhC7OXcxdcfueMiFDwvJm9dS4xs3b1Pl4E5tc+fOnS9vZi3JC8ACwLdXiv8WEyw76dgpXDZt6NPEry7LP3T0BL308aoBur63Z//gTnsSk6pWrDAitBctVRHiLvDw0eNLV64DZefCTqxCYPCXBCKAuXHpHLZInxbXppBTwVrVKqk0gRhthsa+ilqqJPlLcdvwcuAcTjlJ+fXq1KS0NYQJNwmHjlKLdT2rU9oawoSbXfsOEItomBLFFB0XeG7dtY/thyrfYjcYrPoP/xYNHjJywr37D6CDEQGPEVFu5FtHZQXP7OiJ0+h9qEpxKXbz079XHkg+hgZPOJyyO+EQ5MhjT/S9alRlDUFsW+x+cFo2qc/yWVrgJj392brNv1Ehx/z5X716/et/d1IOi9iLFy/H/2UmijCY6ozQAjcvX72iFqtX8WhYz2vuwhW/n7tImfGHs/rCg4ePwiL+lpRyyrVk8WEhn1MBnhA/nr2HjIMypD9r1+Z62q29iUmg+3TrsGjlOmKiRRM/DF879ySgwTAwL537Y6U/leOtU47YTdqtO1+MnHAp9RqRg6FJY4e0ad4oMSll2Pgp5LOAFAUGNBkR2hsfa9SikBC7gejLly/Ru/C5iaHTr64nPBF9tNP5S6knz5wvWsS5ikc5lxLFhXZVTE03Krl3vBR0gXe0KFSXboSw6DMlaPr4CEslaEJY9JkSNH18hKUSNCEs+kwJmj4+wlIJmhAWfaYETR8fYakETQiLPlMcF4AO5mznLqUiqnL56o3Sbi41q1ZEHMrOzk7fnFap2M2+A8njfphJ57RE2ZrpkpYbwcRj3uLVkfOXQwF2+3bvWMbd9dade8uiN2JuVaaU6+qo6U4FC2iZ0+Kra4NAIPEBiJbMmYKoCjQRsNu6ay/cYNK8Iy4es1ktc1p8dYeeOW8JEQ0b1Jf4wCVMHzt1lvALvJ22aVkU8hVuMBFEOIDI3bl7nyqkP39OaT72QItOnD6HeSS9ZAkFaDdv36VlU2ZHPXj0GEY9ypcJbNkE8+mMjBeYWNNJKJUEcfHy1eVrN61Ys6l31/ZjBvdjiwitcFOiWFEqgekyCWsWK+rcrGG9kJ6flivtTksJgTjNxm2xmAbTObdKgF4qQMOkGSFZWkYIdOu1m3a07TFo5+4EVRECnQCqUoVyqKWqSHWp7tC3797vPjAMnUolh0vAtWXlv1TxQiIGSNt0HQhaCzRFbSCHeMwvC2aMDO3VWBnlRBFg3LRjN7Fr9j2rbdDHgEzq1RtVKlYIauXfv0dn/IF58syFqZHzSWAFpu/es3Q/U56y3EQuWBG1NJpolnJzQYwZNEYwRDyjZkxq2r4PCaBU9ihvyjoVzgQNd70mZjtl3bpj6dZg2jHB+Dq1FJE0qmJIZLq5lnaLjpJoZ9+6tVi1vYnJpCoIelkZoWHVCZ3pxt3FEj9aMPP7os6Fqdz2uPjB4ZPJJVYEKN8skdk29vZ2f50wauyk6aC7DQxDw1Sr7IGId8rJM/S5mzl5LHqHoXWt9ZOsLhAU4G9vZ4fHHk8M+hXtWrDbKSgA4fkK5Uob+oDAKyayyMpnuQELUTn8YczH4PH8eUb6s2clixcrV8YNsU5WQZ/Wyj+xuCH6+MiqXaOKvi2d0te5xHkumV0gB1455EYNmqmaxR86sv/g0RcvXqSczFrjw0fOk6fpCOpihEXHodbUIzQtsIYgX07IB52DQz4SLCaKeKJTYtdSI+/khloxJHKobaQbw5bgBSRoPCaGHAmaIUS8gASNx8SQI0EzhIgXkKDxmBhyJGiGEPECEjQeE0OOBM0QIl5AgsZjYsiRoBlCxAt8WKDpTdiRxbd55x4315IDen4qTHHlwdHiaLpBnD5k1ESi5l27um8dRZBNy5wWX7Nt4uIPUh2t3FMqYEhouiE5aUQfkWZDQ/oCYjfPMzLi9memDOIFuBDBILTN72I3p85coBbr+9SmtM2E2E3ym9ReYtTXZEKq8FYsPQ3LHYgUk6jb/oNHqHThQk5Iwc71JieZzYGkAtYQWaEhhKwGjIowVGCDSobCrEAWaEhLZrlCmoTahUWGzKzaIAv04ePHkEbodfHK9QtWZIXCfpr6bc23GcuODg40td/Qrkogq20QiqZR7rMXL1MhP29PNk2c8s0S6p6GatEnBvmp1vhAiBvrpPcfPNTxrXaDhE0qjXROSgsJODh05PhXX38fGvZd0lFLUjYvbOnQpCyJSeH2fpP0zuuA889Fqw4fxYLXRbqGIRSjTHVtEt6m7UKiZtVKVE5F4AMC6yT+9b0BrKpIeKmoDR5P2jDI3Ke7FHjNXxfNJkwsg7HPMi9JOIraYImLyvl5Z8NQRq0p3ABuWuBT25L0jgg2ljjZ3kHFrCQUbrQaZsnqDUhFX7Jqg5VGeTGLG/RO2jAYV+gDjyF14ZtBoVeXdry+lRyLG3aFx8crazcCntawiGmIxLdr0xxra1Ya5cUsPY1NoEASOkSxZDRtzkKsTGFZekRoT16Z5WgtdxEZixtcjxseMmVWFIiYbXH2dvbrNu9EPbDSsGj2D4ZrhFoLRMSNBTRcd+8YRDIbYH35mhi844vAinnTrFlY01ruIm4UtcmTJzdWHccNC0FyAjJTkClgzeogMWQCNKIAlJo38iW09e/6bhSgWW/UrGQOubFxNeqXDVtTr6Wh/bBTi+QwYP9Fi8Z+Tk4FsBsM66eq6iq6gKpM53LT9t3oJmRVjbzjIduwdRc6J9qVd2NjbXTuQFiUQ20j3QjR12dK0PTxEZZK0ISw6DMlaPr4CEslaEJY9JkSNH18hKUSNCEs+sw/MmjPnmcgPIPURX2I+FITX26Rv9tr8DjyjRknFkybOBrHGPAWhRwTbbNhayzNLN7y294jx08LLQqZJtxkZGSwJnQ2xrNihDbhBiE8qo9ZQLNG9eilIWFiRoBpH0LtmHI4Ojp06/Cx9dNS3IQJN4a3rCNgAjQdK4ZF0o0hRLyABI3HxJDzYYFm4oMAxzEghrJ203bnwoWGD+hpKiZpYrDBjpXh3/xImyFu/SK6SEKZWoSJtqH7loitfYnJWkZ5vgk3RZwLsfqVPUwshppwgwOM6Fk6n33S+v1+EJw5fwk7wHBSE1szQ9pEFzC0pSNgAjQdK4ZF0o0hRLyABI3HxJDzhwUNCR4z5i1pENgDx1DpnCwlBNDEYIMlqvDJM6iVHdFRhktUVNhE2+xJPEzVQMQzJ4OxfCFtwk29t8uHxFCdWpn7Dq18mXATGOAf1Kop7GJyMzTkc34zq45LE21DrGDNBlNOswk+pt3o3LJOkQnQdKwYFkk3hhDxAhI0HhNDjgTNECJeQILGY2LIkaAZQsQLSNB4TAw5EjRDiHgBCRqPiSFHgmYIES8gQeMxMeRI0Awh4gUkaDwmhpwcAs1gKSK7zoTTc5ONZ8Jphh+y90w4cW2y/Uw4cRew+Uw4nCQm3FMicIO9EbadCbd6/ZYWnfr5t+sNZ6ouLgDN5jPhlkXHEOuqzAIwBV0Ah8t5t+qiuh2dM+Go5OJV63HWV7/uHfmj/ARuoIYtNexZ+tQQiFmTw1v6ax6hz0qytNiNbWfCsXZVtF1ERISKhUvsVcQSV5HCTtjDgLPbWAFAiq2ZntUrs0zEjpEVU6RwIXt7QWNDUlEb9DH2TDiS3wKm6ky4L/t0Hdw/mLrZuDV28ox5yOsGZ/yIgcGdAmkRJRRuZv28lJ4JtzhyCrtRDfdLz4T7+3djaJo4BiRsjOrcthV+jAA7mRBtjV23iN8fZHlucNc2nAn3j6hlSIb/ZmRoaXcX3DvqdFt5mBypkMWNDWfC4WdrsOYKAHFgIaCDRbh0d830p3pZ3NhwJhwOyRo/fEDb1k1xi/hVCZjGOYfYwaHygUtF22A/FTkTDgVaZ8IF+DfgraBF0a7gxyyfKwyDK/qfbWfCIc0nOmYbuTOhDxQp3OAaXQh/ps6ESz52GtuQoYv+hnfsk8DJhewv5YCZC/fyji/8QlGtph3xhz1IGHZBYKhW2bR0gUyfNr2wJRV6WKXAWjXyFjDIftK6mcpSNripUaUijOa1t8NjN3fhf8YM6kd3iVFnip5GuaYI7A9GVgTZw4iDNEd/1YffiZ4NbnBPGEEwdLq7lsTjKbzF7HEjNM0ys6FtWHNatHSjhYwO/8MC7f+T9tRag4o9WwAAAABJRU5ErkJggg==;" vertex="1" parent="1">
          <mxGeometry x="482.81" y="462" width="22.76" height="195.5" as="geometry" />
        </mxCell>
        <mxCell id="zQXd-Jtvyqu_DLBY98N6-134" value="&lt;h3 style=&quot;font-size: 18px;&quot;&gt;&lt;span style=&quot;font-size: 18px;&quot;&gt;deduplicating&lt;/span&gt;&lt;br style=&quot;font-size: 18px;&quot;&gt;&lt;/h3&gt;" style="text;html=1;align=center;verticalAlign=middle;whiteSpace=wrap;rounded=0;fontStyle=1;fontFamily=Comic Sans MS;fontSize=18;" vertex="1" parent="1">
          <mxGeometry x="790.0000000000001" y="520" width="151.46" height="30" as="geometry" />
        </mxCell>
        <mxCell id="zQXd-Jtvyqu_DLBY98N6-137" value="" style="shape=image;verticalLabelPosition=bottom;labelBackgroundColor=default;verticalAlign=top;aspect=fixed;imageAspect=0;image=data:image/png,iVBORw0KGgoAAAANSUhEUgAAAboAAADeCAIAAADEh1IqAAAAAXNSR0IArs4c6QAAAERlWElmTU0AKgAAAAgAAYdpAAQAAAABAAAAGgAAAAAAA6ABAAMAAAABAAEAAKACAAQAAAABAAABuqADAAQAAAABAAAA3gAAAAArIbfiAABAAElEQVR4Ae2dCbxN1RfHTaXMmUqDSCkZSlJJ/4wVIaGUhAwZQuZ5HjLPypzIFFGpaKBBKaHIFJIMRUVmiij/77PeW28759z77r3vXe679vs8zzr77L3P3r9zztprr+mkPHv2bAr7YxGwCFgELAIJIZAqoQr2vEXAImARsAjEIGDZpX0OLAIWAYtAQAhYdhkQTLbSJYjAqVP/NOvYr3Cpau9/vOwSnH5ymfLU2W9xjwaOnnIB9IqWXSaXp8KO84IiAK9s3WPw8pVrrr/26tIli1/Qa9uLBYNAqfuLp0935ey3Fg195bVwc0zLLoO5M7bupYHAqX9OC6/kPZwwtFeG9OkujXkny1nmy3PDqP6dGPqMN98bNm5aWDlm6t69eydLkOygLQLhQeCf06fb9hz85Tdr6H7SsN63578pPNexvSYZAtdfe03OHNmWfb163aatbAtK3H1HknV9fkdWujwfD3t0ySPwyqtzvljxHTB0adXo7jsLXvJ4JA8Anqj8EL+Mdeqctz/+/OswDdqyyzABa7tNlgh889063jeGnj9fnqeqVkiWc7hUB/1i42dRnjD7noNf/u2P/eGAwbLLcKBq+0yWCBw6crRTv5Ey9G5tGqdOnTpZTuNSHfRVmTO1bVqP2Z/46+9uA8b8999/SY6EZZdJDqntMFkigImg15BXDh46wuirPFz6rsIFkuU0ktug0RTv+vW3pBp1jcrl2RbQ2+rvN057452k6lb7sexSobDEJY3Ah59+9dnyVQJB6yZ1LmksLtTkd+7e89CTz1eu/cI7H3ySJNdkQ8C2QLoaOXEG/SdJt9qJZZcKhSUuXQT+/fffMVNmyvzbv/BczuxZL10sLuDMP/r8axHn//03yTbObAsqP1xKJjF++ryknY1ll0mLp+0tWSKw+JMvf937B0O/Oke2Z6pXSpZzSIaDvqdoYbwmn6jy8CNlSibh8Fs3jt0cLF76xU87didhz5ZdJiGYtqtkicCZM/+Oe+0NGXr1SuUvuyxNspxGMhx00cK3vTN9TK/2zZI2EIA1r/T9sYFY46fNTUJgLLtMQjBtV8kSgUVLloloyegrlH0gWc7BDvp8BKo8UloK8MHcvO3n80+GfmTZZejY2ZZRgAAG8Qmvx2q4CuS/6aYbr4+CSUX+FAgz/fb7TXt/3xemoT54XzHt+bVzjrR6mBjCssvEoGfbJnsEfvhxu4qW1SqWS/bzSQ4TmPPW4odrPl+/VfdHnmrStENf7GxJPuorrkhb7dHYu/nBJ8uPn/grSS5h2WWSwGg7Sa4IfPz5Ch16+VIllI4c4u+TJ0m3wzsfOUNKzEgmTJ83YPTkyg+VmvHKQPr5atXaN9/72N0h8yVlBg7n7lMBllQq/6DWXPb1t0onhrBa7cSgZ9smbwT++++sevw9cO9dObJdFcJ8ft/35+dfr96xa8+O3cipMbF3iEunT5+BwGokoUE3XHtN4QK3FLjlpvz5brwu19WBXwWx6Pm2vTZu+QnbccVyyV6v+sPW7a9MndOi4TNN6j6JGoSYRRiip3fkkmVfL1m24p0PPn1tdL9MGTMEjpjWJN4/61WZxVFp8SdfVHoonntqnWCJ0Nkls/3r75NHjx0/euzEkWPHsmbJfHPe3MFe3ta3CFxEBNb/sFVeJ8ZgCiOBDAme+NWq7998F9/B1QnW3/XLXlJnSrUyD9zTuWVDcugk2Apu3n3gWHglr333tk0SrB/5Fca+Opv8oc89/ThDBRMRHj2h6Nm+2Xfr0ZTsbN198IRhPS+/7LJgZ8dCVbVCmdfmxMT2kDOFCFeiJIPtxFE/RHZZ+dnmzNbsq86TVTq2aGCWWNoiEOEImKlrCt12c4CjRVCY9+5H+B4pqw2woVQjdojfds3qCdfw03bi6/M++fIbKozu3zlLpox+aiaXU6xJeW+8Lu3lMbyPZGsy7LuK3O4eP/MdO6Br7WadCGfsO2x8v84tU6ZM6a7mv+SOgrdqBTDHS0wPQyNCYZc8Lg5eGdq1bSuLwMVF4ItvYhK1yU/u63PFkf7+R0jpOehllSiL31moRPE7rs91Tce+w7XZS11fvDpH9t//2M8+ne05IhISop4VYvj46TmyZfWzQ4RRijdomyZ17ix0m6N5xB6y43x93ruYvJ9+vOLtt+ZzjFPjbSgnOaWcve3mvI5qcljk9vwdmtcnR/rCDz8jo2XTejU9q/kpvOWmG/UsuaYuDruEzc8aP/jHn3e9vWgp8rIOyBIWgWSEADtBXfXxl06VKmGzJ6qnZ5p2FEs6XkfDerfPfV0MkyUlrTlxfKQd6rbv1m0aPXnm2g1bzGr9Rkx4uPT9nl7x23f+wiaUyrCM556uZraKcHr4+GnzFn7EIEmcMX3sS35G++W5tQqVcZo0PjM/sWf9/KvVCJhoPMuUvOfWm/P46dB96npDTbxh8zZ3hWBLEn5EPHvkLpKMc0jPtp5nbaFFIPIR2PbzLh1kgVuccpCeUoKEYF1eGqVeRxOH9hJeSYU//jyg1dAzOnglp4rdUfD1lwcO7dVOq0HAr3/e9atZovSkGfOFblS7RqpUQW9CtZ8LTKDPXbTkC7lopgzp/Vx9957fRJVBHKSfakhmDZ6JXS1eeW2On5qep1gCWQjlFDeO1c6zWuCFIbJLuQA7jsCvZGtaBCIKgS0/7dDx3HaL935QK0B88uVKybIO3aRezauyxNsNEAa1ph8dKCFDzz/7hNaE2PNbTKC642ffnwcIdqaQYL4HS8S7WzuqReDh5m07xHrD2Arfnt/PCNeu3yxni93hobg0G95fvOiNN1xLCcpHt07DrOlJFy4QP4yt23d61gm8MFHsMvDL2JoWgUhDYPOP8bFx+PckOLyPPvtK6mBvbVznPK639aed2lzyLeqhg3jskdJmCaKoeSj0/PeWCNGwdo3klaJ41doNOp1iRQoo7SZUcYlzlfusWYJw3aBWnIA5NWgBM7+hvjTvuHmJwOlQTD3ae/CmKm1qCYvARUZALbOMI9+NNyQ4GmTDPLmvK1XibuRHh5V2k2HJMc0L7j7NfTpeh4Vuu8VRBzUophIprBKXiMxRJ2IPV6/dqGMreOvNSrsJUVwiO3uqbh31Hy33vyEvT0VuxRkL9UVQgarm6rVp63ZHz8EeJkq6dDw0wV7b1rcIXCwETp48pTto9nrEzCU4kvIP3teiQS28zd2PPbYIbZ4393VKu4m1G2M3oZzCAdNt5cA3W/azJe8pmrR5etyDSdoSFJfqW3rvXYX9QIoVSBSX995VJJAx0BUeCFLTFGADaWveDtxsA2nip04ipctko4T2A4E9dQkiYNpYCLlJDAL7/jyoCjv6yXuDP3b59erv9VrPPlFZaSXe/egzoYsG6Tx0+Oix7Tt2b9uxe9/+g1kyZ8TiHJQUpgMIiiBA88jR4/+dPUsrE9Kb8tyAWjblOWeDbFkyp017udntmvU/yKEyQfOsJ120SAFx3gJAXJQ863gWwmrReAh3xtrDnZLPn3lWTrDQg13iLMYqsXzl2oOHD2fOmDHXNTmuyZEN9E2xVvp1L7OUs5vY9OP27zduIQ7sumtysnNhC+N/HEQvbN2+4+tV36/Z8MPxE3/fnPeGAvnz3X7LTW6/Le2Hzr9bv4mPQSMj/H3yFE2KFMhfpOCt33y3fsnnXw/q0cYzITZuT1T49pwswMNEGBKOrI7d0/4Dh/48eOjo0eNHjh0/fOQYT+HV2bNWrViWSzNO4tzQN+/8dS+YSHNPEGScpF05cvRo9qxZI9C4CYC/7P0dWyGPO0FZzPTo8RN4O1yTMzuDJ/aOiIpNW7af+fcMzzQilalE4yXZsm3njz/vBCsCB2E3SBNmBb1NQoDh+k0/EiPIG7Xzl73YTK/LlROl1cNl7r/yiisclTFA/7H/wGWXXXb5ZWmwbAq8uPqePnPm9OnTObNng+YR5aEn0iNVaszGKWnCWcaMbcTP7TAvdPDIUT3MmCGd0iEQuFVqK0JW/EhV2OLFyYb69Ws97t6uMpEV366T3u4oFO9irf17ErSaOf99/BPNsxySeXfqqH6e6lGzZmLoRm16eboSkkSDX+m5a6vnn65Wce3GLZelScODRKEIodzBQFTG0skdcYYjDD6IsX4eNvd0MmZIrwEFvNRJxi5hvf1HTnz/42XuS/LhC6JWB3Vv494+aGXewKHjXlOYtJzUIIRw+Qpj4tFv02OwafPSxYcr0tAdz8AdattzCC+VXoIm+iBSeOToMQe7xHu2z7DxYnCUVvpcEr7auO6TOrweg8YS9q89Q6BhgV3yRL786mxTjuAUAQkDu7XyjOL68NPlvYeOoz5OVwO7t1anE7Pni0iTBJCQCccAcBiE3XToM8zhIcgTxjf2alZ9hPqffrmyz/Dx+vxJD7CJAV1bq9OG2e3CDz4dOGaKAzepQPkL9Z+uW/Mxsz5+4A/XbGyWKM2bv+ydaXBGXxVWf/SGH26l/UD8ZeRu4HUyTwVLb9m2Q5vcnt+nQxJrZ7eBY6Qm2/9mzz2lrZTYbXzky09XWh8C3tG880vyxCLQ8K5lzpQBGeLVWW/xt/ewcWNe6mLWT1paFRp+ukXSHDZumihkP5436fd9BySYilsfONdDftJLoILkndLDBImM6eOXwxOJS00UL12y8r/YbaA67uLxgOTFwrv0i29IDcKYsAziJurwhNCxHjh0pFnHvivXbGBNw/mWchwvZOF9e/EnPJE46GtlJXC1xx1X3iVYUtmS9/DiIYAs/PBTnDa4IlohnIFNoR0hX95zRIkurRpxKm3atBS+8c4Hbk4tFzKnxiOFoe2Wm3KzxLEGUGHi62+u/n7Ta6P7iwzIWq3DE4IPibBWc7/hGrzb2bJmWbVmgzygsOl2vYbiUufQWPMQC6+kB5j7K1PfGNyjjaPbi3vonibj2bLt5+adZ8MKUZzdU7QQ28wPPl3OITcIn+qCt+V7e9Encxd+SE0CJBDPN239STLlsM3h7pMZW4RTnRom4+6DxsohPGLS8N6sqavWrOfO8qjQLcDu2L2HfNraJGSCuxP464corRfKkC7+ddLCwAnEcK18d5yKTUuEwDeoTY8hYpnlCUfoc4vV1MQRR+qDlWkUcvRmHvJuyqPI69O3Y3NxtueLC2+8/QHwIovh4Ri+pXrJm5PPkH7tbIqTp07pGsZWY2jv9jpI/FBbdRsoh8iYY6fMgi5x9x3PPlFF6yRIpLvyCt5c4SesT0GxS/xgtX82r0qHQMSyS7ZXzTv3VxfcBVNH6tZ70TkXMOmar+X5YpciuOGFz1f0RFKjZvknG4kYAq9hOXWormFYzTr2k54RXtieCM2lyz9YYuyrs6bMXEDzll0GvDvjZZUWKZRqOMlrtCmvLjI/aT7w/pez+hdphUgM4ciIP68M6i7SBFfJm/t6VghqwvU+/Gw5Bjjo4X06sHnkEXxp5CTpBJpf+PLgnm0laQ0Mlw9Sy5SRi1eu3fDAPUX1ihC/7PldriiFrArm2Uigscl++tZURPsBoyapaI8AztgGdmutwWo1q1aoWrelDPjpxh0gWKXGDuyq/h/cAgGK+ZI/xhGptnLNep3sseMncuXMjvR64/W5alR+qH6rHrKNmP/ex0i1pe6/W2pelTnzF+9O/+ef07/9sZ8oQN0EIFqypFGHp4tdTuf+sR8EZ3kudX/xgrfmu7PQrY5FSy/tJo4b7DJduivdFQIvIROEVi55z51KC8GbxVszatIMeRF46l4Z1E0fZkdl9Zy/9uocjlOeh3ROMKWc6tSigfBKDvlmrD5+nnzZs7cQClUw10eITkrcfacjmcXjFcvOWrCIU536juBvo2drNHymerAaqmtyZhN2eejwkaCGarKdE3/9FVRbR+VYy/ioiTOVV5JeSXkltc2117ywoyMOEUnav1Bfd7U8u03r1tRqaDOVhsA0ifwlJWSmUl4pJUD5YqPavAkccuP7DBuHxkpOrY8LZsrleqTqn8t0ItX074Rp8/TR6d/lRb3BVMA0yUooNUeMn47gA00FlHGok4ly0054V4f37SC8Ugqfe7qqnjX9J6QQ6YBfrcB3q5WOEAKlCtNBl9TsuafNIbV6/lnllZSzDpX7331mhRF9OyqvpPzxCmVVGfT16vOUGJwlLFrbIiAozYvdv0ssF6Zw0ow3jVMpedlgygRKcy1kMTkFu9Hk29mzZpHCp6pWmP/qSKKq2dCg1tROEiTMfLGJ0V0yKuGDXJE7LnIcGmFC7jDakNixTLUGPQe/LHVYZWdPGOIQwM2hokSWwwBFy592/KLN0UErjTZfaOQD86HVChBInegHzJLE0ER5anMVYrSkTdN6U0b04Tb17vACAinPmH9Oog1NAjuKHKJ/NMsTpM3N+LHjiWaXAEf+UbkqfKFuzSrmCJ547GHhnjy4pFExTzlovjjqWDFuuO4arYNZQGmIaXMXqvIRHaV5SmjEkGefjB0JG/PFS7+Ucg2E6Nx/lCNWFwOcyeipj25FpwZndO9KHqtQRrplMOAgtPw114nm9Ws5FkzTnLr/z4NmQ2gGj4yG0ASevNIJ5p5xNL+Qh+nTxXMxGJ9j3WIkeXKfx/cd+yB0hZrAce/v+x0jL/vAPWy7KKRnNhDAohUAUANg0FdgRtNTSvBSDe/dQQ/b9x7GUwTr6dgvRkhBp4w2xo8yXRu6CXMznv7K0KXLdYZvCi6ZKHbKP9GoZOU6bGi6DRiDdkiWatgWAdRtmtaVZDzu8UiJsjz0j77qmOUY6/Swba8hBCCiP6EEtSCKZj6IONqH4pJozkrPvMAgtXkiCdO/x22hZdb3FivS4Jnq7Cr8rBb+x5ApY6yKGb2f/5qOs+kN3eXxEyccZ4M6jNmM634H+v7idzqkdx5r9uYoX5AUzMfdcRn4ggiDZrn5KP97vk5wztuLtSYXVdok1BxG4WdfrZL0LVjTxBDBVq5S7Rcee6TMXUUK8A7Lgjx2QBd238hE0o/pt+EZlXVL3hv1int+22dOwWT9991dRKsJQd5XLXFMTcoR3Ni0ap2IJcTbQ4aHa6Fb/ZcmTazGhjpsINwTSZ06do+CEcZxlgUMfSXb6qxXZXFzCkxkuolD25sqVfyFtB/ePRID4qVMCayH3Rz3BY6J+MmC5B6tNvRPoBnQConZjC8xkrGre7n2DAFPR6gkZtws9EWrzBugdGnu2VGMioICIfehUiXaNKnrS4LjBRFz7l9//82mzc9L7WucjnI+panhoQgl7hvtqB/aoaogMeQG1YOJw7HEm3q+WPGtXl4lBS0RIsGdzq358rhxT5ky9kWK6SRuNw2JclC3MDz3DgYtV+SvAgSNVUHKn3vq8bUbBgmNSDh55nyh4XR8POC5p6qadmrTFwylp7llkFayARda5VY5VE0Qh6YsKWdNLnP2rNM6JHWSxV9cdXScKHOVViK1kapH1yE9C2FWMMuVFrUJbya6uR+37+Km8Lv/wEHTriq+e9rEJGrXqIxtTdzu1CF8VP/OAfIUsyulzWwLqkzQswESKJTe+/hzR2V641HEyYylBcnaVP44aroPlRFkyhCQdEnqMy6nuibpEGstjzqOGeMG9zCdtPVyuJqwn0MAcsj7WiFYwoy+R4oMtnmA9ZXrOfapCTY376+5TCbY0F0hZj03I17N9cpd20+J5zpvvkiqfKQTMvVrV348Py4/l0ZUaqJa5RHnDSldsjiKKjOxq1Tg3eOXj6CSS1W35Nt37tYLQTj8Y8xT0A5Dgcku3SuBOTXPjaSj84g9NKdp0jpgk5+qIKlnITxbmRUOHT7KZgLOovpx82yCNOJkvy4tsTjpEot/gm7kE2zuWSFJbtkKw4L3aPkHB3R9ETnL4ZLteXVfhbpNMXc2vipTzrszbkiPei08NjFA3W/4hKmjY02pZic8zHibmCWJpMVkJ50U88r1m8j+pbnu59iIhNxhIu97DLs091DKwoMdkOcN9iykZ5PHs0T7upbJkqiDGRd2ycuJ8RovS1xb3A15Smo0aIM6WVQk5kKEtwrPtLuJljg2EW4WqTUhDJnMLE7etOf9MuVoT87oyUMVCBzRug8coxIQGnBSavMdFTYBI8a/LtnCtbIvAoGoy4uNOvQZLhXwQ8JbNjHSpdlWt8C+ru6r3Fyz0VMjMXgKDb6au8uzXRVrwgp8z3hX4QILXx+Lc+u36zY5PMaRxJGEgs0R6R5VgiWm/4Pb996zOTZ9Fj9fe1nPJrohMDednjUdheb9Nc0+jmqBHMawS7zttSp6DaWDIlKZ+25taTAVYy+eIoMRR2FORtsJoQY+OSS0SyugyUaVSZYEVjbUzA6xkQ90YASgMptHlWhOn/nXNM5qV74IT96hlf0zU60W+YQ5EU9uaNzDoGeDk2b/ERO1Wa8OL1R/tLwCa6q2TV2N1lcCgWLO2x/oIUoY3Cqwm2tJsIT52piLd+D9sMybAR1u7XbgXWlNNScqa9BTDgJ11tx3PsTU+cB9d8ExMSJRgSF9s2Z9ryGvqBh+6IjTKoI1CZMmflee99pxlUAOuTWquDznBB0f74hi+o/9f5YsXtSxg6S8UZuerKAo91lmArkKddQ65z+Tprs38/6anMddM8GSGN3ifedsl1L1j30HEmyjFUzJNmUwSUxNCzWoebpMc5U/zzemy9rL64eFFB8IVBLYiHB7wkuccA68E3RgWMNFnLnZsOQE665lzk57jj7CVJL4lxODnTuvpckrJ4/oTZCl8kp6Y+tq9okembXT07tlzJTZsuPDoihNSEXBZ8XM5kHR5mtjvk6Bd2IaSHGdUU4XeA/umppDU03k7jpS0qxDX2LMUNyzE0dSk0K4EtxnwtCe2ipfntxK8zwTFPBAlRirfZnqDRyOfVotWEJd62mobnnQoApPJAjlD5ffyAeffCmvp5+dpXsY6j8UoNuA9mCuPRnTx5rX9WxQRAy7rB73/XLoT5ev9NUefNkCo4fSCgmbOEyRUpulSIHfnD73FBPXYZyMJ/cdiPGKkB+cAWWn8/6SZezFTPMUFXhQ8H0d0rNdXPUYKyp0kdtjYlTlR4If4o7O+58UKQSNERdolpp8xCwX2v9ZqcObj2NHhLNdc63yHKqPe+iGxFny1cp4N0zUzfcVi/Eo8vUDnoRylXi09vhpbzjqYOSZOvstComIlY9TS4W+wyeY8dqOVv4PTQnFz/7GTycfxqW/pA5u2H5qBn5K909q8/Fsi6FMPQqo4IhU0c0ieg/T6XLC9LnY7ju1bAhLRfycOudtz86l8M+Dh80Hw09NM83PnYULaE365x3EtZmoBC0U4sH7imENw2UNC77jlJ9D5XqmIsVPfT1lrj1BWd60ByVi2GXRwgXUGRhriWNjK1VZB5p26Iu60HT1Ml8kT/2ryVPOEipl/OCFrkeoXZQ2iaXLVuhhxbIxITf6o5+H1hIIvPz0UFZ7ngydGpod0xSrNSEGjp5M3AXmV7PwjMstxjxr0uY0tRzTZKmq9crVaFineWeHR6fWiQTCfCsSvIn+B+xwgzV5mflNPunkn9OnN27ZZnboyax53jr3G0k1GC4erOxLCOnRVm17DSUbgB4GTmQwpAzzdQqwB14HM/9Auf/dG2BD/9U0PYKpc3c3MXFzO6K/99Hn0uTh0vHuzGzex0+bS7gEaZCEZfDJb3fPlOC9UK9ltzLV6t9f6VlTOetZmUKTWav9jYA9ib7Dn8ndEOs58bLY5YNS9R44eFi6yuM355P7cur8z6kM6UP3saV5DLtEe1Wr2qN6GUJoWFv0UAg+p8xagUhoRnSYdQisNg+FNr1DHC8DC7LGvUyeMV9d1rUTPqHHF+DkkMCS/913l56CQF3i5n2qC2PtEjM398O8YU3a9zlwyDk1ckaI4FnpoVLmJRwDNk9Bm2fdc4fvOGLGHc0j5/D8iZy3O5ZBmouBaRXUKZjOWFoIcY0RdiXu0+ZZ9MvmTT/5zz+yIdCoMCoTG0OYLOUoXggIkeborMlnLjROM0TOmN0GSJtShirFAmxLNdOfl31PsPKOrwvx3MopVho/G1XlF8AydkA37Y1byaovYiNSAtYwPfXxZ19DP1/nCXbu4vxkquC0GgTNRe8B7ORDYFUzz7ppE0lZbtds2Iy6jJrNG9Ty9GRyd5JgCc+YGrLMcLsEG1LhoLEhDtmULRdK3bt3byiWBVQDG8/FF7Ldxl5JEHSWuK+YIyhJogSCCCXnEl6Qu37dyz0gH5p0hHiPMZqlntuMYzOfxWCZenvxUqL9pQL+9FmzZEGiJrIbHRk/KIaXfLECew43ZtmKb/93X7HMGWPdzdgXN27bW94fePTEYb2ujEvgOmXWAnk/ueu4tul2g7d63LS54llZu3olbK9yXR5BXvI1574NQodkdihy+61Zs2QSEweHJOChQ24tHsU02bl7Dzk+MB+9tWipMgJsRCjasINxORKi7Nj1K/qXVXG5o1m+cmbLitMvOoEr0qalE1LLTI/Lic0hPNozQFNGeFH+AgUukNwd1iQVA9mWZs921dFjJ7g7RNdu3/krMsisBe+rBoaFgRvBXSbPCMsVWGEVxeYgUwAuGAdp1niWAIpomTff+1hOYZQjByCbQzlkB0NgiTlxnmMybOPQzgf/Tp76h9wQ7BzxTpdtKT2XvLco+QBpglKMgAK1xm79acfOX1DmpDx85CjpHgI0m3IhFQ8ZVeXzV0pzYJ70hNff1PhukhWYrr6e9QMsxJlf40F5Gn0FwBAwwiPH2wosGNMIWsdHHWLwy6+SBZFrwStfHthN0aaETHfF7yxcvGghdL6yaevYor6nYRo3Bn3saciOzVeEu0wqzw3Xoh+TV5UnisiiMZNn0gPOXqY5QSrzkpIgg1cvKKMrbbf89LN+kwMfCRWMpFv/fwm1UqMxIQOJWdtSmrID2U0kfEIuD+hkkeKtEDkOzSDB3ZyiSZHS1X0Nkdtc76mqDVv39FUBh54nqjwsZ9lq1X+xu0oZ3GB2W6gsNTESSvRB3Vub4eH3VXxG7o30AM8tUjD/2f/OLl+1Vl57WP+MVwaZgLLq8hSa2TdYlnkW8euUJDFsUlgJxArRuF1vU4vvmMV3S+cVK1/TUaiH4CP6UyCqUqeFzgJAiBDVapFAoImu07yLr5EwWp4wEzFHTTZTvFemBs2sALzffDCbEnJksAfUU+B8ba6c3Ca4IYUNa1fns6jmLoG1rV3Tei907q9NlOBGixchkh27BC03CXRhAZrLzenzwMyZONTsxz/NooKOVeqgm0vaDGlI05IOkgxejtR25qh4wMZMmaVBlnoK2aJGpYdQC5pCn56FkMebap+9NdXTOI60bmb2Ql+MDsTswU0DJuKkvsVU4Plh8KbTBYV4NbXuMUg8VRDJCcpyd+WrBL8IcsFwFtFy3uRYfzJflR3lhUtV05KvF830hYzW8UPEuxBRiXxCN15/7ctTZwsTYWIyN7y+Ozavb/rr8z5QH49c1StziBCHjMmpdOeCcCE8K5hrF9EyeI2xziOLwVxAXEHnorWqP1qtYllPBQcuKT/9vIs0JziXaaQHY3jx+doEgZi8kkL4IJlyMKMjmcqLCsOVt5RB4oRhWmxFXOd5ckxNFHPiCuprav/8c4bL8cODwtMw6fU312/+kcjCCIwZl+Xd10Qol2fdEwfQkz2aZ3OA0i0PwctkX4btCtoaA8PN7dqqEaGBj5QuycZF1jkWWvRZRPsAINflr9wCfa5ikE2RwnPkUifwcEYzPOlwkEF1236O2TAxd/hIS0MFf250if1DIJCwS/ZDftgldwfZjV/0Zj/v+uXAwSMghgUVWc/zfZFh8YKJKMDIPXkl1cgVxBtKmihpYqbg9DU3kqEsnT+FnQrfLLo6ZzZkLLcEhzamXsuu7E1RjrHHxweL2fnS7LkvBEeWQpx23Wf9lJg6DSBKDK/kKudJl3pVLMW/7PkN3Sqp1Jm8Pv1aIckJBEAicCRHwxVpL+e6prOReTlUjTlzZBOlMvsyNs5srBghZsBc1+R0uJqbDYVGG4DrA0kxYKlcgtfG4RTmbmJLEo8A7JIdNPn5s2e9Cn1Wrqtzmh5FmHp51d3vWOKv66eHirWaqk/uus8W+GIf7h54Vn/97Xc0A34Yk7tVgCWooWo2inHwgB0vf2+GY+EPsBNf1TC/jJ48k7Pvzxp3fa6cC95fSt48c89uNpS9Jg4n7j21WS1AeszkWbg9kYkRnCvXjlFDI0+Yua/89INKtGyNhuJM+uV7r6tBzE8TPUUWq0eeaiKHWAuJcNFTIRDnSZfaHtu/2/yvZ8NB8PIghji+A+F5obKGFZK1gkwWktHes7K7kHfS9A5zV7Al4UCAXbbaMdz9m7Ke+2yYSlBhK7vElc3P8BwD4Fn1tZY7aoZwSBg4ogBaDkT4pV+s4POTIXTi2YT9+4JFSziFMZ23m20Wji53Fhrpi11+t+4HKvPpGM/egi3EFRpVDCulJnlAhxZgJ9h1hVeixAuKV9L/D8bnkQNMUO9nVDGWcftjEbgEESCyRWetCVy05GIR7LJ1gz997sIkHAZqLlkeHqtQFtZJBkWkLbQinpfAvUxyWt/vSnjsWT/BQlRezRs8zXWxoFIZm0TgSw5Dlf6D+qiZNMG5QscWrEldGyph2aVCYYlLC4HbbsmrEza/Oa6FF4tAyY4AyNWRMVVnl/jBEBTHBp9+2NvySS68hVo1ftZXt7g0IN4mVbQSV0FbigqGKHZh2WZojK8xSDkrmTg2MZgQ4t/XboiRkeUnkM1rXF3v/y279MbFlkY9AqZgJRvPyJkyob0yGM8cmqGNE0/kVo3r0JbIVMLzcOHwJd9hupDo1do1KoV2LV+t9LPA5R68z1cdR/nr896TkmbP+fRIcTTRQwySGnSDnUedDrVCsIRll8EiZutHCQJowVRthyUqtFDIMGFxT9HC4oqPm2QgoTUBDqNWtYorFs+a/vIA/GnEKdDdkG1413MusWzV+XVXCLkEn2wxuKPExDaL7Cw5TP10iIJV3GNRUPgPovXsRH1jOVu0UAHPOkEVWnYZFFy2clQhYCaHNz/oGAmT7Nm+Ga6mjIRP/ahJKvEDg0+RwciPPw1cjPgZtu3d28QalBN/UemB77oK8ViF0igxyZykkQKelyBdt8QywLUb1a7hWcd/IXPRCsXuuF3pkAnLLkOGzjZM9giYH4mSkLbImRLBoCP7dSJQGB0igWcJBiMm1cj5jgsuPm9MHKrpkZKqZ4m4Y1PMMkBEHM62fpgg88X1nbnjsdCvc0vT7Szw8azbuFUr4/6sdMiEZZchQ2cbJnsE2POK9YOZqJIrcmZFprLxQ3rAX5CSXnl1zgUbGO6QeXJfl+SXE0sLUQZAzZfH+VS9qT52XG7UxBnMmrtDNGewEZPalX5wDdOZGRmoFYIlLLsMFjFbP3oQwAlcPwVKbNgFk+ACR5CwtzkThlQ18tEE3jbSaj5a7n+IiigW6rfqjgskEVx+RkjsP9pbvoqsGcX8VPY8RQiThgg6sud41g+k0DuqJ5CWto5FIAoQwEmFfGUykcE92/JKR8GkInkK7MGJhuIjeqHtrwOfGqG3E6bPk/qfvjU18WZxurLSZeD425pRiADxzux2ZWIzjCRSUTjVyJgSG3BkzHDzShIXEMQpMyaKL0l4Jb1ZdhkZD5EdxUVCgBDmpvWekouLUfgiDcReNikR+OjzrzATSY9JmODGssukvEm2r+SIABEmKmDygd/kOAU7ZgcC0+e+KyUE4JvuYo5qwR5adhksYrZ+tCFAmsEWDWrJrEgs5k78Hm0Tjvb5kM5dUgIyUfzbJRVhkkzassskgdF2krwRwPSsET6SAyJ5z+fSHv3sBYsEAPyHCMBPQjAsu0xCMG1XyRUBfMJbNIwVMKe98Y7nx3uT69wusXGT/ZYvxcqkm9ePvadJhYFll0mFpO0neSPw2CNlJOgQE8EbVoOZbG+mOg+xYzA/AJEkE7LsMklgtJ0kewQwkQ/o1kqCfIaNm+bru7LJfp5RPQHSkYguBef2zi0bJvlcLbtMckhth8kVAb5217dTCxl9u95D1RMluc7nEhs3KTlIRyKTHtyjbTg+mWPZ5SX2TNnp+kWA5DfVHi1HFWL1Bob0BXO/3duT4UKA71p37DtCVjg+LkSikHBcybLLcKBq+0zGCHRq2VC+UsAX2PlqdjKeyaU0dD7RTN45ZsynjPlucJimbmPGwwSs7TYZI3D46LGGrXuK796i2eN8ZR1PxjOMrqGv/G59o7a9mBO8cljv9vg5hGl+VroME7C222SMAInWp4zsI+nFOvUdwXe3k/Fkon3o+w8c6thvBLMsfX/xsPJKLmHZZbQ/TXZ+ISFwVeZMU0b0IRkEgeTLV64JqQ/b6EIgMOPNd/ms7oMlig3r0yF8cqXMxG7GL8QdtddIpgicPHmKjTkR5eF+D5MpPpEwbJIPxdyjLJn5dlu4x2PZZbgRtv1bBCwCUYKA3YxHyY2007AIWATCjYBll+FG2PZvEbAIRAkCll1GyY2007AIWATCjYBll+FG2PZvEbAIRAkCll1GyY2007AIWATCjYBll+FG2PZvEbAIRAkCll1GyY2007AIWATCjYBll+FG2PZvEbAIRAkCll1GyY2007AIWATCjYBll+FG2PZvEbAIRAkCll1GyY2007AIWATCjYBll+FG2PZvEbAIRAkCll1GyY2007AIWATCjYBll+FG2PZvEbAIRAkCll1GyY2007AIWATCjYBll+FG2PZvEbAIRAkCll1GyY2007AIWATCjYBll+FG2PZvEbAIRAkCll1GyY2007AIWATCjYBll+FG2PZvEbAIRAkCll1GyY2007AIWATCjYBll+FG2PZvEbAIRAkCll1GyY2007AIWATCjYBll+FG2PZvEbAIRAkCll1GyY2007AIWATCjYBll+FG2PZvEbAIRAkCll1GyY2007AIWATCjYBll+FG2PZvEbAIRAkCll1GyY2007AIWATCjYBll+FG2PZvEbAIRAkCll1GyY2007AIWATCjYBll+FG2PZvEbAIRAkCll1GyY2007AIWATCjYBll+FG2PZvEbAIRAkCll1GyY2007AIWATCjYBll+FG2PZvEbAIRAkCll1GyY2007AIWATCjYBll+FG2PZvEbAIRAkCll1GyY2007AIWATCjYBll+FG2PZvEbAIRAkCll1GyY2007AIWATCjYBll+FG2PZvEbAIRAkCll1GyY2007AIWATCjYBll+FG2PZvEbAIRAkCll1GyY2007AIWATCjYBll+FG2PZvEbAIRAkCll1GyY2007AIWATCjYBll+FG2PZvEbAIRAkCll1GyY2007AIWATCjYBll+FG2PZvEbAIRAkCll1GyY2007AIWATCjYBll+FG2PZvEbAIRAkCll1GyY2007AIWATCjYBll+FG2PZvEbAIRAkCll1GyY2007AIWATCjYBll+FG2PZvEbAIRAkCll1GyY2007AIWATCjYBll+FG2PZvEbAIRAkCll1GyY2007AIWATCjYBll+FG2PZvEbAIRAkCll1GyY2007AIWATCjYBll+FG2PZvEbAIRAkCll1GyY2007AIWATCjYBll+FG2PZvEbAIRAkCll1GyY2007AIWATCjYBll+FG2PZvEbAIRAkCll1GyY2007AIWATCjYBll+FG2PYf5Qjs+e2P8k80KlyqGkSUTzU5T69Zx37cow8+WZ6YSVh2mRj0bNtLHYG9v++r17LbH/sPPFKm5HW5rr7U4Yjg+Vd5pDSj69h3+Meffx3yMFP37t075Ma2oUXgUkZg7x/767boCq8sdNvNY17qkiZNmksZjQif+y033ZgqVarVazfCLqHz5bkhhAFb6TIE0GwTi0CK3/f9Wbd5F3hl1qsyjxnQ9Yor0lpQIhyBJnWfrPxwKQbZtueQz75aFcJoU549ezaEZraJReBSRuDMmX/rtey6/ocfAWHupGG335rvUkYjGc391Kl/nmrcfvvOXxjzotnjcl+XK6jBW+kyKLhsZYtADAKTZrwpvPKZ6pUsr0xGz0TatJd3bf28DLhT3xEse0EN3rLLoOCylS0CKdZs2Dx+2lyASJ/uyuYNnraIJC8E7ilaGLscY9645SeWvaAGb9llUHDZypc6AkePHe/YZ7ig0Kllw0wZM1zqiFyQ+R8+emzfnweT6lLtmtWTrlj21m7YEni3ll0GjpWtaRFIMXryTMw7AIE1vGqFMhaRC4AAtuz/ValbrkbDnbv3JMnlcl2d48Xna0tXXQeMOn36TIDdWnYZIFC2mkUgxS97f5+38CMBokur53FMsaBcAATeePsDuUoSWqXrPvnY1Tmy0e2ve/9496PPApyFvd8BAmWrWQRSTJ4xX1B4tPyDRW7PbxG5MAg8UrbkjTdc26Zp3by5r0uqK2Lz6diigfQ2ZsqsU/+cDqRn60gUCEq2jkUgxa5ff6tc+wUBYsqIPvcWK2JBSdYI/HP69IOP1Tvx19/MonvbJk9VrZDgdKx0mSBEtoJFIAaByXFWVPzS776zoAUluSNw+WWXVXm4tMxi3GtvnDx5KsEZWXaZIES2gkUgxW9/7F/4YayG6/GK5VKnTm1BuQAIHDp8dPX3G/FGCNO1UKpIzwcPHXl/ybIEr2LZZYIQ2QoWgRRLlq1QFCqUjfHasz9hReCvv08OGjPlwar1GrTqUbJyHaS/cFzujoK3isGHzgMx+Fh2GY67YPuMNgRU9MDmUOCWmyJweljtp73xzvcbg/AijMBZyJDQKhLWPWvBon6dW/TuEKMvxkHyx+07HQP+999/X5/3Lmwu5EjuVKlSVq9UXrrFAZOcKY5LOA5tDhUHIPbQIuBEYPee3zb/+LOU1qj0kPN0YMc/bN3+zZr1u37Zu2P3rwcPH+VVp514/F12WRp29/y7OW/ugrfeXCB/3ltvzntV5kyBdRxTa9vPu+o074LVokfbpncWui3whpFZc+47H361au20Mf2L3VFQueTuPb/nz5fHHDDovTr7LfbRq9Zu7NuxBbzPPBsgXaHsAxKjRf2ly1bUrfmYn4aWXfoBJyynWAnZaKCOOXb8xJFjx2+8PlfO7DH+X/YnYhFY8nn8TvyRMvcHNU5YGF7Wc95erAzXT3NSP3z02VdSocEz1cmgk+7KK/zUl1OHjhwl9y0XKn1/8SeqPJxg/QivABN8ZeocQgDglQyVUEUZcK6rsztGThao0f07s04s/ODTa3Jka9HwGUeFQA5vuvH6AvlvkruDejqy2OWBQ4c3bdlevGjBK69I+DkIZLbJq07dFl0cQVc8Fv27vJi8ZnEhR8uiAmLomDJnumjhhu99/LlMGZv4tdfkDHD6LIq89uwWA6zvqDZ19lvvfPDJS11efODeuxynzEOk1A69h0keub6dQ5SwzA4vOo2QSMjNQ6Vil6U163+QId12c1732BCl27/w3LBx0ya+/ub1116NFc5dJ8GSu+8oKOwSSZbAoTy+vTsvqHQ5Yfo8HiBGT26Clwd2uwS9MX7cvstx8/77LwlDFRx9J/vDtxd/0nPwyzKNIT3bVSz3wIWf0p8HD0u+Ly5N4GOAA+DFa9trKFtvqU9OB9zakZtGTZqhPcyeMOTI0WPkzdz7+/7f9u1H7UiEiZ6FYJuJ2Pj+rHFsQcxykx4x4fWVazZQMrJfp6D272YnF57GiXXewg/ZaSFEZ8+axRwAegnyPGnJlyvXQD9Yopgvb4Q6Tz727febPv96dY9BL+fKmSMEf9hbjT3+t+s2RQS7REwQXsnk2TiwPbm47PL4ib9+/HlXpgzpURjpvQk3Max3+/0HDi1askwe8XBfLln3/99//+kDw0Ree+Pti8IuVXfGGG7Pny8QSDdt/enpxh2kJvlou7VunCF9Og5Xfrdem7MBLFzgFj2EQE5c/MmXoyfFxqTrqeHjp5GqXQ9N4v2Pl4n02ujZGncVLmCeimQaEaFphz6yNpCjpGm9mr5Gi/2KNYOzxe8s5KsO0ij7s0eeagxX6dhvxEdvTAw2VTPJ1bXzzdtildRaYhIXzjKOhsW8sK7YZuGFpMlXWK9F15ETX7+QF2VjVe3RckN7t7+QF02m1zp95l9JZiHjD0T3F46ZbjHeH4epwfNyuAq26jZITiFRDujaSnglJQiS2sTdFdITXtOL54x3qM9WrdnguQUhV+PQca9Jh6Y4ppeIWGLr9h0qR/tXzq5ZF7sTv6vI7X6mg6Lm6WoVqQBvnf/+Ej81PU+hvtTy7zduVdpNXDh2iZzMiqojKFXibqUvCnER+TWbJtQRF2XWyeiiaS+/DNuFDvihUiWUvpDEpq3b9XK3BLARQeOkXL5lo2dSpow317Kb0a7yGxKNFkIQatK2ad2iheOt2whN7NnNOkJ/unylSF4swDmyXeWuELElfDBHx+Zfv7F63SapmaDz1tOPx7BLfl5+dTZaY6ED/Is0qp/uYTNBxnVfDS8cu8Rbgj0Fu4YyD9xDcLsmUPI1snCXb92+M9yX8NM/Ef5+ztpTgsBLXV/E3MkDw9+LZRBbtyle3MjtW4eot2zhh58K3bV14/uK3aHlEGrkhb7J96e1EDMdJouMGdKb/Qg9c/57QtSuUdl9NpJLvl79vQ4Pxyml3cSX33xHIXsyuIf7rFlyTc7s8h0eVhf8kMxTgdCFDMXITzt3+2qSwCB8NQutnCm1ev7Z0NombSt0zNHh0Ju0sERabyi2cKa5iKNiZ62iIhJfIBnbnn/2iTRpUpf7330Yas2Ro4pVIy/l+YwNoFlNaJM/ImLToaMOKjZxsWCXeuvNeRxnI/kQHQI+lTJCNJJ+5AbcXUV8vi+wbCa1qj2KMpeeJ74+r95TVYNyw8TsvjAOtS3bdvhi4heUXcaN5+L/T0ybWi0v/mjsCCIVgRDsPA1rV/ecze5ffzPLER3MQwe9dsNmLUG4VloJTQFZqkQxLUwWBIpLHed9d58nfWu5ELq6BGgTLhj3gTkEzJ927HJrhx39m4f588Vbe374cXuNFN7BCJciu0S18dKoSSZYlrYIeCJgahv9MzjP5mah2RWCqqnTNKtBs/XRz7ri6flw6VgPRK1GjOBbi5bKIcKllgdC8BWH7Tt2b9uxe9/+g1kyZ2Sfaxo6AukhhDpc9O+/T54913L5NzGOQfJzTc5se3/fl+KcepdoDQcmq9bEqDjR8nt6XMb1Ef8/SoyS9xQV0RV/oKDY5dU54lcv4q/iOz2fSgMnZsQEmRw5epxZ8Yums9lzT2GM27xtOw5N3DCchH19YRL78jffrf/2+5iJgTtOOVQ2DfNyuT2//UH/R48fP3rshFwLZ6uqFcueP5j4owC7jW+QIsXfJ0/infPNt+vEt/HqnNl4vvPdeAMmAlPgxyRHunkR8mn+99+nzEDRVClT+norQGbF6nVfrV67+9e91Lk5743M93/33mV2bo5HaHFXwrrKxG+8/tp8ea5HqezLg8zRHI+/K9JernZVx9mLe8hGiRtKVJLcTWwRxe8sKGEYvMzE5KGn+/PAocIF8iMamNZP3GVgHD/t2I3nHV5c1+XKyaemzL2nzItusSPTf8xVeCyPHEuZKmWDWtV01oEM4MDBwzy3GBP8eNJph57EwcMxXizyk8gbgcwS11OKW/PlVdpNwArVcExsn/u623f8oq1M86kWehJoA2bOf3/oK7HGdKnDIQ/k1FH9eM09WyW+EA9CPh3h2U+3AWO0fN6U4Yzkm2/X35z3BmIBYvbsq2P27Oh/A3xfqFy0cAFhl7yqQXkLmI8orn46KgeRZtGSL/qNmOAoZUFr0LqH8hTOomt3aJGQ0foMG7946RfadsW364SmZuO6T2Lj01M1GrSBL+shBLfHk10G1a12CHvt1G+EPmRaDoGzxeAebQCdBaBxu14Oh0fSQz1Ss7FZf8Oyt81DoVFOE/N//hSWc4qEC0N7tvN8ZGGUpFTRrF/aJ89EtzbnXVFPKcET1rn/yC9WxOi52zatV7/W43oqQohKz8QmytXxdGhev1CB/DxLRKRpoRCYbvt0bI7swN6215BXTIsHFRAfCMxwRO/hTkichtnP1TmymewyqAGQRgHDC6Z2s8NA6OPH/9Jq6dPF+E6G/GPKLDfflNtXP3ga9h46Ts4S8VXq/rvdNdU3kAcvQBcLVqnmnV8SVoLYxR3B+QbnkFdnvcXf3sPG+XLtdF892BLTfcpPW76fU6tJR54QdL4fzJkwfe5C4T8NnolfI/00l1N3FMwvBF7rBAUkaCDSDk0YeXO13EGk+e/sf44iDpu078NY0TFzVTmLeb7KI6WvvTqHHP6869cXuw0U9R/o8xzfclPu5SvXjJwYE7TAg776+02vje6v2tbzGY304fE32G7pgp3L5JkLxk6ZJd0hSjz1eAVkipOn/hEGx0Radx/84dyJ6a+80sErPUbgKmJNnjRjvvpLY9lHooTzjpkyE107CNR8vt3EYb3uL36n2dTBvuEFt92Sl1VrxervOUVOKrOym8ZdWXglp0ZMmF66ZPEkTLvvvlywJWDuboIg1qxDX5Yf1gPZP37y5UrR/RGcUyB/vozp03V5aRQN2QAWL1qIt4j4aO4OzwbrLgI75drtmXMZKPTQQQQ7AOQ1ZDQYuqOfBA+PHj+hdcw3SgsDJBgw910rF/WRBQPzY6vusT6bqCx7tXeuSdIDbvBCFC0UqGv6jDffE16JjNK3Y3OxWSHjowMF/8+Wr0Ja97WD1GGHRrDX/OLd6bQ9+99Zvjncpsdg6YctbK3qjwpNehFMavK0wOZ4/iX8qWWj2kF95MOMI9j1697AI1CuvCKtzg5AeOs9zXppqlUsV/aBe3b+srdDn+HCzmnG0HniB/doW7TcE9rLL3t+F3aJw/kzTTsKB0QL88qg7rKZgm/mzX09bJQmqGk//Gz5o+X+J83BC+XFmvWb5YXRPk0ihG5pzpugvBIhome7piK6k89VRkgdCB5EuL/cNkpIOi+XZvyjjZAJh/aEOiavNOPwJo/o+1zLriIoDRg9+Z1pY9R8iXKjdrNO0j+8Y3ifDvyVwxYNamG88wOCVHNY7Tds/jGi2CUoLXtnGvxx1vz31SsYOYXB42LdqvGzsrHARlyxVlOxLA+IUxYP7dWOHDAyzScqP8S2Q2jWPJNdskF5vEJZnHi6DxorFcy/IQwAcZX3072xNbt10+gEtDB9utCzHOz5bZ8+jeyr3Noqvgo7/72PNTUOaWvJXeZLOFJBNUB3S/RUw8fHMCx+OrVooIyAhG86qrDmcNDozBhNZdwPEoaWU4bwzmuCqMsD06nvCFDCi+Zx3/q6uG7O+9/8jjEKnPPO+T3giWI5VDTY43o+KqlQvZERB/1RnSeqmB3yDWXef802zOg1ymrCtHnaL95wpuKJJfHeuwpLPyPGT2ehEBpc0EfgGGW+EubloEPoFpWo7lyYLZ8PVjXHFWnjlws6ZyvHX4Yhv3ppBq+FEFkyZdRTEKg1Va5kWTaD8NjZdYj7NBIypnrb0arfiInaSd9OLZRXSiEgJLjxKVPyPGMoCmztMEIIngeW7rZx32uWUTHOds2eUyUMb3vDZ84zE7PpVl5JE9ZXYoGlLesrz6jOjrcXhSOYs55poUmEMADHImT25os22WW6REQWiNwkVyF+XFZldhsI43MXftiu11C+Cqu8ckC3VqiPFEb32FCjS6HJHdzVtOQnQ9eJLljL/4773AIgB8h5tW1oxMo167Xh7XGGbClhJzpt7EvIFq0b1xnUvc2Hb0xA+lHOrq0SJHgwpM6RY0GwS5qY/FH5m+Ny8ZbxLFky6TmUJjmzZ+UQub1MyeJo3LnHstbB/me/tUhqwhndAvxjFcrInpdVAgnfwSx87WhC63b89Hk6ZtYi8+m5KksmJHkRPJH5E4wK0H5MggBePaz+aDmlhWBLxb0RkZznoEblGOcDsnWhlJAKkljB0YrDkvcmatvTgwAAFklJREFUwP7KPnAvgyfvKRroRrVrZLsqi7uTSCgxFeSMB26o6hcZ3g3XXaPjBKs6T563JHMqzw3Xqdrh0OEjjg6p4F9j6KjvfwB+VPg6SAfBk68lvh5dreCH+C4urQ51bs9/U5+h4z79apVu5rQhQZDNGzx9Xa7zHDb1rBJ4gwptSip61k2gD9XCtr2G1KtZFWUIL/gL9Z/GOH7t1TmrVy6vFUyCPSkWuTw3XCv83TwVAo31Ru91ibvvcK8HCCtuN4BgLwQmAmxQ0iVXyZwpo+yEoDEeiIDluHo8uzRP3BaXLxrZ0xQHqGN65Bf2+nboLXlv1K7YgzjYpUp/WkeIELrlXpLOU/vhBigtROM6T9SuUQm1kbluOOr4OURBaRqyyNjqqMwzhBsAeh/K0WbI2aVfxA/pcReHdfTg6xC5nsHz66tChJSbbxHc0HGvGaQqKKDLlrzHLSykSRP/BP77n4caHa2Wn8kGNQDP/v10zimM+1oh3ZUhxq3yIGkydnojcY72KQSMuNJDD+JZ7RY+HDU5pDeVfTJm9Ij2cTdRkwOnCL3HigiBlRKnkTZN6vp6OxD2azRojfkUfX2SRJds+WmHjg1+rXTSElmzZBKbimfkqJ9rmTiYGx2zSfzDapb6iRPAGqM1p8xc8F1cUKcW6gacEjbLWu6fCKHbH378WZ8bOvd0AEqMRPDH/viECPTfrGNf9xRYe6WQpxC+zNvLqLRabkO20kIHcTaFh9nEUSdiD01uRRYs81DGnDJlKh18Pq+Aa4c0qpWV8LW+xvWfUmsmOADMglo5QMJ8wELWXa7/YatbkER4QWpDLkEdgcXGl5rSPU4UkVqIJ5bSfgj8FnkRzLlQGZ7C+/vhp8vHDe7hqRknf5K4mviJofZzUfcpdTvnlPicueskviRLXBZ6VVkE2KcJpmniM5t7s0u0eGYlk96+c7d56Eh2a56Cdj8Evl6PELplp6+X42kINmuTtvVFYFkzT/mfqfBlHixZ2aRhhsS5nphXj0za5I+efC11qnh2aUqaOh2zlSc38/XASA9BDcDTnq4jCR9hfhaNL89UrVCWa3miEcgYzFmY0/fTlldj3JAe5N9y14Eh9hs+Yerofu5TBW/Lh1Ua/57nnq7qPhtCiam4LBhYKrwQrpIqboX+91+PzUqgHXo+i9y1QNvH1TMVQL3aN1NbUNz58/4P3NMthG5P/3NaL5Y91IwsbG20Ewdh6j7YaeIL5qhgHuLfzs++AwfNQpMXmOVRSXvyNbNQn2Nz+uBmHrrpADkCDc1raT+ehXo2QcIUyo6f+DsE8zEqI3MnjjUsZEYpo5WFWegTf/n0EHRMDTvtwtfH4hJLuIvp0kQ1zE1bf9rp3lBiAZ41Ptbpx9FbCIc4fqriEpuH/+COEPrXJmqdC1Cxqw1N05Avjbk3u/TznhPKot7gZCR06Nr12r6IlCm8X48Qur3M8Do2dUy+Lu1Zbq7V5J1f8d16Am/wE6CyqXFnMxXITB2KNmwXCX4ywQ+/9hxwxBZ6ckOJb5MxezLGwLlhghNPcAA+JAZ/HWMw1D0s3sshmI/hTboTxxPAU2XkbwSucyCmBkZCxVznzytgQ0p6HjY9D9x3FxyzTdO6nD558hQfWSNeQAd26MiR85qF4WDzNlNxGes8I9eBjbKEODyX5RSBbZxy+Kv4H50GYpnriv8mctYE05fiJX6vZPaYOrV3OXUI/tOasAOlE0mE0K2ZKY9n2pd21v/AzpyJdXWiGncU90D9jhWqJbNtIBqcHNmymjfJIWyavUUfTZDixZ1UOAZgvqhYS0OYoLkTT6qUnaor86Vi03ESOECAyeSZ89mJq9KTvTk+yBOG9tRq+fLkVloIjOk7du9xFCbm8DzFpZHrF+NH8879PT2R33z3ozLV6hNACdMM/NKahtzURQbSXBtSOYMPpbBPtujrAkVuv0VPSZyAHpoENhD8ljVayzzlSYfQLWZE9fGkT6LFPXvmKcGVXZ17HHVM4U6sLvrWIcybpl7TF8TRCZ+gmvPWYgRVVkKch/QsWQyU9kWc9Yqqksp8Bs5PPJavDiOr3JDoDDJ+jKZ0f9bLMh5fNTTK86oBd4VzidYN4V44duIVjGdDuw2B0I/b6MbTsxPMp2a8KcoEs9plcT4JBB2aUjN9NmrT89FazR6r04IgAj+XYHaBMzKUAHp1FXTYoY+ePJNyR4C11OQ740KcPh2vdtNOfBEqMmfIkM5XHc9ybcjZDD58bOPZpfmw/udbS8q6pIn82GjgL+l57YGjJxPGRN58x1lfhuDQuq1R+WHt/413PlDaJIjAY9+h0MsplQHP/BsvXRJ3xFmyWmhzfB6Vdkd/yymcn3ENIbCHp4cSEh1qk4+Xfa20SZhyismvtQ4VWHJLP16/xKO1Cb3Q8kgjeNx1SCathSY31EKTSGQF86ImrZcw+/f17GllN2E6l4TALr/fFG8TT0ymD8fA4o2/53/QxVFt45ZtWuJ2RH/vo8/l7MOl4xd4nsaWXQeSrwh3cbb8vN6m4lV7g1j6xTeVar+A9EfgViBy6F9xKSPAQa2yY1+djQUVbu3IGCAXwk0deaV/55aYm8xL+6FVgqYOGW381HSccuwdlT84qsWzyzMGi/QTsYtaE18t7YXocoQgPRTi0y9XiuBZ6aFSjlN6qIublITWLeGbOjESfMx528kxT/1zWjI1lH8wnotxRdVLkr5IGZaMOXvWq3SQ+JyqgIkPpptz8YrCKKnPB+1E4Yv7p0a54pLptqfz1rXo/JJegmBNpZUwY8YJXwvkcdS2F5IwRTdPQ+R/Rg1zZdJBmq3MylrBz6NIHaN7Pg0Ws1w5fsw+9UY76vg5NFXPCe583f188sU3WvjkY48onUgCHaj0sG5TfBy6u09CAKSQd2TsgG5aARwQZabOeZsSRB9Tsvvmu3XsmomrKf9g7Kc+sAJpQyV47MmlIjYM/iIb6SlfhIaQiH8PPcxb+JEEzvbv0tLtsk4/BNS+M32MZyIeX1cxR+vpHeWr4fHzjWa+jDepW7ZqTaQ9l5m38APNHYI7MT5ABw8fRWJyG5jgIKfPnCEAnGujNCSGh6R7eIeK2p7DDn2G4X3ZvEEtDXHTUX7y5TeSYI112/EJpxC6ZfOLqfGT5SslnItU9eBOHnmZLfFerboNZHY8Xt3bNDF9pPf+tm/txi2MinGSdI/IfBz6JZ6yX+eWyoJp8uD9d8MopX848lVZMhOpIhGWLGV9h09YvnIt9Yf1ai9R+qh9/3ffXQveXyL+p+QUKHF3fGwsDgDwyg2btykgEkjAW50xfXoVbGcteN/8xG6hAje7neS1h4tCkOUBR6uPP/ua9H0yAPYy2DHQIGNJwPmcb3uQxu3txUvBXypgxs2aJQubu6xZMv958BDlxD7PXPC+uhOTguHyyy87fPQ4Wqc9v+/H8vbduh9QpAj4PGmoX8icwpPDXQ5hAMdPnNAB+NHOm3jykGum3mJFbvcVkWk2URqO0G3gGA00HNitNbPTs4khGDx7JnpgrcWH3Ne7jSYda+/Gzdt4FAm1RJuEdzDE4Jdf/XrV9zSHV/L9aoQ7HQxbY5Zzssat3/wj+iXKCfQgO4xWEIJUx1Nnx3Bb+YFjwnPN9yvuTPz/XGv+e0s4xqLCWzB8wnSC1jjke78PJt1nu4ipk4AXkswjnMZfPiGKIWmwIoA4WJO2TskHbF8aOUmPHQQtl86f4ijkkAVq0ow3NZ6aElgGbwsPhHyxj3Auwsndbhyd+o2UUBnPnkPrFi5PciozLFc8FXjZeMcAbuyALrq4yVxAp8qzzTkrh9QRVXSbJnWQE6VQ//Jit+89zFQ7iMjJdaWHeZOHO3K4wSVf6NhP+yfYHLcMtNqiS1LLpl4CAsQIFpYS7jpxxHr283dei6g4SHa4RUo7UdLRskYSoNKwdU8tcRD4n/FlbewPjnI9RKbgvZVwKS1UgvRXrZvUSeQAPHd/egklps5+S5JsURJscAtu3o3a9pKu+DiVOwBUrxIsAfu7q/yT0mrOxKGqCnT3w50aM2UWjE8fRanDE1ij0kMkBnQIQ8u+/pY3hVWBHFGk/KDyisWzTI2ENKfbKnVamC7Gb702yp03xDEe1GWjJs7QkcBA+aSwZxIJUqaylOJdr9t2R1e+DklCJrY13mLeZV/V3OXmt455l3mj3XUoiXUkAj4OzA0y8iP7ef56NoMP8nVgbP9TZi2QxxoUhKHAN/FXINmMm1fSlVo23B7snA2tW9j09LEvEd+t6ksJWmckrDBdWz3vdvJCt/3amP7oNIW5C69E7ej5lShyScydPJwEfHxIXoRBZZ2kFEE14Rb7cdr4aO4kkryx42BeH3yyXGEkGLxWtYr3V3pWS4TgEdESUmyQYPS9jz9Pe/nlrNsRxStlkGALAbCOZwYZk1MSLwjhWUHkbprz1Dma88jxIF155RXi4W8+lvIo0r8QSTIABdwXYZqMjyXktePoRPYQMIWmdWsGtaN09OM+5N1B1y/JFbmKH3bJho/4RX6xyfy865cDB48AKZYivD48ZVJJr8kOQXgluSPcvJLx0C0fBOaTOOpKSbqyBNklH2t8ssrDZJn69bc/2CjwPRxPJkDKrv4jJwpXJUspL4sbAc8SmLjGUjuUb571zULTnOAneXtKrmE2C4Fme4ULzv4/D7I1BgU8KP2sCYhpZDnkKjxG/h2/g+pWhs02kJGISqEAHzm9/lpPlq1zRNWAWpCEBbAqeC4j11OeBFixwWTrQVp46tO/GY3r2YQnb8euPTS68sq0N914A3miQYnrYjhiYUc1lilDhowZ0vFQ8ut/O+PZvy0MKwI8Sw89+bxcAg41dmDXwC/H04haX7XkgTcMpCY7x4GjY7Z9rPGj+ncKpEngdVCdk0KN+lNG9Lk3oc+KtewyAMY9fmjPB5Iibxb8DnMIUg4ZQPgEMYvisoXTA4x24V3Gms+wWT8QugOfLzXNtIpk79bP8Do6iZUuHaVBHSK9mw49/tuSlUQqeC5uZtugupWGsOmgtEuwJ7XkmJf2RbOoogZVRbuvamY5cSAkqnLlqkpFOmuzmqUjEwEWRd5YkXSIfmG9FAV9IKPlaQwTr+Tq+KsJu8QYgAYzcNtxICN/55xiFDmURBj7/jzw2Ver2Sx6vrAs/MBCnwmKGoFclzqkEENNh6Vh0dJlHIL8nwcOBgijSMS0qlPzsQAvp9VMLwI/0mW8ZVxbJhXBjrhuiy6lHn/O1FKpG1cgQTJJNRLbj0UgZASK3XG7tOXVZRcZcj9J2xD9DNmXpU+sN0nYOTle5SsyNR97BHli+tx3R0543dcWFLU+sCBAJLjNCmSE9IZyHxMxm3T5BC6sM9fVOQNpy26aDNDUZHkLdidOK4wNehU/WoVwsUvW4d5DX8GNBmXTmMmzJEyV7YmsRYyMrbKOzxIWgYhFgK+z6dg2bv5J6YtO1H0qVobiAxKhhbR5TmHdxq1SXrHc/xBu4EGYItAgeVYWL72kilZiDcDSQC47WLaYH7DI+den6ajEVYDD555+3NMtSWu6CTRmYsPgFHntRC3urkZJuNglzF7csuSqm7bEPGemZ38NHxlJPUdpCy0CFwsBM/eEuWW7WOPR6xKgiSDGIfKdrxgKrRw4Qc4EqXz46DHUiNgYsKF7NkfFiQsHpyr7dq/2bOirkAh9MnnD7BYv+ULqPFr+f74qm+XYHlS0DNDnwWy+ZdtOPbyz4K1Ku4lwsUs0jwCt18NTB0kTO4+UoHmRNBZawRIWgchEwPR4NQOfI2G0zz5RWZTv5Dow8xkmZmzsrCXNGGHmSHmj+nX2FC35uFDfYeO5EIYR801PzKWlLRvTBYtiPDSxQ2A6DqRDvGLEZQVbnEaIBtJQ6vAtLK2MvV5pNxEudsmVehvfsXuiYRv0mCyDlHMz+BaHeyi2xCIQgQiglUODJgNDs4ZCKXIGiTcFiSzF3QpZxPRFS8wg+VLQkjcnz54whL+mcG32ifc0rzM23pqPVTDLE0+TT042puJnji3Lf+oJHBlFtMTrqPidhUIYAL5N2orvIyjtJlL37t3bXZokJaw5fAkS2xmOcidPncJ7sUSxO3q0bYK/rvWYSRKEbScXBgFUeIQ8yLVwwsdcfmGuG8hVcEe7p2ghAmbIYQgrZ9cWSKsE68CIWSQ8reHSFvNxjuxZ8eh0OzUn2Ln/CsS/kIuCOi91eZEQID4+TtCdw7dEe+B7DY3b98GTF1eTFxvV1vKgCOKYJfgKlkUAqB/nhyRwJPIzMj7m171tEz8V7CmLQOQj8FCp+8WmwVBxC7/Tx1fCL9ZE2D+yCcX/ESHr7jsKEjpxAUaCm1TgDuRBjYe4deqzB2UlmDn/fWRnX7pRuGSbnkMQctm2d2sTIp9B4YA5WkZIZJ0fXkmdMG7Gg8LIVrYIRCwCbEgxmMrw3Em2ImHYuNDjUg6LwVoSCeNJzBiQJWl+WZrUpAsY99obHV6o7yvshRRTaFqJ7540rHeAruzuga09l/tCyhM08SdBVI97BLbEIhBlCEyaMV8+wsy8Ppo78dprAnIGjDIQLsx0yIjYqvsgkfhghe2a1Qur7g6biqQNY0V8f+Yr/ucY3s24/2vbsxaB5ILAw6VKKLuc9+5HaLiSy8iT3TjRdXy64FWUHoQqqZEtTLMgkYemWCRAPsGr2M14ghDZChaBFGjhNfEzbuE4NltQwocAJiaYZrh5JeOf/fZinYUv91KtAGHZpYmGpS0CPhF4of5Tcg7bgpliymcDeyKyESABCp/GlDGSnU/8sfwP2bJL//jYsxaBWASwKuiHmLBB401toUnWCGBK0vH7ygesFYSw7NIBiD20CPhEoNlzsQImCU81+4HP2vZEBCOAExJeSjLAJvVq6sc1/Q/Zskv/+NizFoF4BIg4xDVPjmcviFd7xdewVDJBgGAhdbes80SVAEdt2WWAQNlqFoEYBNo2qycZa3jfJM+WxSXZIUDSfnIPy7D50qT5ATv/c7Hs0j8+9qxF4DwEyOAwpGc7KeLLMOZHC86rZw8iGAE+rCbfj0EZHdR3QSy7jOC7aocWkQgQNk6eMYZGFpz+vj8LGJFjt4NKwWe95SOXmMJ7tmsaFCKWXQYFl61sEYhBoG2TuhIWSWIedUax0EQ+Anyoo+uA0TLOkX07kmcyqDFbdhkUXLayRSAGAaKYR/XrJErM7oPG8kl0i0vkI8CX3zv1GyFpJDs0r08S3mDHbNllsIjZ+haBGARISPja6P7CMdv1HsZHpi0uEY4Agf8S8sgnyAN0tHTMyLJLByD20CIQKAIF8t/06qi+cMwft+8cPWlGoM1svYuBwKq1G8hvxJVffL52g2eqhzYEyy5Dw822sgjEIECuyckj+kDMePM9guosKBGLwOCxUxlbi4bP6Bc0QxiqTeAWAmi2iUXgPARIt0467guQEuK8q9qDYBDgHvFNh5zZY78jEkzT+LqWXcZjYSmLgEXAIuAHAbsZ9wOOPWURsAhYBOIRsOwyHgtLWQQsAhYBPwhYdukHHHvKImARsAjEI2DZZTwWlrIIWAQsAn4QsOzSDzj2lEXAImARiEfAsst4LCxlEbAIWAT8IGDZpR9w7CmLgEXAIhCPgGWX8VhYyiJgEbAI+EHg/zy1kLTOAuVUAAAAAElFTkSuQmCC;" vertex="1" parent="1">
          <mxGeometry x="558" y="752.25" width="202.09" height="101.5" as="geometry" />
        </mxCell>
        <mxCell id="zQXd-Jtvyqu_DLBY98N6-138" value="" style="shape=image;verticalLabelPosition=bottom;labelBackgroundColor=default;verticalAlign=top;aspect=fixed;imageAspect=0;image=data:image/png,iVBORw0KGgoAAAANSUhEUgAAAH4AAAB+CAYAAADiI6WIAAAAAXNSR0IArs4c6QAAAIRlWElmTU0AKgAAAAgABQESAAMAAAABAAEAAAEaAAUAAAABAAAASgEbAAUAAAABAAAAUgEoAAMAAAABAAIAAIdpAAQAAAABAAAAWgAAAAAAAACQAAAAAQAAAJAAAAABAAOgAQADAAAAAQABAACgAgAEAAAAAQAAAH6gAwAEAAAAAQAAAH4AAAAAMq720wAAAAlwSFlzAAAWJQAAFiUBSVIk8AAAGKJJREFUeAHtmnmMXeV5hxODsfG+23ibGS/jbbyv2MZgY2IIBEjbKCGlilS1qqpK/aNqqNJIQBu1oqhpK6jUtFGlKqmTqhCy0AawTM3YeN/33R7vG17A+4Ld57HumczcZdbz3bl3fH7S43Pn3rnnfN+7nzP+whcSJRZILJBYILFAYoHEAokFEgskFkgskFggsUARWuCLRbjm5iz5Pr7cDwZC19SJrnA8Akfh89R7rf7Q2h3fBg92gN7QDXrAWBgPBoC6AJtgPXya+vk4x8uQqEgt8CDrngyvwhIwu+/k4Cbvb4E3oQJadVK0ts2Z4X1gPkwDnW5mt4OO0Bks99lkmb8KF+EanACrwBr4BVyCVqNid7xOvB/M0DEpyjkOBgPA8t4JmiIdbek/BfthO2yFPbANilrF6niz+CEYDg5qU2AU+F5fCKHDnNQqoPOtBFVgUJyGY1BUKhbHP4BVLdNdUujwJ+AR0OEtoaVc1JlgLRgMDokOhJ+BrSJRDBboyTmegzfBrMs1oLXU+w6Nb8CLMAAKXoWa8Wa3mTwZzOoR0B3s12a9FaCQ1u4dwXlwODQInAH+B3bBTrgIBaVCMl4ZltHBOlzs3fZsBzWdXkhrZTl1yqHQIfATOAMbYTMYBCehxdWSxnTidvLWwTp3WIqJHIdCrtsuPio6GQTLYS84CB6AKjAorkPelU/He6320BV8mjYOLOVTYTb4Xj7Xw+XyLp8VWAWWwcdgJbAC2AocDh0KnVNanSrY0WvgQxEn4JYaxgrlujewgVXg70Db5E0hM8wHK71hDoxNUcqxB0RZ35rKOdtqtG7zDUv9WTgH/o1gNzgcvgen4BbErjgd7+NSne2ANhIc0ErAfu2xJzitJ8ptAe8IHAx9WKTznQe2g8HgcBibmut4Hd0L+oJP07yHnQ46vRQGQaKmW6CKr/pk0LuB/wWHQauA71klmqymOP5Brmaptkx7T62jH4WpMAYShbOAs9EqqARf2yp8huBw2KinhU1x/HAu8nWYCzq7HTittgUrQKJwFtDJ0h6cCd4B7wysBkegwWqI4ztxtmEwARzU7OEPQXewZ9/rAxomaBEZAN4a+rcBW8BBWAubYAs4K+RUXY7XqVNgHvinzv5gKdfhiQrPAgaAj4hPwnr4GBwIGzULWL6/DD8FI+dOQlHZwAHwLfga6MsGydsy+/i7YO9OnF68Nvgw5Ut9WkvZ+rND2p+Cw5v33omK1wImre3csm8SVysjEvjEX/QPJw51iYrbAh1Z/iDImOVyOb4Dv5ytGhS3Ge691etDfdkgx1seTsBlSFTcFrjK8s+APq2lbBlvL1gMByHjC7W+nfxQyBbwqZ4JvBJ8XUt1Od4v+MVExWkBfbcMnOwz/sKXq4/7i0fgNPggZzAkKnwLmNn+mdcpfiH8HKzcGRl/P2/mkv9dyD5/DMz+oeBf4AyCAZCocCygc/fDUTBhfWy7IfXa1p2hjGkv4zd+88YjvPTv7JNhNPi83lu+buAfDRLlzwL+zx2fqIolXSebnD6i9bFtvWqM42ueTGe/CBNgDgwBzxXBy0QxW8BBOyrZVuFVsBQs6RegUWqq420RZrv/v70dGAC/DTOgFHwvUXwWiP6v/mpOuQR2gNl+DS5BxvDGe3WqqY5PP6n/McOs7w0lYCsYD5PAzxI13gL+2XUZrAD/65VZ7rDt/8vT6VH287LxisvxNa/cgR8qYBSMAGeBMnA+6AuJsltAR/qwxUGtCk6AvXsj2LezDmm83ySFcHzNhVjyB8M4mA8Ohj4/tgr4f/X8/F6VPdsna+ch+s8U23ltOd8KO8HPgyi049MXbTV4GObB78EguFdlBnvL/HP4P3BYy9tj8nw7PhoKHQy9BbQSzAZnAQfD1l4BHMbWwCJYCYchGtCaNKTx/SYp345PX2R33ugPPhByMJwGBoCzgENia5APVcT/DrUFDsE+8H/J6OwWUUMc7y1bD9AxlqdzcBJCaCwnHQ4Ogj4pdEg0AHxuUCzVwH6tjZzCq2AXePu1HyztZrj9PU6ZQNrIx+ve0zv9e52cqsvxGron2IfHQzl4i7EZHD6MVu8v3eh1iFuu7evwOIwBN+dg6FBom6hr7XycN+lE9x8NaQd4vREs6UvAvm3CxCmT0Xapoz1GA7TJeQJWgm3kLDR6QPQ27GUwet1cTYyqv4cXoA+EVlsuMBG+B2ZSzbUUwmuN/c8wFVxraHXlAk/DP4AOTreBPnsNhkFW5coaM+ov4JtQBumbucF7ntxoNuutAu+DZW03xN277uOcrslyZlT3gwkwDb4K+dRtLmYZ/QjWwwaoAjM+yrC4M9ysHgGTYBaMBNuvGa9NrABtIJKVuQreBoPDdRkc1crmeI08D74Dc8Cf65Ob1uFnwAjcAQbDFrgIcUtDOAAOhNFgGxJbQgnELR1pf3ZfHh3O3KfV5yS4/7hl+dbZ7snM9ef+UAo6PZvveLtarrkS/iZ1rBWM91f/2m9e6GhL1iBoiNP9ZneY4Qt0C8wEMUI/gQNQBQbGbWiurCiyH9zccPBJ4VgYBwaEgdEHOkNTdIUvnQWnbx2+CQxkHX8E4pYZq0O1u8HrPtyXjndf2XzF2zml77TDFFgG9Tqe37n7ZK2xF/J7yu9NT+HFdPZSeB/Ww6egUT3egDi0l5PIr6AjzAOD92EoBcuhreJByBXMrtV1iUF1FHS2Q9q7EHflMmMt0VYv12Xy6Oy5MBvKwM+bI21hEBlU9cqLvQIa8k7MXOB8H8P3wGgMLY1bAW9AJejUXHvysyXwKkwGnRFaQ7nAn4GB5S1YrrU19X19+ApkBJDZmS4jfxUsgGHpHzbzZyPQsjUIPP9B2AY7wIrgsBinNJjXeBM6g1mlUyeCk7HOtj9vh61wDgxOq9R1iFPauifMAoNRO5SC5d2K5PrilvvQl/q0lsyIdPme/fEleB7KIJQ0soY/BFtgF+gEh6b9ELeM/D5gtekAthrLutnmLBJX6+FU1Srhlb3aXutrBzYHtd7QBULJgP8FvA7OKXegWtkcH304hxfPwZOgoczWXP2Rj2KR2V8FOn81HAYdYoA4ExSDOrFIK4uOfQisMDNhFOjwkLrFybXTSfgAfgnOVxmqy/H+stn+NHwVSsGMMQAsS9naBG/Hqp9xtvWwBgwKo/YaWKLdZCFIO1g9nAkcorTZVJgNJo2BEFLeJensq6BdbFmLUhzgmFX1Od5NtQON3B/mwVMwH+yRoeVmLL8GmqXrB7AJrAYXoRBkufbuwQr5LOh4A9TqqO0MhpCyf1vSfwKVcBm8tjNKzuSoz/F8t1rtedULLGHOAG5wIjisDIOMyZH34pSZbu+37Fv+rQBudBX43k3Ih8xup/FxMA3s2drEwc2jdgrpbBOhCtaBSeBcdAROwFnI6Ww+q1ZjHF/9JV64MafRUrB3ufkSsCpojHyUN4NgB+yD46mjwbAbMqZY3muOzCD3WJE6juQ4EAz4fhDS0Zz+7gCsg616lm8HX/ddBSehQc7m96rVVMdXnyD1wnLn5DoEnAkGQB+IqkNow9jjtsNysA1YEYz+KAt42Sjp6G5ghTOTde4MsLqNgZBtzjZhVp+CM3AazGgrWxTYn/G6WYrL8emLKOeNR2A62Pcsf7aCtuDcEFIOO2aEQfAWrAXbgDgz+Hm6tIPB6TpdozPFeHCW0dkTIPS6zVq5AufgXVgBBrKOj1WhHK+RNGA7MHseh7mgEcdCSJkxOldHXwYzZjMYAAvBTEqXdiiDZ8BBTUdbrR4E9+F+QtmKU9/VVv5dB8vgHYgy333E3bqCb4Y135VGjMrmQ7w2CMbBSLCUhpRl07IvJ8GW4FBUBcoB1WDU8dEaXZMVKqRcj31bh6+CQ2BpN9ttUUEVOoqzLd6SqrGdBwbDULCsDgKDInRJtQI4GBkEahjo9M7+EFDXObfOPQwH0tjJz5b4vKklHJ++uQG88TRYAUpgIJh5YqsohDWyjEYrKtUGmMGmw/eCbWclHAfLeIuoPqPany15ZqmDh9noe0avxK2OnNDp+Vmw31oBNI5rKIYgiJxte9FWOv2n8DPYCH4etyLbONfoI/2j9E/O2aA+x5uNs2AmDAejdjcYtUsgbmksB6pOqROXc5wGT8JscJOFLB3ugPYBVMJe0PgX4RronLg1lROKc4r+so2sSHGUY1bV5fg5fOMrMA8cznTIZfgU3IjT8WLYBl7gIMQt+2536A9DYDSUgMFYBi0tnXkM/MvijhSHOJ4ABzXtFLe0hTawNZqQA6En+NzBiuktq9d+D34FayBDZli6DIa+8HyKmga279bUCH6ogv3gxo12N+0DhkvQXGk4sdJYZZaDG18Po8C1DQYHww4QWmav+3I9VaCT94DBb6bZyzV8nOrCyXSs+9beVkGxAnvUh22gprSH33sATNAjcBuqpZPT5Ym+DN8Fy2xDdZ5fNMLsZRrD/vYJnAONUevC/Nxc2f8nwxiYCW7W6tA1deQQm9yblU7H7oMVoLO3g3uMU9rfPYgOt3y7x4ngPq2+2RKWtzNkgrwO78CtjE/T3mjHz/8OZu6dJqKjl8G3wRJtmwit8VzgO2B/beq6c31vUercXiO0DN4vwd+CwZVrTQ1534r0fdCntZQtcqwC7SGaDmt9oYE/tOX3jNCh8Adgz9kAGtC5wN4Yt/ZwQvvtQrDEPQPeIUwB19EYmdVmy1pYAlatS+CME0ImxsMwN3U0WTpCF7BSppdy3mqQ9GMfyKjs2RxvJFmmm9OrDBoXLpbkkhSW5m/AEdgFlsy9EIdcb801W950nBvXgM+BPbIUOkBNWcYNHOcUv+P+o954lNf29jil3cvACjIKymEwDATX2wnikIF6GDLabDbHu8nl8Bi4mDhkqXFTMhPOgA63KmwGDW1r8b24ssoNizKj7M8aezg4D9g/ldc+CF7bo49zL0CcMuO6g5VHG/SFkTAGXI+JEULaVF822PGV/PIT4IIiA/EyNvXmTGIQWEZXwVZYCfvgIlyB8xBHtlkJ3gNlNml8Da68FTsON/0hRrXhXFaaHqANR4CtxywfB34WStrM5NoAq6FRNjQ6/wXu5Bkz75/gm9AWilW2uwXwE3Dyz6cdb3C9H8NsyCpLUC5ZHnuB5eh3YBaUQnsIKTPdUnsNzFSrjxVhG2yEQpZZbftyUJsOZnrXFA9wDKlznNw2ZetcAs5Qp8BnKhmqy/HRL1sah6Xox3E0TIYJ4IxgSQspy/AJcBO+/jXshrPgey2pAVzc4bUcpkI0oPXndV8IWbHs27dAZy+H7XAUjsAx8C4kZ4lviOP5frW68cpNVcBj4ATqxkvB9/OhlVxkK9ib3egBcKMXIe4+zSlrybsBe7ZOLUuhLUbBWNDRlvhQcn/2bhPBPbv/StD5DrJWyQapsY5PP6kRbuY/AV8CK4Cb1zgdIaRsAwfBjX8Ee0DnXwZ7qtFuX22OtI+OdCLvDDrczJ4Cj4FB755DyT24H8v1DbgAq2E5OLjthBZXO1bwCLwMLiifw4zX+hQ+hD8G1xKXPNfvwttgpuV7X+u45iugbWObr5qb8aylWmaGWe4wYwsYAmZHGcyFnhBS9juzwyHHjD8IO2AlLIKGSHtYzqfBZKgAZxozPsr6B3gdUqc5+XuwGZxlDDb3Y2C7P6tAsxWn49MXY2kcCr1hEIwDDWl7GA6hZdm371XBdnAW2AveHWjcSG144Zpcm+syUEvANXu0bYWWvXof6Gzx9TE4Dg3u2/xugxXS8emLMAgmgUdvEYeBdwkOjBJSDkVbQMdvAiuBdwRmd3Sn4oOVctD5Vq+Qsld7V3ISdLCZ7ZrWwn4Irnw6Pn0zX+GN2TABDAYrhLQDszCkzPgVEDm9S8iLcW4Dz8y1VF8BB1Gd/DEsBT/Lq1rS8TrX69szzfjfh2dgIuj8kLrDycXr58MG9mkD7SN4B86DU7pruA15Vz42Xd+mXIOONvt6pbDczoDHUz+HLr1cJlY5gJ2Bd2ElWL51tjioXQed3mKqy/Ea2wHHDBTvV81Sp2b7kQOI3II45XUdCJ0BnAUcvErAhyTOCIUqM9ch0jniQOq4MXW0p8ct7TQATJLx0AeU73vd5XAIsqouxzuFPwlPgdlnSdbxR2Ar6HwnUDfpkGI0S9zyoYkPSqaBraAT9ATfl5aSAW9WOy+YxQ6LZrc2OQhHIW7ZEr3L0Mkm5WioABNiCERyfvhv+CUYiBnK5njfs/S+DN+C/lCXVvGh950eN4DBcQUcWOKuBpzy7kZncVwAc8CSaZR3BIMzlLyOJdpn4MrjalgCZpe3iXFLP3QAq63X18FRC3yY120hl47zwX/AX8FN8Pt1yos8C8vgNviFurjK55Z/DWHU/yPMBx0RQjq3a4rBHP8EfgiHoK51NvczbWE2vwZWwX5gBrqWUAFXxrlfBPdnVf0UrKomVn2+8XMfXM0DE6OWzO50uYmXwAuOSP+wjp81rBcz0sQSeALMBquBpc8FxynX6jzQBSz/Y2AOWPZGgU5pjgzmg2Dv/hBscZZ1jf8ZxF3RTLrB8ATMBoOrF/QB25rVNJvPeDurrEL/Bv8K3kVUywulyxN7wcZmrN8zsuw9YhCcAYPnUdgPGvEAmDnXoLlyM8dSeC4d5Gb7QynYA0eC6xkADZHnc517oSr12qPn1eFxqz0ndI1lUJp6PZFjOTQ3cPWhvsxQNsff4bcsKTczfrtxbxidRqnoeM+5DzbBErAC2CJEY8chHbO8xomm8Xo6lMKw1FFDWKKtFuoS+D0z2Qq1K4Xr3AL29bj0RU5kclilekAvMCBnwHgwAMzuuGRiWJn0ab0yGJ6GleAXQrGHc78FfwRGpuXa6M/oR7wXh3T0N2AhmM0Gohgo3wefJLaDuKWztemD0B0GwrfgR6ANQtnX81bCI5BhUxeVTW158wfwArjgELKiiBkVZepaXi+GnRC3rEAGlhgE0d5v8drMENdii4pTXmsSzIcpMAF8NO06tLOE0HFO+p/wXXCPtRRtvtabqR9mczRDzAQHjpCK5oEzXOQsOA+sA/uqA9UFKCZ1YrHlMAbmwghw+LS0m/UGYUjt5uTex78NtqsM1eV4I7IC5sBIKIPh0A9ClEROW62rvNoBB2AfuBE5DKfgcygkWUqdZUyQoTUYwmsz3EAIKSvmMdA+Jo0VcxloQ5MqQ3U5PvplS5WDyCyYCkaxA4gDipu1FTTkPPxak+VmPobNYDC4QauDg+EVaAk5k2gX0Q4mhwPaNNDhIZPD/n0NPgHtsBc2gNmtna5C7Mmhk3X+X4KRZf+4DF4s5KBS89y/5lp/CKNA+XTLXhkyAD2317ASqunw57AINHLN9YV4bebqbAPdWWQPvA625EbPYU0xlGXNaO4Kvu4PRvpceAHyIUubE7nGsPRr/MVgRbgIIeRezeavwQIw2O4Hy7jZ3wZCyUDS6e/DclgHVj6T7hKYdL5usJri+PSTawCD4CEYDuPAiuDr0RBSZprRfxKOQhWYCQ6EGsdSeAOaoqjFVfBl9+NeRkAZGOwGQhz24zQZihxtRd0Bu1LHYxzdq4HfrAAPsXD722BwqNFQQ0FD9QMn25Cy5XgHcBBWgFkhJ8A+aJDkkhlryRwEA0EHu5eJqWNfjmZ2SLn24+DdjIEcOf4Qr3V6bArh+JqL8371UdCAU8Hs6QYdwSphVoVUZLzdXGQhGBiWRjNGI5u13cE1uZ5e4HongGs1CELK8mzm2rZkHyyHStDpV6FVyMz/NvwXWIYtaflkPdd7HeaCMsN/C34IBkc+1+K1dPYH8BKUQ94UOuPTN2KGm1ka3NlgJsyDUWAfbQchZcY7FZv1YnnvBFYm1yQhdYOTb4ONsAI2gw+sXNNnYCsyIIIr345P31Af3rAN2D97w2SYAcPBdtAadJxNOF/obIc0hzP79WGw6t2GvKulHV9zw235YSqMhZFgWygBh0OHwkJaK8vJKTP2PByCI2BW7wCd7wOWm9DiKlRj2hKsAI/BAvBWyonakmwQGCSFIh1tCbdU2z50uvNCJSyFKmg1Qxp7yavsw3Pgr0HjauxCwtvFN+E5MDALXoWa8emGM8OjW8AevB4AzgKT4CnIp+zJ12AJrAN7dxWY8XIRrAAFrWJxfLoRbQNdYTCUw+TU0fvuMggh+/V+WAMOaVXgkOaAdg6KSsXq+HQjV/BGCTgYWgUcCHtAdzBAmiJbig95ToMT+FZYBd6O+XNRq7U4vqYTnAeeB4NhGpRCe/C5gZ/dB9n0OW9api+D99Pedq0HM3wxGAAtcuvFdRM10gIGtgHwBlSCD0pyDYV+Zt9+FWwdoR/mcImWU2vM+HRrOhT6TMBst/xPAZ/F2wJ09nnYDpZye7Xl/Qz4WavN8HvB8fivWpZ5//LmEGhGO33rYJ+uWdot94kSCyQWSCyQWCCxQGKBxAKJBRILJBZILJBYILFAoVrg/wF1l6UeOeXf8gAAAABJRU5ErkJggg==;" vertex="1" parent="1">
          <mxGeometry x="200" y="639.75" width="76.5" height="76.5" as="geometry" />
        </mxCell>
        <mxCell id="zQXd-Jtvyqu_DLBY98N6-139" value="" style="shape=image;verticalLabelPosition=bottom;labelBackgroundColor=default;verticalAlign=top;aspect=fixed;imageAspect=0;image=data:image/png,iVBORw0KGgoAAAANSUhEUgAAAH4AAAB+CAYAAADiI6WIAAAAAXNSR0IArs4c6QAAAIRlWElmTU0AKgAAAAgABQESAAMAAAABAAEAAAEaAAUAAAABAAAASgEbAAUAAAABAAAAUgEoAAMAAAABAAIAAIdpAAQAAAABAAAAWgAAAAAAAACQAAAAAQAAAJAAAAABAAOgAQADAAAAAQABAACgAgAEAAAAAQAAAH6gAwAEAAAAAQAAAH4AAAAAMq720wAAAAlwSFlzAAAWJQAAFiUBSVIk8AAAGKJJREFUeAHtmnmMXeV5hxODsfG+23ibGS/jbbyv2MZgY2IIBEjbKCGlilS1qqpK/aNqqNJIQBu1oqhpK6jUtFGlKqmTqhCy0AawTM3YeN/33R7vG17A+4Ld57HumczcZdbz3bl3fH7S43Pn3rnnfN+7nzP+whcSJRZILJBYILFAYoHEAokFEgskFkgskFggsUARWuCLRbjm5iz5Pr7cDwZC19SJrnA8Akfh89R7rf7Q2h3fBg92gN7QDXrAWBgPBoC6AJtgPXya+vk4x8uQqEgt8CDrngyvwhIwu+/k4Cbvb4E3oQJadVK0ts2Z4X1gPkwDnW5mt4OO0Bks99lkmb8KF+EanACrwBr4BVyCVqNid7xOvB/M0DEpyjkOBgPA8t4JmiIdbek/BfthO2yFPbANilrF6niz+CEYDg5qU2AU+F5fCKHDnNQqoPOtBFVgUJyGY1BUKhbHP4BVLdNdUujwJ+AR0OEtoaVc1JlgLRgMDokOhJ+BrSJRDBboyTmegzfBrMs1oLXU+w6Nb8CLMAAKXoWa8Wa3mTwZzOoR0B3s12a9FaCQ1u4dwXlwODQInAH+B3bBTrgIBaVCMl4ZltHBOlzs3fZsBzWdXkhrZTl1yqHQIfATOAMbYTMYBCehxdWSxnTidvLWwTp3WIqJHIdCrtsuPio6GQTLYS84CB6AKjAorkPelU/He6320BV8mjYOLOVTYTb4Xj7Xw+XyLp8VWAWWwcdgJbAC2AocDh0KnVNanSrY0WvgQxEn4JYaxgrlujewgVXg70Db5E0hM8wHK71hDoxNUcqxB0RZ35rKOdtqtG7zDUv9WTgH/o1gNzgcvgen4BbErjgd7+NSne2ANhIc0ErAfu2xJzitJ8ptAe8IHAx9WKTznQe2g8HgcBibmut4Hd0L+oJP07yHnQ46vRQGQaKmW6CKr/pk0LuB/wWHQauA71klmqymOP5Brmaptkx7T62jH4WpMAYShbOAs9EqqARf2yp8huBw2KinhU1x/HAu8nWYCzq7HTittgUrQKJwFtDJ0h6cCd4B7wysBkegwWqI4ztxtmEwARzU7OEPQXewZ9/rAxomaBEZAN4a+rcBW8BBWAubYAs4K+RUXY7XqVNgHvinzv5gKdfhiQrPAgaAj4hPwnr4GBwIGzULWL6/DD8FI+dOQlHZwAHwLfga6MsGydsy+/i7YO9OnF68Nvgw5Ut9WkvZ+rND2p+Cw5v33omK1wImre3csm8SVysjEvjEX/QPJw51iYrbAh1Z/iDImOVyOb4Dv5ytGhS3Ge691etDfdkgx1seTsBlSFTcFrjK8s+APq2lbBlvL1gMByHjC7W+nfxQyBbwqZ4JvBJ8XUt1Od4v+MVExWkBfbcMnOwz/sKXq4/7i0fgNPggZzAkKnwLmNn+mdcpfiH8HKzcGRl/P2/mkv9dyD5/DMz+oeBf4AyCAZCocCygc/fDUTBhfWy7IfXa1p2hjGkv4zd+88YjvPTv7JNhNPi83lu+buAfDRLlzwL+zx2fqIolXSebnD6i9bFtvWqM42ueTGe/CBNgDgwBzxXBy0QxW8BBOyrZVuFVsBQs6RegUWqq420RZrv/v70dGAC/DTOgFHwvUXwWiP6v/mpOuQR2gNl+DS5BxvDGe3WqqY5PP6n/McOs7w0lYCsYD5PAzxI13gL+2XUZrAD/65VZ7rDt/8vT6VH287LxisvxNa/cgR8qYBSMAGeBMnA+6AuJsltAR/qwxUGtCk6AvXsj2LezDmm83ySFcHzNhVjyB8M4mA8Ohj4/tgr4f/X8/F6VPdsna+ch+s8U23ltOd8KO8HPgyi049MXbTV4GObB78EguFdlBnvL/HP4P3BYy9tj8nw7PhoKHQy9BbQSzAZnAQfD1l4BHMbWwCJYCYchGtCaNKTx/SYp345PX2R33ugPPhByMJwGBoCzgENia5APVcT/DrUFDsE+8H/J6OwWUUMc7y1bD9AxlqdzcBJCaCwnHQ4Ogj4pdEg0AHxuUCzVwH6tjZzCq2AXePu1HyztZrj9PU6ZQNrIx+ve0zv9e52cqsvxGron2IfHQzl4i7EZHD6MVu8v3eh1iFuu7evwOIwBN+dg6FBom6hr7XycN+lE9x8NaQd4vREs6UvAvm3CxCmT0Xapoz1GA7TJeQJWgm3kLDR6QPQ27GUwet1cTYyqv4cXoA+EVlsuMBG+B2ZSzbUUwmuN/c8wFVxraHXlAk/DP4AOTreBPnsNhkFW5coaM+ov4JtQBumbucF7ntxoNuutAu+DZW03xN277uOcrslyZlT3gwkwDb4K+dRtLmYZ/QjWwwaoAjM+yrC4M9ysHgGTYBaMBNuvGa9NrABtIJKVuQreBoPDdRkc1crmeI08D74Dc8Cf65Ob1uFnwAjcAQbDFrgIcUtDOAAOhNFgGxJbQgnELR1pf3ZfHh3O3KfV5yS4/7hl+dbZ7snM9ef+UAo6PZvveLtarrkS/iZ1rBWM91f/2m9e6GhL1iBoiNP9ZneY4Qt0C8wEMUI/gQNQBQbGbWiurCiyH9zccPBJ4VgYBwaEgdEHOkNTdIUvnQWnbx2+CQxkHX8E4pYZq0O1u8HrPtyXjndf2XzF2zml77TDFFgG9Tqe37n7ZK2xF/J7yu9NT+HFdPZSeB/Ww6egUT3egDi0l5PIr6AjzAOD92EoBcuhreJByBXMrtV1iUF1FHS2Q9q7EHflMmMt0VYv12Xy6Oy5MBvKwM+bI21hEBlU9cqLvQIa8k7MXOB8H8P3wGgMLY1bAW9AJejUXHvysyXwKkwGnRFaQ7nAn4GB5S1YrrU19X19+ApkBJDZmS4jfxUsgGHpHzbzZyPQsjUIPP9B2AY7wIrgsBinNJjXeBM6g1mlUyeCk7HOtj9vh61wDgxOq9R1iFPauifMAoNRO5SC5d2K5PrilvvQl/q0lsyIdPme/fEleB7KIJQ0soY/BFtgF+gEh6b9ELeM/D5gtekAthrLutnmLBJX6+FU1Srhlb3aXutrBzYHtd7QBULJgP8FvA7OKXegWtkcH304hxfPwZOgoczWXP2Rj2KR2V8FOn81HAYdYoA4ExSDOrFIK4uOfQisMDNhFOjwkLrFybXTSfgAfgnOVxmqy/H+stn+NHwVSsGMMQAsS9naBG/Hqp9xtvWwBgwKo/YaWKLdZCFIO1g9nAkcorTZVJgNJo2BEFLeJensq6BdbFmLUhzgmFX1Od5NtQON3B/mwVMwH+yRoeVmLL8GmqXrB7AJrAYXoRBkufbuwQr5LOh4A9TqqO0MhpCyf1vSfwKVcBm8tjNKzuSoz/F8t1rtedULLGHOAG5wIjisDIOMyZH34pSZbu+37Fv+rQBudBX43k3Ih8xup/FxMA3s2drEwc2jdgrpbBOhCtaBSeBcdAROwFnI6Ww+q1ZjHF/9JV64MafRUrB3ufkSsCpojHyUN4NgB+yD46mjwbAbMqZY3muOzCD3WJE6juQ4EAz4fhDS0Zz+7gCsg616lm8HX/ddBSehQc7m96rVVMdXnyD1wnLn5DoEnAkGQB+IqkNow9jjtsNysA1YEYz+KAt42Sjp6G5ghTOTde4MsLqNgZBtzjZhVp+CM3AazGgrWxTYn/G6WYrL8emLKOeNR2A62Pcsf7aCtuDcEFIOO2aEQfAWrAXbgDgz+Hm6tIPB6TpdozPFeHCW0dkTIPS6zVq5AufgXVgBBrKOj1WhHK+RNGA7MHseh7mgEcdCSJkxOldHXwYzZjMYAAvBTEqXdiiDZ8BBTUdbrR4E9+F+QtmKU9/VVv5dB8vgHYgy333E3bqCb4Y135VGjMrmQ7w2CMbBSLCUhpRl07IvJ8GW4FBUBcoB1WDU8dEaXZMVKqRcj31bh6+CQ2BpN9ttUUEVOoqzLd6SqrGdBwbDULCsDgKDInRJtQI4GBkEahjo9M7+EFDXObfOPQwH0tjJz5b4vKklHJ++uQG88TRYAUpgIJh5YqsohDWyjEYrKtUGmMGmw/eCbWclHAfLeIuoPqPany15ZqmDh9noe0avxK2OnNDp+Vmw31oBNI5rKIYgiJxte9FWOv2n8DPYCH4etyLbONfoI/2j9E/O2aA+x5uNs2AmDAejdjcYtUsgbmksB6pOqROXc5wGT8JscJOFLB3ugPYBVMJe0PgX4RronLg1lROKc4r+so2sSHGUY1bV5fg5fOMrMA8cznTIZfgU3IjT8WLYBl7gIMQt+2536A9DYDSUgMFYBi0tnXkM/MvijhSHOJ4ABzXtFLe0hTawNZqQA6En+NzBiuktq9d+D34FayBDZli6DIa+8HyKmga279bUCH6ogv3gxo12N+0DhkvQXGk4sdJYZZaDG18Po8C1DQYHww4QWmav+3I9VaCT94DBb6bZyzV8nOrCyXSs+9beVkGxAnvUh22gprSH33sATNAjcBuqpZPT5Ym+DN8Fy2xDdZ5fNMLsZRrD/vYJnAONUevC/Nxc2f8nwxiYCW7W6tA1deQQm9yblU7H7oMVoLO3g3uMU9rfPYgOt3y7x4ngPq2+2RKWtzNkgrwO78CtjE/T3mjHz/8OZu6dJqKjl8G3wRJtmwit8VzgO2B/beq6c31vUercXiO0DN4vwd+CwZVrTQ1534r0fdCntZQtcqwC7SGaDmt9oYE/tOX3jNCh8Adgz9kAGtC5wN4Yt/ZwQvvtQrDEPQPeIUwB19EYmdVmy1pYAlatS+CME0ImxsMwN3U0WTpCF7BSppdy3mqQ9GMfyKjs2RxvJFmmm9OrDBoXLpbkkhSW5m/AEdgFlsy9EIdcb801W950nBvXgM+BPbIUOkBNWcYNHOcUv+P+o954lNf29jil3cvACjIKymEwDATX2wnikIF6GDLabDbHu8nl8Bi4mDhkqXFTMhPOgA63KmwGDW1r8b24ssoNizKj7M8aezg4D9g/ldc+CF7bo49zL0CcMuO6g5VHG/SFkTAGXI+JEULaVF822PGV/PIT4IIiA/EyNvXmTGIQWEZXwVZYCfvgIlyB8xBHtlkJ3gNlNml8Da68FTsON/0hRrXhXFaaHqANR4CtxywfB34WStrM5NoAq6FRNjQ6/wXu5Bkz75/gm9AWilW2uwXwE3Dyz6cdb3C9H8NsyCpLUC5ZHnuB5eh3YBaUQnsIKTPdUnsNzFSrjxVhG2yEQpZZbftyUJsOZnrXFA9wDKlznNw2ZetcAs5Qp8BnKhmqy/HRL1sah6Xox3E0TIYJ4IxgSQspy/AJcBO+/jXshrPgey2pAVzc4bUcpkI0oPXndV8IWbHs27dAZy+H7XAUjsAx8C4kZ4lviOP5frW68cpNVcBj4ATqxkvB9/OhlVxkK9ib3egBcKMXIe4+zSlrybsBe7ZOLUuhLUbBWNDRlvhQcn/2bhPBPbv/StD5DrJWyQapsY5PP6kRbuY/AV8CK4Cb1zgdIaRsAwfBjX8Ee0DnXwZ7qtFuX22OtI+OdCLvDDrczJ4Cj4FB755DyT24H8v1DbgAq2E5OLjthBZXO1bwCLwMLiifw4zX+hQ+hD8G1xKXPNfvwttgpuV7X+u45iugbWObr5qb8aylWmaGWe4wYwsYAmZHGcyFnhBS9juzwyHHjD8IO2AlLIKGSHtYzqfBZKgAZxozPsr6B3gdUqc5+XuwGZxlDDb3Y2C7P6tAsxWn49MXY2kcCr1hEIwDDWl7GA6hZdm371XBdnAW2AveHWjcSG144Zpcm+syUEvANXu0bYWWvXof6Gzx9TE4Dg3u2/xugxXS8emLMAgmgUdvEYeBdwkOjBJSDkVbQMdvAiuBdwRmd3Sn4oOVctD5Vq+Qsld7V3ISdLCZ7ZrWwn4Irnw6Pn0zX+GN2TABDAYrhLQDszCkzPgVEDm9S8iLcW4Dz8y1VF8BB1Gd/DEsBT/Lq1rS8TrX69szzfjfh2dgIuj8kLrDycXr58MG9mkD7SN4B86DU7pruA15Vz42Xd+mXIOONvt6pbDczoDHUz+HLr1cJlY5gJ2Bd2ElWL51tjioXQed3mKqy/Ea2wHHDBTvV81Sp2b7kQOI3II45XUdCJ0BnAUcvErAhyTOCIUqM9ch0jniQOq4MXW0p8ct7TQATJLx0AeU73vd5XAIsqouxzuFPwlPgdlnSdbxR2Ar6HwnUDfpkGI0S9zyoYkPSqaBraAT9ATfl5aSAW9WOy+YxQ6LZrc2OQhHIW7ZEr3L0Mkm5WioABNiCERyfvhv+CUYiBnK5njfs/S+DN+C/lCXVvGh950eN4DBcQUcWOKuBpzy7kZncVwAc8CSaZR3BIMzlLyOJdpn4MrjalgCZpe3iXFLP3QAq63X18FRC3yY120hl47zwX/AX8FN8Pt1yos8C8vgNviFurjK55Z/DWHU/yPMBx0RQjq3a4rBHP8EfgiHoK51NvczbWE2vwZWwX5gBrqWUAFXxrlfBPdnVf0UrKomVn2+8XMfXM0DE6OWzO50uYmXwAuOSP+wjp81rBcz0sQSeALMBquBpc8FxynX6jzQBSz/Y2AOWPZGgU5pjgzmg2Dv/hBscZZ1jf8ZxF3RTLrB8ATMBoOrF/QB25rVNJvPeDurrEL/Bv8K3kVUywulyxN7wcZmrN8zsuw9YhCcAYPnUdgPGvEAmDnXoLlyM8dSeC4d5Gb7QynYA0eC6xkADZHnc517oSr12qPn1eFxqz0ndI1lUJp6PZFjOTQ3cPWhvsxQNsff4bcsKTczfrtxbxidRqnoeM+5DzbBErAC2CJEY8chHbO8xomm8Xo6lMKw1FFDWKKtFuoS+D0z2Qq1K4Xr3AL29bj0RU5kclilekAvMCBnwHgwAMzuuGRiWJn0ab0yGJ6GleAXQrGHc78FfwRGpuXa6M/oR7wXh3T0N2AhmM0Gohgo3wefJLaDuKWztemD0B0GwrfgR6ANQtnX81bCI5BhUxeVTW158wfwArjgELKiiBkVZepaXi+GnRC3rEAGlhgE0d5v8drMENdii4pTXmsSzIcpMAF8NO06tLOE0HFO+p/wXXCPtRRtvtabqR9mczRDzAQHjpCK5oEzXOQsOA+sA/uqA9UFKCZ1YrHlMAbmwghw+LS0m/UGYUjt5uTex78NtqsM1eV4I7IC5sBIKIPh0A9ClEROW62rvNoBB2AfuBE5DKfgcygkWUqdZUyQoTUYwmsz3EAIKSvmMdA+Jo0VcxloQ5MqQ3U5PvplS5WDyCyYCkaxA4gDipu1FTTkPPxak+VmPobNYDC4QauDg+EVaAk5k2gX0Q4mhwPaNNDhIZPD/n0NPgHtsBc2gNmtna5C7Mmhk3X+X4KRZf+4DF4s5KBS89y/5lp/CKNA+XTLXhkyAD2317ASqunw57AINHLN9YV4bebqbAPdWWQPvA625EbPYU0xlGXNaO4Kvu4PRvpceAHyIUubE7nGsPRr/MVgRbgIIeRezeavwQIw2O4Hy7jZ3wZCyUDS6e/DclgHVj6T7hKYdL5usJri+PSTawCD4CEYDuPAiuDr0RBSZprRfxKOQhWYCQ6EGsdSeAOaoqjFVfBl9+NeRkAZGOwGQhz24zQZihxtRd0Bu1LHYxzdq4HfrAAPsXD722BwqNFQQ0FD9QMn25Cy5XgHcBBWgFkhJ8A+aJDkkhlryRwEA0EHu5eJqWNfjmZ2SLn24+DdjIEcOf4Qr3V6bArh+JqL8371UdCAU8Hs6QYdwSphVoVUZLzdXGQhGBiWRjNGI5u13cE1uZ5e4HongGs1CELK8mzm2rZkHyyHStDpV6FVyMz/NvwXWIYtaflkPdd7HeaCMsN/C34IBkc+1+K1dPYH8BKUQ94UOuPTN2KGm1ka3NlgJsyDUWAfbQchZcY7FZv1YnnvBFYm1yQhdYOTb4ONsAI2gw+sXNNnYCsyIIIr345P31Af3rAN2D97w2SYAcPBdtAadJxNOF/obIc0hzP79WGw6t2GvKulHV9zw235YSqMhZFgWygBh0OHwkJaK8vJKTP2PByCI2BW7wCd7wOWm9DiKlRj2hKsAI/BAvBWyonakmwQGCSFIh1tCbdU2z50uvNCJSyFKmg1Qxp7yavsw3Pgr0HjauxCwtvFN+E5MDALXoWa8emGM8OjW8AevB4AzgKT4CnIp+zJ12AJrAN7dxWY8XIRrAAFrWJxfLoRbQNdYTCUw+TU0fvuMggh+/V+WAMOaVXgkOaAdg6KSsXq+HQjV/BGCTgYWgUcCHtAdzBAmiJbig95ToMT+FZYBd6O+XNRq7U4vqYTnAeeB4NhGpRCe/C5gZ/dB9n0OW9api+D99Pedq0HM3wxGAAtcuvFdRM10gIGtgHwBlSCD0pyDYV+Zt9+FWwdoR/mcImWU2vM+HRrOhT6TMBst/xPAZ/F2wJ09nnYDpZye7Xl/Qz4WavN8HvB8fivWpZ5//LmEGhGO33rYJ+uWdot94kSCyQWSCyQWCCxQGKBxAKJBRILJBZILJBYILFAoVrg/wF1l6UeOeXf8gAAAABJRU5ErkJggg==;" vertex="1" parent="1">
          <mxGeometry x="1140" y="639.75" width="76.5" height="76.5" as="geometry" />
        </mxCell>
      </root>
    </mxGraphModel>
  </diagram>
</mxfile>
